<svg width="34" height="38" viewBox="0 0 34 38" fill="none" xmlns="http://www.w3.org/2000/svg">
<g id="shield-card">
<path id="Subtract" fill-rule="evenodd" clip-rule="evenodd" d="M14.1133 0.772879C15.945 -0.0543388 18.0439 -0.0543386 19.8756 0.772879L29.2151 4.99073C31.7224 6.12308 33.3339 8.61915 33.3339 11.3703V23.5585C33.3339 25.7151 32.3398 27.7513 30.6394 29.0778L21.2999 36.3632C18.7691 38.3374 15.2198 38.3374 12.689 36.3632L3.34955 29.0778C1.64909 27.7513 0.654999 25.7151 0.654999 23.5585V11.3703C0.654999 8.61915 2.26654 6.12308 4.77387 4.99073L14.1133 0.772879ZM12.2389 10.6175C9.8414 10.6175 8.00577 12.6392 8.00577 14.9967V21.13C8.00577 23.4875 9.8414 25.5092 12.2389 25.5092H21.731C24.1285 25.5092 25.9641 23.4875 25.9641 21.13V14.9967C25.9641 12.6392 24.1285 10.6175 21.731 10.6175H12.2389ZM10.6308 14.9967C10.6308 13.9668 11.4104 13.2425 12.2389 13.2425H21.731C22.5595 13.2425 23.3391 13.9668 23.3391 14.9967V15.2175L10.6308 15.2175V14.9967ZM10.6308 17.8425L23.3391 17.8425V21.13C23.3391 22.1599 22.5595 22.8842 21.731 22.8842H12.2389C11.4104 22.8842 10.6308 22.1599 10.6308 21.13V17.8425Z" fill="#0CE93C"/>
</g>
</svg>
