<svg width="41" height="40" viewBox="0 0 41 40" fill="none" xmlns="http://www.w3.org/2000/svg">
<g id="Binance Coin (BNB)">
<path id="Binance Coin (BNB)_2" d="M39.6434 24.8381C36.9722 35.5525 26.1203 42.0731 15.4046 39.4012C4.69344 36.7301 -1.82713 25.8775 0.845186 15.1639C3.51516 4.44838 14.3671 -2.07268 25.0794 0.598468C35.7943 3.26961 42.3145 14.1234 39.6431 24.8383L39.6433 24.8381H39.6434Z" fill="#F3BA2F"/>
<path id="Binance Coin (BNB)_3" fill-rule="evenodd" clip-rule="evenodd" d="M20.2462 12.6933L15.0674 17.8722L15.0675 17.872L12.0542 14.8587L20.2462 6.66666L28.4409 14.8611L25.4276 17.8744L20.2462 12.6933ZM9.92634 16.9861L6.9129 20L9.92613 23.0128L12.9396 19.9994L9.92634 16.9861ZM15.0674 22.1281L20.2462 27.3067L25.4275 22.1256L28.4424 25.1374L28.4409 25.139L20.2462 33.3333L12.0542 25.1413L12.05 25.1371L15.0674 22.1281ZM30.5663 16.9878L27.5529 20.0013L30.5662 23.0145L33.5796 20.0011L30.5663 16.9878Z" fill="white"/>
<path id="Binance Coin (BNB)_4" d="M23.3024 19.9984H23.3037L20.2462 16.9407L17.9862 19.2L17.7266 19.4597L17.1912 19.9953L17.1869 19.9994L17.1912 20.0038L20.2462 23.0593L23.3039 20.0016L23.3054 19.9999L23.3026 19.9984" fill="white"/>
</g>
</svg>
