<svg width="58" height="58" viewBox="0 0 58 58" fill="none" xmlns="http://www.w3.org/2000/svg">
<g id="Bitcoin Cash (BCH)">
<g id="Bitcoin Cash (BCH)_2">
<circle id="Bitcoin Cash (BCH)_3" cx="29" cy="29" r="28" fill="#8DC351"/>
<path id="Bitcoin Cash (BCH)_4" fill-rule="evenodd" clip-rule="evenodd" d="M38.1242 19.5692C36.7227 16.0866 33.3942 15.9124 29.365 16.609L27.9636 11.7333L24.9854 12.604L26.3869 17.3055C26.103 17.376 25.7904 17.4751 25.4606 17.5797L25.4606 17.5797C24.9765 17.7332 24.4554 17.8984 23.9343 18.002L22.5329 13.1264L19.5548 13.997L20.9562 18.8726C20.6059 18.9597 20.2993 19.0468 19.9927 19.1338C19.6861 19.2209 19.3796 19.308 19.0292 19.395L15 20.7881L15.8759 23.9224C15.8759 23.9224 18.1533 23.2259 17.9781 23.2259C19.2044 22.8776 19.7299 23.4 20.0803 24.0965L21.657 29.6687H22.0073L21.657 29.8428L23.9343 37.6786C23.9343 38.0269 23.9343 38.7234 23.0584 39.0716L20.9562 39.7682L21.3066 43.4249L25.1606 42.3801L27.2628 41.8577L28.6643 46.7333L31.6424 45.8627L30.2409 40.9871C31.1168 40.8129 31.8176 40.6388 32.6935 40.2906L34.095 45.1662L37.0731 44.2955L35.6716 39.4199C40.5767 37.6786 43.73 35.4149 42.8541 30.5393C42.1534 26.7085 39.876 25.4896 36.7227 25.6637C38.4745 23.9224 39.1753 22.1811 38.1242 19.5692ZM37.0729 31.41C37.9995 34.6334 33.0724 36.0978 30.4519 36.8767C30.0997 36.9814 29.7891 37.0737 29.54 37.1562L27.613 30.5393C27.8893 30.4707 28.2352 30.3689 28.6304 30.2527C31.2422 29.4844 36.0078 28.0826 37.0729 31.41ZM27.2255 27.4388C29.32 26.8472 33.835 25.5718 32.8684 22.5292C32.076 19.3788 27.6996 20.7883 25.5751 21.4726C25.3512 21.5447 25.1522 21.6088 24.9852 21.6586L26.737 27.579C26.8778 27.537 27.0424 27.4905 27.2255 27.4388Z" fill="white"/>
</g>
</g>
</svg>
