<svg width="41" height="40" viewBox="0 0 41 40" fill="none" xmlns="http://www.w3.org/2000/svg">
<g id="Bitcoin (BTC)">
<path id="Bitcoin (BTC)_2" d="M39.6478 24.8381C36.9766 35.5525 26.1247 42.0731 15.409 39.4012C4.69783 36.7301 -1.82274 25.8775 0.849581 15.1639C3.51955 4.44838 14.3715 -2.07268 25.0838 0.598468C35.7987 3.26961 42.3189 14.1234 39.6475 24.8383L39.6477 24.8381H39.6478Z" fill="#F7931A"/>
<path id="Bitcoin (BTC)_3" fill-rule="evenodd" clip-rule="evenodd" d="M29.0676 17.1505C29.4656 14.4889 27.4393 13.0582 24.6684 12.1038L25.5673 8.49849L23.3727 7.95163L22.4976 11.462C21.9207 11.3181 21.3281 11.1825 20.7393 11.0481L21.6206 7.51455L19.4273 6.96769L18.528 10.5718C18.0505 10.4631 17.5816 10.3557 17.1266 10.2425L17.1291 10.2312L14.1026 9.47539L13.5188 11.8194C13.5188 11.8194 15.1471 12.1927 15.1128 12.2156C16.0015 12.4375 16.1622 13.0258 16.1355 13.4921L15.1116 17.5994C15.1728 17.6149 15.2522 17.6374 15.3398 17.6726L15.2761 17.6567L15.276 17.6567C15.2219 17.6431 15.1656 17.6291 15.1078 17.6152L13.6726 23.369C13.564 23.639 13.2883 24.0442 12.667 23.8903C12.689 23.9222 11.0719 23.4922 11.0719 23.4922L9.98224 26.0044L12.8382 26.7164C13.151 26.7948 13.4601 26.8754 13.766 26.9552L13.7662 26.9552C13.9799 27.0109 14.1921 27.0662 14.403 27.1201L13.4948 30.7668L15.6869 31.3137L16.5863 27.7057C17.1852 27.8683 17.7663 28.0183 18.3353 28.1596L17.4389 31.7506L19.6337 32.2974L20.5418 28.6576C24.2842 29.3659 27.0981 29.0803 28.2826 25.6953C29.237 22.97 28.2351 21.3981 26.2662 20.373C27.7002 20.0423 28.7804 19.0991 29.0683 17.1508L29.0677 17.1503L29.0676 17.1505ZM24.0531 24.1818C23.4309 26.6822 19.5171 25.6484 17.7264 25.1755C17.5653 25.1329 17.4214 25.0949 17.2986 25.0644L18.5038 20.2332C18.6534 20.2706 18.8363 20.3116 19.0435 20.3581C20.8957 20.7738 24.6907 21.6255 24.0532 24.1818H24.0531ZM19.415 18.1158C20.9079 18.5142 24.1647 19.3834 24.7319 17.1109H24.7321C25.3112 14.7866 22.1462 14.0859 20.6004 13.7437C20.4265 13.7052 20.2731 13.6712 20.1478 13.64L19.0552 18.0216C19.1583 18.0473 19.2794 18.0796 19.415 18.1158Z" fill="white"/>
</g>
</svg>
