<svg width="41" height="40" viewBox="0 0 41 40" fill="none" xmlns="http://www.w3.org/2000/svg">
<g id="Cardano (ADA)">
<circle id="Cardano (ADA)_2" cx="20.2462" cy="20" r="20" fill="#EDF0F4"/>
<g id="Cardano (ADA)_3">
<path id="Cardano (ADA)_4" d="M14.2234 19.8983C14.1665 20.8867 14.9274 21.7329 15.9158 21.7898C15.9513 21.7898 15.9869 21.7898 16.0224 21.7898C17.0179 21.7898 17.8215 20.9862 17.8143 19.9907C17.8143 18.9952 17.0108 18.1917 16.0153 18.1988C15.0625 18.1988 14.2732 18.9454 14.2234 19.8983Z" fill="#0033AD"/>
<path id="Cardano (ADA)_5" d="M7.52503 19.4361C7.20504 19.4148 6.92772 19.6636 6.9135 19.9836C6.89928 20.3036 7.14104 20.5809 7.46103 20.5951C7.78102 20.6165 8.05123 20.3676 8.07256 20.0476C8.09389 19.7276 7.84501 19.4574 7.52503 19.4361Z" fill="#0033AD"/>
<path id="Cardano (ADA)_6" d="M14.1096 9.47387C14.3941 9.33165 14.5079 8.97611 14.3656 8.69168C14.2234 8.40725 13.8679 8.29348 13.5834 8.43569C13.299 8.57791 13.1852 8.92634 13.3275 9.21077C13.4697 9.50231 13.8181 9.62319 14.1096 9.47387C14.1096 9.47387 14.1025 9.47387 14.1096 9.47387Z" fill="#0033AD"/>
<path id="Cardano (ADA)_7" d="M15.93 12.6524C16.3709 12.432 16.5486 11.8915 16.3282 11.4507C16.1078 11.0098 15.5673 10.832 15.1265 11.0525C14.6856 11.2729 14.5078 11.8133 14.7283 12.2542C14.9487 12.6951 15.4891 12.8728 15.93 12.6524Z" fill="#0033AD"/>
<path id="Cardano (ADA)_8" d="M9.8005 14.8354C10.1418 15.0558 10.5969 14.9634 10.8245 14.6221C11.0449 14.2808 10.9525 13.8257 10.6111 13.5981C10.2698 13.3777 9.81472 13.4701 9.58718 13.8114C9.35963 14.1528 9.45918 14.615 9.8005 14.8354Z" fill="#0033AD"/>
<path id="Cardano (ADA)_9" d="M10.8884 19.1161C10.3907 19.0877 9.97111 19.4645 9.94267 19.9623C9.91423 20.46 10.2911 20.8796 10.7889 20.908C11.2866 20.9365 11.7061 20.5596 11.7346 20.0618C11.763 19.5712 11.3862 19.1445 10.8884 19.1161Z" fill="#0033AD"/>
<path id="Cardano (ADA)_10" d="M9.90004 25.1389C9.53739 25.3238 9.38807 25.7647 9.57295 26.1345C9.75783 26.4971 10.1987 26.6464 10.5685 26.4615C10.9311 26.2767 11.0804 25.8358 10.8956 25.466C10.7107 25.1034 10.2627 24.9541 9.90004 25.1389Z" fill="#0033AD"/>
<path id="Cardano (ADA)_11" d="M13.3843 17.2602C13.875 17.5802 14.5292 17.4451 14.842 16.9544C15.162 16.4638 15.0269 15.8096 14.5363 15.4967C14.0456 15.1767 13.3914 15.3118 13.0786 15.8025C12.7586 16.286 12.8937 16.9402 13.3843 17.2602Z" fill="#0033AD"/>
<path id="Cardano (ADA)_12" d="M24.4416 12.5813C24.8541 12.8515 25.4158 12.7377 25.686 12.3253C25.9562 11.9129 25.8425 11.3511 25.43 11.0809C25.0176 10.8107 24.4559 10.9245 24.1856 11.3369C23.9083 11.7564 24.0221 12.3111 24.4416 12.5813Z" fill="#0033AD"/>
<path id="Cardano (ADA)_13" d="M26.2762 9.41698C26.5464 9.59475 26.902 9.51653 27.0797 9.24632C27.2575 8.97611 27.1793 8.62057 26.9091 8.4428C26.6389 8.26503 26.2833 8.34325 26.1055 8.60635C25.9349 8.87656 26.0131 9.23921 26.2762 9.41698Z" fill="#0033AD"/>
<path id="Cardano (ADA)_14" d="M24.5767 18.1846C23.5883 18.1277 22.735 18.8886 22.6852 19.877C22.6284 20.8654 23.3892 21.7187 24.3776 21.7684C24.4132 21.7684 24.4487 21.7684 24.4772 21.7684C25.4656 21.7684 26.2691 20.9649 26.2691 19.9694C26.2762 19.0237 25.5296 18.2344 24.5767 18.1846Z" fill="#0033AD"/>
<path id="Cardano (ADA)_15" d="M16.5202 17.1322C16.8259 17.7366 17.4446 18.1206 18.1272 18.1206C19.1156 18.1206 19.9191 17.3171 19.9191 16.3216C19.9191 16.0442 19.8551 15.7669 19.7271 15.5109C19.2792 14.6221 18.1983 14.2665 17.3166 14.7145C16.4277 15.1696 16.0722 16.2504 16.5202 17.1322Z" fill="#0033AD"/>
<path id="Cardano (ADA)_16" d="M30.5925 14.8354C30.9551 14.6505 31.0973 14.2025 30.9125 13.8399C30.7276 13.4772 30.2796 13.335 29.9169 13.5199C29.5543 13.7048 29.4121 14.1456 29.5898 14.5083C29.7818 14.8709 30.2227 15.0203 30.5925 14.8354Z" fill="#0033AD"/>
<path id="Cardano (ADA)_17" d="M26.0415 15.4043C25.5224 15.6674 25.3091 16.3002 25.5722 16.8193C25.8353 17.3384 26.4682 17.5517 26.9873 17.2886C27.5063 17.0255 27.7197 16.3927 27.4566 15.8736C27.1935 15.3545 26.5606 15.1483 26.0415 15.4043Z" fill="#0033AD"/>
<path id="Cardano (ADA)_18" d="M20.1751 9.14677C20.5804 9.1681 20.9289 8.85523 20.9573 8.44991C20.9858 8.0446 20.6658 7.69617 20.2605 7.66772C19.8551 7.64639 19.5067 7.95215 19.4783 8.35747C19.4569 8.7699 19.7698 9.11832 20.1751 9.14677Z" fill="#0033AD"/>
<path id="Cardano (ADA)_19" d="M20.168 13.7901C20.7511 13.8257 21.2489 13.3777 21.2773 12.7946C21.3129 12.2115 20.8649 11.7138 20.2818 11.6853C19.6987 11.6498 19.2009 12.0978 19.1725 12.6808C19.1441 13.2639 19.5849 13.7617 20.168 13.7901Z" fill="#0033AD"/>
<path id="Cardano (ADA)_20" d="M14.4509 24.5701C14.97 24.307 15.1834 23.6741 14.9203 23.155C14.6572 22.6359 14.0243 22.4226 13.5052 22.6857C12.9861 22.9488 12.7728 23.5817 13.0359 24.1008C13.299 24.6199 13.9319 24.8332 14.4509 24.5701Z" fill="#0033AD"/>
<path id="Cardano (ADA)_21" d="M20.8506 15.3332C20.3102 16.1651 20.5378 17.2744 21.3697 17.8148C22.2017 18.3552 23.311 18.1277 23.8514 17.2957C24.3918 16.4638 24.1643 15.3545 23.3323 14.8141C23.0408 14.6221 22.6994 14.5225 22.351 14.5225C21.7466 14.5225 21.1848 14.8283 20.8506 15.3332Z" fill="#0033AD"/>
<path id="Cardano (ADA)_22" d="M23.9723 22.8422C23.5243 21.9533 22.4435 21.5978 21.5618 22.0458C20.6729 22.4937 20.3174 23.5746 20.7653 24.4563C21.2133 25.3452 22.2942 25.7007 23.1759 25.2527C24.0576 24.8119 24.4203 23.7452 23.9794 22.8564C23.9794 22.8493 23.9794 22.8493 23.9723 22.8422Z" fill="#0033AD"/>
<path id="Cardano (ADA)_23" d="M27.1082 22.7142C26.6175 22.3942 25.9633 22.5293 25.6505 23.0199C25.3305 23.5106 25.4656 24.1648 25.9562 24.4776C26.4469 24.7976 27.1011 24.6625 27.4139 24.1719C27.7339 23.6883 27.5988 23.0341 27.1082 22.7142Z" fill="#0033AD"/>
<path id="Cardano (ADA)_24" d="M30.5498 20.0192C30.5782 19.5214 30.2013 19.1019 29.7036 19.0734C29.2058 19.045 28.7863 19.4219 28.7579 19.9196C28.7294 20.4174 29.1063 20.8369 29.604 20.8654C30.0947 20.8938 30.5213 20.5098 30.5498 20.0192Z" fill="#0033AD"/>
<path id="Cardano (ADA)_25" d="M33.0314 19.3792C32.7115 19.3579 32.4341 19.6068 32.4199 19.9267C32.4057 20.2467 32.6475 20.524 32.9674 20.5383C33.2874 20.5596 33.5576 20.3107 33.579 19.9907C33.5932 19.6707 33.3514 19.4005 33.0314 19.3792Z" fill="#0033AD"/>
<path id="Cardano (ADA)_26" d="M30.692 25.1389C30.3507 24.9185 29.8956 25.0109 29.668 25.3523C29.4476 25.6936 29.54 26.1487 29.8813 26.3762C30.2227 26.5967 30.6778 26.5042 30.9053 26.1629C31.1328 25.8216 31.0333 25.3594 30.692 25.1389Z" fill="#0033AD"/>
<path id="Cardano (ADA)_27" d="M14.2092 30.5574C13.939 30.3796 13.5834 30.4578 13.4057 30.7209C13.2279 30.9911 13.3061 31.3467 13.5692 31.5244C13.8394 31.7022 14.195 31.624 14.3727 31.3609C14.5576 31.0978 14.4794 30.7351 14.2092 30.5574Z" fill="#0033AD"/>
<path id="Cardano (ADA)_28" d="M26.3828 30.5005C26.0984 30.6427 25.9846 30.9982 26.1268 31.2827C26.2691 31.5671 26.6246 31.6809 26.909 31.5387C27.1935 31.3964 27.3072 31.048 27.165 30.7636C27.0228 30.472 26.6744 30.3512 26.3828 30.5005C26.3899 30.5005 26.3828 30.5005 26.3828 30.5005Z" fill="#0033AD"/>
<path id="Cardano (ADA)_29" d="M19.6418 24.6412C20.1822 23.8092 19.9547 22.6999 19.1227 22.1524C18.2907 21.612 17.1815 21.8395 16.6339 22.6715C16.0864 23.5035 16.3211 24.6127 17.153 25.1603C17.4446 25.3523 17.7859 25.4518 18.1343 25.4518C18.7458 25.4589 19.3076 25.1532 19.6418 24.6412Z" fill="#0033AD"/>
<path id="Cardano (ADA)_30" d="M16.0509 27.3931C15.6384 27.1228 15.0767 27.2366 14.8065 27.649C14.5363 28.0615 14.65 28.6232 15.0625 28.8934C15.4749 29.1636 16.0366 29.0499 16.3069 28.6374C16.5842 28.225 16.4704 27.6633 16.0509 27.3931Z" fill="#0033AD"/>
<path id="Cardano (ADA)_31" d="M20.2391 30.8276C19.8338 30.8062 19.4854 31.1191 19.457 31.5244C19.4285 31.9297 19.7485 32.2782 20.1538 32.3066C20.5591 32.3279 20.9076 32.0222 20.936 31.6169C20.9573 31.2044 20.6445 30.856 20.2391 30.8276Z" fill="#0033AD"/>
<path id="Cardano (ADA)_32" d="M20.2462 26.1842C19.6631 26.1487 19.1654 26.5967 19.1369 27.1797C19.1014 27.7628 19.5494 28.2606 20.1324 28.289C20.7155 28.3175 21.2133 27.8766 21.2417 27.2935C21.2773 26.7175 20.8293 26.2127 20.2462 26.1842Z" fill="#0033AD"/>
<path id="Cardano (ADA)_33" d="M24.5625 27.322C24.1216 27.5495 23.9439 28.0899 24.1714 28.5308C24.399 28.9717 24.9394 29.1494 25.3803 28.9219C25.8211 28.7015 25.9989 28.161 25.7785 27.7202C25.5509 27.2793 25.0105 27.0944 24.5625 27.322Z" fill="#0033AD"/>
</g>
</g>
</svg>
