<svg width="18" height="19" viewBox="0 0 18 19" fill="none" xmlns="http://www.w3.org/2000/svg">
<g id="chart">
<path id="Subtract" fill-rule="evenodd" clip-rule="evenodd" d="M4.83335 0.541626C2.18699 0.541626 0.041687 2.68693 0.041687 5.33329V13.6666C0.041687 16.313 2.18699 18.4583 4.83335 18.4583H13.1667C15.8131 18.4583 17.9584 16.313 17.9584 13.6666V5.33329C17.9584 2.68693 15.8131 0.541626 13.1667 0.541626H4.83335ZM12.25 7.7083C11.7898 7.7083 11.4167 8.08139 11.4167 8.54163V14H14.575V8.54163C14.575 8.08139 14.2019 7.7083 13.7417 7.7083H12.25ZM3.43336 10.4583C3.43336 9.99805 3.80646 9.62495 4.26669 9.62495H5.75836C6.2186 9.62495 6.59169 9.99805 6.59169 10.4583V14.0083H3.43336V10.4583ZM8.36772 4.99994H9.6344C10.1594 4.99994 10.5761 5.42495 10.5761 5.94995V14H7.41773V5.94995C7.41773 5.42495 7.84272 4.99994 8.36772 4.99994Z" fill="black"/>
</g>
</svg>
