<svg width="211" height="40" viewBox="0 0 211 40" fill="none" xmlns="http://www.w3.org/2000/svg">
<g id="Crypto.com">
<g id="Crypto.com_2">
<path id="Element" d="M24.8519 32.1875H22.3608L19.3786 29.4792V28.0903L22.4661 25.1736V20.5556L26.5009 17.9514L31.097 21.3889L24.8519 32.1875ZM14.5368 24.8958L14.9929 20.5556L13.4843 16.6667H22.3959L20.9223 20.5556L21.3433 24.8958H17.905H14.5368ZM16.5718 29.4792L13.5895 32.2222H11.0634L4.78314 21.3889L9.41439 17.9861L13.4843 20.5556V25.1736L16.5718 28.0903V29.4792ZM11.0283 8.64584H24.8168L26.4658 15.5903H9.41439L11.0283 8.64584ZM17.9401 0L0.432587 10V30L17.9401 40L35.4476 30V10L17.9401 0Z" fill="white"/>
<g id="Element_2">
<path d="M22.3609 32.1874H24.8519L31.0971 21.3888L26.5009 17.9513L22.4662 20.5555V25.1735L19.3787 28.0902V29.4791L22.3609 32.1874Z" fill="#03316C"/>
<path d="M14.993 20.5555L14.5369 24.8957H21.3434L20.9224 20.5555L22.396 16.6666H13.4844L14.993 20.5555Z" fill="#03316C"/>
<path d="M13.5896 32.2221L16.5718 29.4791V28.0902L13.4844 25.1735V20.5555L9.41447 17.986L4.78323 21.3888L11.0635 32.2221H13.5896Z" fill="#03316C"/>
<path d="M24.8169 8.64575H11.0284L9.41447 15.5902H26.4659L24.8169 8.64575Z" fill="#03316C"/>
</g>
</g>
<g id="Crypto.com_3">
<path d="M118.845 16.5277V24.0971C118.845 25.4513 119.547 26.0069 120.775 26.0069H122.178V29.1666H119.722C117.126 29.1666 115.266 28.0207 115.266 24.6527V16.5277H113.302V13.5069H115.266V9.27075H118.845V13.5069H122.178V16.5277H118.845Z" fill="white"/>
<path d="M92.426 13.1596L84.5318 33.5763H80.918L82.6372 29.2708L75.8658 13.1596H79.6901L84.2862 25.0694L88.7069 13.1596H92.426Z" fill="white"/>
<path d="M47.0608 21.2846C47.0608 25.6944 50.4641 29.2708 55.0953 29.2708C58.1126 29.2708 59.902 28.0555 61.4457 26.4235L59.3055 24.3055C58.1828 25.4166 56.9548 26.2152 55.2707 26.2152C52.5341 26.2152 50.6044 23.993 50.6044 21.2152C50.6044 18.5069 52.499 16.2846 55.0953 16.2846C56.8847 16.2846 58.0425 17.0485 59.1301 18.1944L61.3405 15.8332C59.902 14.2707 58.0776 13.1944 55.1304 13.1944C50.4992 13.1944 47.0608 16.8749 47.0608 21.2846Z" fill="white"/>
<path d="M64.6385 29.2708H68.2172V23.0902C68.2172 18.993 70.3925 16.9791 73.5151 16.9791H73.7256V13.2291C70.9889 13.0902 69.1996 14.6874 68.2172 16.9791V13.2291H64.6385V29.2708Z" fill="white"/>
<path fill-rule="evenodd" clip-rule="evenodd" d="M98.4957 26.5277C99.5833 27.9513 101.197 29.236 103.758 29.236C107.478 29.236 111.021 26.3194 111.021 21.1805C111.021 16.0416 107.442 13.1596 103.758 13.1596C101.267 13.1596 99.6535 14.4444 98.4957 16.0416V13.1596H94.917V33.5763H98.4957V26.5277ZM98.4255 21.2152C98.4255 18.1944 100.531 16.2499 102.952 16.2499C105.372 16.2499 107.407 18.1596 107.407 21.2152C107.407 24.2707 105.407 26.1805 102.952 26.1805C100.566 26.1805 98.4255 24.236 98.4255 21.2152Z" fill="white"/>
<path fill-rule="evenodd" clip-rule="evenodd" d="M125.196 21.2846C125.196 25.6944 128.704 29.2708 133.441 29.2708C138.282 29.2708 141.791 25.5902 141.791 21.2152C141.791 16.7707 138.282 13.1944 133.511 13.1944C128.739 13.1944 125.196 16.8402 125.196 21.2846ZM128.739 21.1805C128.739 18.4721 130.564 16.2499 133.441 16.2499C136.247 16.2499 138.247 18.5069 138.177 21.2499C138.177 23.9583 136.353 26.1805 133.476 26.1805C130.704 26.1805 128.739 23.9235 128.739 21.1805Z" fill="white"/>
<path fill-rule="evenodd" clip-rule="evenodd" d="M175.929 29.2708C171.192 29.2708 167.684 25.6944 167.684 21.2846C167.684 16.8402 171.227 13.1944 175.999 13.1944C180.77 13.1944 184.279 16.7707 184.279 21.2152C184.279 25.5902 180.735 29.2708 175.929 29.2708ZM175.929 16.2499C173.052 16.2499 171.227 18.4721 171.227 21.1805C171.227 23.9235 173.192 26.1805 175.964 26.1805C178.841 26.1805 180.665 23.9583 180.665 21.2499C180.7 18.5069 178.735 16.2499 175.929 16.2499Z" fill="white"/>
<path d="M210.944 19.0624C210.944 15.2777 208.874 13.1596 205.47 13.1596C203.12 13.1596 201.471 14.236 200.172 15.9027C199.33 14.2708 197.787 13.1944 195.541 13.1944C193.155 13.1944 191.822 14.4791 190.805 15.8332V13.1944H187.226V29.2708H190.805V20.243C190.805 17.8471 192.173 16.3888 194.138 16.3888C196.103 16.3888 197.295 17.743 197.295 20.1388V29.2708H200.874V20.2083C200.874 17.743 202.278 16.3888 204.207 16.3888C206.207 16.3888 207.365 17.6735 207.365 20.1388V29.236H210.944V19.0624Z" fill="white"/>
<path d="M144.913 25.8333L146.457 24.9652H146.668L148.246 25.8333L148.352 26.0069V27.8124L148.246 27.986L146.668 28.8541H146.457L144.913 27.986L144.808 27.8124V26.0069L144.913 25.8333Z" fill="white"/>
<path d="M151.299 21.0763C151.229 25.486 154.562 29.1319 159.193 29.236C162.245 29.3055 164.07 28.1249 165.649 26.493L163.544 24.3402C162.421 25.4513 161.158 26.2152 159.474 26.1805C156.737 26.1458 154.842 23.8888 154.913 21.111C154.948 18.368 156.877 16.2152 159.474 16.2499C161.263 16.2847 162.421 17.118 163.473 18.2638L165.719 15.9374C164.315 14.3402 162.491 13.2291 159.544 13.1597C154.878 13.0555 151.369 16.6666 151.299 21.0763Z" fill="white"/>
</g>
</g>
</svg>
