<svg width="41" height="40" viewBox="0 0 41 40" fill="none" xmlns="http://www.w3.org/2000/svg">
<g id="Dogecoin (DOGE)">
<circle id="Dogecoin (DOGE)_2" cx="20.2462" cy="20" r="20" fill="#988430"/>
<circle id="Dogecoin (DOGE)_3" cx="20.2462" cy="20" r="19.3594" fill="#7A6A2A"/>
<circle id="Dogecoin (DOGE)_4" cx="20.2462" cy="20" r="18.9515" fill="#BA9F33"/>
<path id="Dogecoin (DOGE)_5" fill-rule="evenodd" clip-rule="evenodd" d="M8.99054 17.8641C8.87726 17.7606 8.75758 17.657 8.6475 17.5535C8.53742 17.45 8.42436 17.3464 8.31108 17.2429L7.97444 16.9229C7.9194 16.8678 7.86116 16.8194 7.80612 16.7642C7.75108 16.7157 7.68644 16.6607 7.6314 16.6121C7.18468 16.1882 6.7354 15.7643 6.29486 15.3402C6.75118 15.7577 7.1979 16.1722 7.65422 16.5958L7.81273 16.7546C7.86777 16.8094 7.92601 16.858 7.98105 16.9131L8.31748 17.2237C8.43076 17.3272 8.54084 17.4308 8.65412 17.5437C8.7674 17.6565 8.87748 17.7604 8.99076 17.8637L8.99054 17.8641ZM3.0618 17.8001C3.0618 17.8001 4.68633 17.9682 5.47929 18.0815C6.2138 18.1852 8.51161 18.5378 8.51161 18.5378L3.0618 17.8001ZM3.0618 17.8001C3.51812 17.8389 3.97444 17.8874 4.43076 17.936C4.66372 17.9586 4.88708 17.9844 5.11044 18.007L5.45326 18.0461C5.56654 18.0621 5.67662 18.0783 5.7899 18.0945L7.14926 18.3113L7.82873 18.4245C8.05209 18.4634 8.27545 18.5056 8.50841 18.5444C8.28505 18.5218 8.05209 18.4894 7.82873 18.457L7.14926 18.3599L5.7899 18.1594C5.67662 18.1432 5.56654 18.1203 5.45326 18.1043L5.11022 18.0649C4.88686 18.0422 4.6539 18.0098 4.43054 17.9838C3.97422 17.929 3.5179 17.8705 3.06158 17.7995L3.0618 17.8001ZM8.34991 18.9611C8.34991 18.9611 6.61529 19.4014 6.02948 19.5697C5.45348 19.7282 3.70905 20.259 3.70905 20.259L8.34969 18.9613L8.34991 18.9611Z" fill="#CFB66C"/>
<path id="Dogecoin (DOGE)_6" fill-rule="evenodd" clip-rule="evenodd" d="M8.34967 18.9611C7.96461 19.0743 7.58167 19.1844 7.19106 19.2881L6.03245 19.5987C5.64738 19.712 5.26445 19.8221 4.88045 19.9354L4.30445 20.0939C4.11351 20.1489 3.91938 20.1973 3.72205 20.2526C3.91277 20.1886 4.10711 20.1231 4.29805 20.068L4.87405 19.8837C5.25911 19.7638 5.64205 19.6506 6.02605 19.5309C6.41751 19.4338 6.80279 19.3301 7.19426 19.2363C7.56631 19.1424 7.95799 19.0487 8.34967 18.9613V18.9611ZM3.95194 21.327C4.14266 21.2557 6.3434 20.23 6.85476 19.9904C7.11076 19.8705 7.85487 19.6064 7.85487 19.6064L3.95194 21.327Z" fill="#CFB66C"/>
<path id="Dogecoin (DOGE)_7" fill-rule="evenodd" clip-rule="evenodd" d="M3.95181 21.3269C4.11992 21.2629 4.27864 21.1846 4.44035 21.1102L4.91928 20.8868L5.88056 20.4241C6.20056 20.272 6.5116 20.1041 6.84163 19.9612C7.00995 19.8901 7.17827 19.8319 7.34637 19.7768L7.60237 19.696C7.68963 19.6734 7.77069 19.6474 7.85837 19.6247C7.53837 19.7768 7.20152 19.9063 6.88109 20.055C6.56109 20.2138 6.23384 20.3432 5.9036 20.4855L4.92632 20.9158C4.59821 21.0487 4.27821 21.191 3.9516 21.3269H3.95181ZM4.16515 22.2229C4.16515 22.2229 6.15853 21.0547 6.84461 20.6792C7.20387 20.4787 8.36568 19.9025 8.36568 19.9025L4.16515 22.2229Z" fill="#CFB66C"/>
<path id="Dogecoin (DOGE)_8" fill-rule="evenodd" clip-rule="evenodd" d="M4.16534 22.2234C4.50177 22.0162 4.84481 21.8059 5.18785 21.5923L5.69985 21.2815C5.87457 21.178 6.04289 21.081 6.22102 20.9775C6.39574 20.8738 6.56406 20.7703 6.74198 20.6733C6.82668 20.621 6.91543 20.5755 7.00737 20.5374L7.27916 20.4015C7.63841 20.2268 7.99766 20.0486 8.37633 19.8965C8.03329 20.1135 7.68044 20.298 7.3278 20.4887C7.15308 20.5858 6.97494 20.6733 6.80022 20.7703C6.6255 20.8674 6.45718 20.9711 6.27905 21.065C6.10433 21.1684 5.93601 21.2655 5.75809 21.3594L5.23052 21.6474L4.16577 22.2234H4.16534ZM8.34967 20.1585C8.34967 20.1585 7.1102 21.11 6.70892 21.4142C6.30764 21.7184 5.12641 22.5728 5.12641 22.5728L8.34967 20.1585Z" fill="#CFB66C"/>
<path id="Dogecoin (DOGE)_9" fill-rule="evenodd" clip-rule="evenodd" d="M15.4631 27.8317L14.8289 26.631L15.1977 25.1294L17.8288 24.1133L16.709 21.8157L17.2624 19.4953L18.3013 17.4174L21.5117 16.9126L23.8708 14.6635L28.9648 15.0485L29.9646 20.4951L28.0391 27.3527L26.9421 30.903L22.4954 31.0714L20.4308 29.641L18.0133 28.631L15.4631 27.8317Z" fill="#E2CC85"/>
<path id="Dogecoin (DOGE)_10" fill-rule="evenodd" clip-rule="evenodd" d="M23.2625 27.7929C23.2625 27.7929 22.6475 28.0745 21.5985 28.0096C21.295 27.6019 19.1689 27.411 19.1689 27.411C19.1689 27.411 18.9035 27.3301 18.4342 27.5243C17.9618 27.7163 17.5151 27.6926 17.0976 27.7961C16.6801 27.8995 16.2656 27.356 15.9456 27.2427C15.6256 27.123 15.2013 26.835 15.2013 26.835L14.3053 26.7475L12.5061 25.987L9.64761 23.1392L8.87086 24.3552L8.63129 25.8601L9.4955 27.6433L11.8223 29.763L16.3595 30.915L19.0488 30.1227L22.4177 28.6987L23.2625 27.7926V27.7929Z" fill="#F1D789"/>
<path id="Dogecoin (DOGE)_11" fill-rule="evenodd" clip-rule="evenodd" d="M7.14267 17.7282L7.71867 15.984L8.40496 14.8576L10.6151 14.6731L9.95163 16.6084L8.10395 19.8965L8.87088 22.8318L7.51173 23.5113L7.09403 22.8706L6.7576 21.4014L6.73499 19.7508L7.14267 17.7282Z" fill="#F4ECB4"/>
<path id="Dogecoin (DOGE)_12" fill-rule="evenodd" clip-rule="evenodd" d="M9.62159 27.6732L9.1977 27.081C9.1977 27.081 9.08442 26.7994 9.14927 26.5534C9.21327 26.3042 9.2041 26.288 9.17188 26.1941C9.13967 26.1003 8.86767 25.7766 8.88388 25.4982C8.89988 25.2166 8.86127 25.1228 9.0682 24.8996C9.28495 24.6829 9.22031 24.3074 9.22031 24.3074L9.50191 24.4821L9.56591 24.3851C9.56591 24.3851 9.66938 24.4659 9.66938 24.5922C9.69199 24.4175 9.59812 23.6083 9.81167 23.424C10.0252 23.2397 10.4039 24.288 10.4039 24.288L10.1709 22.7669L9.5721 21.2073L8.50735 19.7833L8.44335 18.2135V18.0777C8.44335 18.0777 7.9546 18.8286 7.81871 19.4217C7.72164 19.8293 7.9546 20.3245 7.90618 20.9103C7.86714 21.4929 7.81871 21.4475 7.961 21.6783C8.1033 21.9091 8.44975 22.3838 8.31386 22.7268C8.19418 23.0214 7.78628 22.8143 7.78628 22.8143C7.78628 22.8143 7.70543 23.0537 7.59535 23.1411C7.55652 22.9988 7.5145 22.9082 7.43684 22.8211C7.43023 22.8762 7.41423 22.9506 7.41423 22.9506C7.41423 22.9506 7.34298 22.7273 7.27172 22.4457C7.17487 22.0704 7.07119 21.5753 6.97732 21.3099C6.9385 21.462 6.84143 21.9247 6.84143 21.9247L6.89647 22.6368L7.16186 23.6141L7.41786 24.2541L7.66703 25.0372L7.88356 25.5633L8.05828 25.9646L8.21039 26.8676L8.9449 27.6442L9.33658 27.8191L9.62116 27.6734L9.62159 27.6732Z" fill="#F3E19D"/>
<path id="Dogecoin (DOGE)_13" fill-rule="evenodd" clip-rule="evenodd" d="M7.52771 16.3042C7.52771 16.3042 7.00014 17.2002 6.84825 18.1035C6.69635 19.0067 6.56025 19.9612 6.65625 21.1908C6.75331 22.4305 6.93785 23.1908 7.08675 23.7346C7.34275 24.6376 8.00579 25.8933 8.00579 25.8933L8.0284 25.8447C7.91696 25.6334 7.82801 25.4111 7.76302 25.1812C7.67555 24.8382 7.64313 24.4305 7.56227 24.246C7.49102 24.0616 7.37134 23.9029 7.3131 23.6764C7.25806 23.4596 7.2491 23.1166 7.08014 22.861C7.00888 22.7573 6.92142 22.4855 6.89561 22.2138C6.86318 21.8059 6.91182 21.3495 6.87299 20.9743C6.80174 20.3496 6.75331 19.9258 6.81795 19.5987C6.88259 19.2717 7.21944 18.3432 7.42659 17.6053C7.56248 17.1328 7.48142 16.7347 7.73059 16.3236C7.97976 15.9159 8.13208 15.5567 8.18691 15.3075C8.25091 15.081 7.52686 16.3042 7.52686 16.3042H7.52771Z" fill="#F2E8B0"/>
<path id="Dogecoin (DOGE)_14" fill-rule="evenodd" clip-rule="evenodd" d="M10.0294 15.945C10.0294 15.945 9.75766 16.026 9.62817 16.1683C9.49867 16.3042 9.44363 16.4175 9.26891 16.6473C9.09419 16.877 9.08438 17.0647 8.94187 17.3527C8.79958 17.6343 8.48555 18.0582 8.44673 18.2103C8.4079 18.3625 8.34326 19.0743 8.26241 19.411C8.19115 19.7476 8.34326 20.1619 8.34326 20.1619L8.52758 20.1229C8.52758 20.1229 8.52758 20.3625 8.71211 20.5244C8.89643 20.6829 8.92886 19.987 8.92886 19.987L9.61814 17.6602L10.6569 16.9547L10.7701 16.3851L10.029 15.945H10.0294Z" fill="#F5EEC0"/>
<path id="Dogecoin (DOGE)_15" fill-rule="evenodd" clip-rule="evenodd" d="M10.5342 17.0001C10.5342 17.0001 10.0455 17.0323 9.80613 17.2073C9.70906 17.2783 9.67024 17.3365 9.56677 17.424C9.37584 17.5825 9.18149 17.7282 9.08784 17.936C8.98416 18.1429 8.87088 18.457 8.79322 19.0492C8.7608 19.2983 8.7608 19.5281 8.73818 19.7289C8.70576 20.0006 8.65733 20.2174 8.68314 20.3689C8.71557 20.6795 9.036 20.8414 9.06714 21.194L9.73061 20.8576L10.3553 18.3947L11.6822 17.5627L10.9313 16.7213L10.5334 16.9986L10.5342 17.0001Z" fill="#E6DB9D"/>
<path id="Dogecoin (DOGE)_16" fill-rule="evenodd" clip-rule="evenodd" d="M7.03403 33.5849C7.0368 33.5605 7.03957 33.5362 7.04235 33.5113C7.1392 32.6793 7.15563 32.0486 7.22667 31.6538C7.33013 31.094 7.40139 30.8858 7.38517 30.6763C7.36256 30.3398 7.33675 30.0939 7.36917 29.8349C7.4176 29.4918 7.75424 29.0842 7.74464 28.8026C7.73803 28.5792 7.62475 28.4337 7.52768 28.2978C7.43061 28.1619 7.35296 28.0486 7.35296 28.0486C7.35296 28.0486 8.01643 27.5923 8.01003 25.754C8.02358 25.7578 8.03661 25.7633 8.04885 25.7702L8.37568 26.6989L8.59904 26.9707L9.45664 28.5694L10.5602 29.6407L12.1911 30.7377L13.2139 31.8507L13.3173 34.8183L11.9808 36.553L11.7619 36.9493C10.023 36.0763 8.42837 34.9416 7.03381 33.5846L7.03403 33.5849Z" fill="#E5CB7A"/>
<path id="Dogecoin (DOGE)_17" fill-rule="evenodd" clip-rule="evenodd" d="M11.1168 36.4239C11.1168 36.4239 11.1394 36.055 11.4436 35.8155C11.4923 35.8963 11.5245 35.9742 11.5149 36.0322C11.5699 35.9354 11.955 35.3139 12.8256 35.152C13.6962 34.9935 13.9066 34.3592 13.9066 34.3592L15.7543 32.6797L17.8675 30.7347L20.4371 29.8317L21.638 29.5371C21.638 29.5371 21.6606 29.6245 21.6154 29.8187C21.8385 29.8027 22.3337 29.6894 22.8482 29.508C23.0554 29.4272 23.2497 29.3948 23.3532 29.5016C23.5053 29.6439 23.5279 29.9806 23.5375 30.1811C23.7867 30.1261 24.0747 29.8867 24.3055 29.9093C24.6746 29.9482 25.0014 30.3819 25.3769 30.3819C25.872 30.3819 26.0952 30.0776 26.4416 29.8381C26.6488 29.6958 26.9464 29.5181 27.1147 29.398C27.516 29.1034 31.7619 27.8056 31.7619 27.8056L33.2506 27.9027L33.4902 29.5014L33.3622 33.6806C33.3464 33.6958 33.3306 33.7116 33.3146 33.7267L26.5459 37.2619L17.1635 38.7002C15.0618 38.3568 13.0337 37.6592 11.1655 36.637L11.1175 36.4237L11.1168 36.4239Z" fill="#D8C173"/>
<path id="Dogecoin (DOGE)_18" fill-rule="evenodd" clip-rule="evenodd" d="M7.60303 34.1165C7.73636 33.8376 7.85625 33.6045 7.87737 33.5211C7.89401 33.6892 7.92452 34.058 7.98596 34.4501C7.85697 34.3405 7.72932 34.2292 7.60303 34.1163V34.1165Z" fill="#F1D789"/>
<path id="Dogecoin (DOGE)_19" fill-rule="evenodd" clip-rule="evenodd" d="M14.4568 38.0495L15.6702 37.712L15.7737 37.7444C15.7737 37.7444 15.8287 37.7769 15.8287 37.8867C15.9808 37.7995 16.1103 37.8155 16.2042 37.7574C16.2526 37.8609 16.301 38.204 16.5148 38.246C16.7379 38.2946 16.9775 38.1489 17.2203 37.9646C17.4596 37.7737 17.7323 37.5341 17.9386 37.437C18.0143 37.5762 18.0813 37.7199 18.1393 37.8673C18.4111 37.6506 18.8836 36.7704 19.5567 36.7864C19.7512 36.3266 20.0762 35.934 20.4915 35.657C21.1162 35.2331 21.5076 35.2006 21.9964 35.2395C22.1905 34.9873 22.4297 34.7733 22.7019 34.6084C22.7827 34.6409 23.0061 34.7768 23.2845 34.6473C23.5661 34.518 23.8831 34.0162 24.3006 33.9516C24.5256 33.9206 24.7543 33.9686 24.9478 34.0875C24.9478 34.0875 26.1638 32.8802 27.0029 32.4789C26.9705 32.3819 26.9058 32.0162 27.8895 31.207C27.9445 31.2557 27.9057 31.3916 27.9445 31.399C27.9605 31.399 28.2005 31.2956 28.5043 31.0624C28.8798 30.781 29.3295 30.4864 29.6013 30.4056C30.1133 30.2534 30.6564 30.5641 30.6564 30.5641C30.7026 30.5317 30.7541 30.5076 30.8085 30.4928C30.9378 30.4702 31.0317 30.454 31.1029 30.4288C31.0965 30.5971 31.1904 30.8851 31.1029 31.1343C31.2043 31.1913 31.3116 31.2369 31.4229 31.2702C31.3681 31.3899 31.2482 31.6941 31.0477 31.8398C31.2158 31.9206 31.2384 32.0145 31.478 32.0958C31.3809 32.2317 31.222 32.4649 31.1512 32.6078C31.0799 32.7599 30.8241 33.3909 30.7108 33.6303C30.5912 33.8699 30.4294 34.31 30.3516 34.3983C30.2737 34.4866 29.9923 34.861 29.7756 35.0453C29.9676 34.9741 30.7531 34.7347 31.0863 34.6441C30.9871 34.7896 30.4843 35.5356 30.0009 36.253C25.3185 39.0595 19.6549 39.7151 14.4553 38.0527L14.4568 38.0495Z" fill="#E0CD81"/>
<path id="Dogecoin (DOGE)_20" fill-rule="evenodd" clip-rule="evenodd" d="M10.6142 16.9126C10.6142 16.9126 10.3328 16.9126 10.2778 16.9515C10.2227 16.9903 10.5594 17.0714 10.6628 17.1102C10.7663 17.149 10.9897 17.3269 11.0479 17.4694C11.1029 17.6053 13.0705 18.3981 13.0705 18.3981L14.4621 18.3268L14.9419 17.664L14.0292 16.8646L14.6692 14.9779L13.8214 15.1138L11.7826 16.3298L10.7599 16.7215L10.6142 16.9126Z" fill="#DFC57C"/>
<path id="Dogecoin (DOGE)_21" fill-rule="evenodd" clip-rule="evenodd" d="M13.6702 17.5373C13.7112 17.6036 13.7843 17.643 13.8622 17.6407C14.1502 17.6407 14.4154 17.712 14.5255 17.8575C14.71 18.0907 15.2214 18.835 15.2214 18.835L16.4446 19.2751L16.5236 17.8347L15.187 16.906L13.666 17.4658V17.5371H13.6694L13.6702 17.5373Z" fill="#E5CC7C"/>
<path id="Dogecoin (DOGE)_22" fill-rule="evenodd" clip-rule="evenodd" d="M13.4302 18.0713C13.4302 18.0713 13.6534 18.0875 13.935 17.9838C14.2166 17.8801 14.6793 17.657 14.88 17.7444C15.1614 17.8641 15.1032 18.2396 15.4076 18.5764C15.5919 18.7836 15.9286 18.7772 16.1195 19.0005C16.3104 19.2239 16.9673 19.1202 16.9673 19.1202L17.2165 20.4642L16.2166 21.7459L15.8895 23.338H14.5374L13.3022 22.848L12.6938 21.376L12.998 19.8874L13.4302 18.0713Z" fill="#D2C281"/>
<path id="Dogecoin (DOGE)_23" fill-rule="evenodd" clip-rule="evenodd" d="M16.0457 18.1359C16.0792 18.1462 16.114 18.1517 16.1491 18.1521C16.1103 18.1845 16.0292 18.2556 16.0617 18.4401C16.0941 18.6246 16.1976 18.8576 16.1103 18.9999C16.18 19.0761 16.2319 19.1667 16.2624 19.2653C16.3175 19.424 16.3337 19.5695 16.6927 19.5923C16.6409 19.6242 16.5931 19.6623 16.5504 19.7056C16.5504 19.7056 16.7996 19.9223 16.9259 20.1229C17.0552 20.1173 17.3982 20.0107 17.3982 20.0107L17.4695 20.0593L17.6216 19.9953C17.6216 19.9953 17.4793 19.9403 17.5827 19.594C17.6798 19.2898 17.7673 19.306 17.7747 19.2834C17.7822 19.2608 17.846 18.9404 17.846 18.8109C17.8944 18.6428 17.9332 18.1314 17.9332 18.1314L17.8298 17.002L17.2474 16.6492L16.7738 16.192L16.3271 17.0334L16.0329 17.3267L16.0103 18.0548L16.0457 18.1359Z" fill="#E2C270"/>
<path id="Dogecoin (DOGE)_24" fill-rule="evenodd" clip-rule="evenodd" d="M17.4468 17.191C17.4468 17.191 17.5503 17.4854 17.5893 17.712C17.6031 17.668 17.6107 17.6222 17.612 17.5761C17.612 17.5761 17.6928 18.0228 17.7088 18.2074C17.7412 18.2007 17.7728 18.1911 17.7801 18.2234C17.7873 18.2556 17.8611 18.615 17.8441 18.8156C17.9788 18.5932 18.1653 18.4068 18.3876 18.272C18.5171 18.1909 18.6692 18.1037 18.828 18.0971C19.0771 18.0907 19.2583 18.2558 19.5561 18.2558C20.2744 18.2558 20.925 17.7282 21.404 17.5665C21.7566 17.4466 22.0608 17.3594 22.2744 17.165C22.378 17.0778 22.5626 16.8836 22.7307 16.5954C22.954 16.2114 23.187 15.8771 23.4202 15.8351C23.3147 15.8545 23.2073 15.8621 23.1002 15.8577C23.1002 15.8577 23.1714 15.7864 23.2922 15.6894C23.4129 15.5923 23.5576 15.4726 23.7645 15.4726C24.1336 15.4726 24.3179 15.5275 24.525 15.5275C24.7322 15.5211 24.8519 15.4726 24.8519 15.4726C24.8519 15.4726 25.0688 15.6247 25.5573 15.6247C26.0461 15.6311 26.3729 15.6732 26.6287 15.696C26.8845 15.7188 27.7419 15.6247 27.9879 15.632C28.1482 15.6382 28.3057 15.6767 28.4508 15.7453L27.6578 13.4413L24.8094 10.9517L23.1136 12.1523L20.505 14.7607L17.9808 15.696L17.4532 16.2882V17.191H17.4468Z" fill="#CCB360"/>
<path id="Dogecoin (DOGE)_25" fill-rule="evenodd" clip-rule="evenodd" d="M23.1105 15.8705C23.1105 15.8705 23.1817 15.7995 23.3012 15.7024C23.4206 15.6053 23.5668 15.4854 23.7737 15.4854C24.1426 15.4854 24.3271 15.5405 24.5342 15.5405C24.7414 15.5341 24.8611 15.4854 24.8611 15.4854C24.8611 15.4854 25.0782 15.6373 25.5666 15.6373C26.0553 15.6437 26.3821 15.6858 26.6379 15.7084C26.8937 15.731 27.7511 15.6373 27.9971 15.6444C28.1574 15.6504 28.3148 15.6889 28.4598 15.7577L28.1005 14.7187L27.6833 13.926L26.4922 12.6216C26.4922 12.6216 25.0629 11.7803 25.052 11.7739C25.0456 11.7675 24.5569 11.638 24.5569 11.638L23.2624 12.4211L22.0877 15.4601L22.0651 16.1L22.8254 16.4593C23.0164 16.1393 23.2269 15.8833 23.4243 15.8509C23.2461 15.8703 23.1102 15.8703 23.1102 15.8703L23.1105 15.8705Z" fill="#D5B457"/>
<path id="Dogecoin (DOGE)_26" fill-rule="evenodd" clip-rule="evenodd" d="M23.0942 16.0875C22.981 16.0939 22.8873 16.0712 22.8613 15.9904C22.7642 15.7186 22.6866 15.6798 22.6053 15.6798C22.524 15.6798 22.4143 15.8545 22.3493 15.8705C22.2842 15.8865 22.207 15.67 22.207 15.67L22.1357 15.6375C22.1357 15.6375 21.7182 15.9093 21.4238 16.2298C21.1294 16.5502 20.6471 17.094 20.4303 17.1908C20.2136 17.2877 19.4691 17.3203 19.2143 17.3754C18.9596 17.4304 18.6772 17.6149 18.6383 17.657C18.5995 17.699 18.7518 17.7442 18.7745 17.7862C18.7971 17.8251 18.5251 17.8088 18.5025 17.8502C18.4865 17.8827 18.5665 18.067 18.6061 18.1608C18.6756 18.1263 18.7518 18.1075 18.8293 18.1058C19.0785 18.0994 19.2598 18.2645 19.5574 18.2645C20.2759 18.2645 20.9263 17.737 21.4053 17.575C21.7581 17.4554 22.0623 17.3679 22.2759 17.1738C22.3794 17.0865 22.5639 16.8922 22.7322 16.6042C22.8551 16.4068 22.975 16.2223 23.0949 16.0864L23.0942 16.0875Z" fill="#D2B257"/>
<path id="Dogecoin (DOGE)_27" fill-rule="evenodd" clip-rule="evenodd" d="M12.7902 32.1037C12.7902 32.1037 12.7262 31.8641 12.1332 31.2461C11.9648 31.0714 11.8614 30.9261 11.7481 30.8222C11.4665 30.5566 11.3014 30.4855 11.1008 30.3334C10.6607 30.0066 10.1818 30.0066 9.81294 29.6053C9.44409 29.204 9.01422 28.4373 8.71555 27.6538C8.42115 26.8706 8.34009 26.6214 8.34009 26.5988C8.34009 26.5762 8.42115 26.4241 8.52462 26.4467C8.62809 26.4693 8.62809 26.6699 8.65411 26.7185C8.70566 26.7979 8.76413 26.8726 8.82883 26.9416C8.98094 27.1166 9.19769 27.3256 9.30777 27.6375C9.28515 27.3722 9.19449 27.0778 9.19449 27.0778C9.19449 27.0778 9.76409 27.437 10.2494 27.8123C10.7382 28.1877 10.9387 28.3172 11.0814 28.5566C11.2241 28.7959 11.5604 29.4272 11.7214 29.6117C11.8825 29.7963 14.0894 30.4919 14.0894 30.4919L15.1392 31.2747L15.6604 32.4171L15.2525 33.0571L14.4694 33.2254L13.1975 32.6558L12.7902 32.1035V32.1037Z" fill="#D2B159"/>
<path id="Dogecoin (DOGE)_28" fill-rule="evenodd" clip-rule="evenodd" d="M9.9646 28.1683C9.9646 28.1683 10.23 28.5922 10.8772 28.9935C11.4599 29.3463 12.3821 29.6668 13.2043 29.8577C13.6766 29.971 14.1491 30.0582 14.573 30.0648C15.7154 30.0808 16.5018 29.7542 17.4761 29.6474C18.0036 29.5923 18.6509 29.5503 19.324 29.3914C20.188 29.1842 20.6993 28.951 21.3952 28.6234C21.9 28.3904 22.3629 28.2157 22.7381 27.9923C23.2657 27.6817 23.6508 27.3355 24.0975 27.232C24.0425 27.3841 23.9842 27.6559 23.5441 27.9375C23.7771 27.9309 24.0975 27.9149 24.0975 27.9149C24.0975 27.9149 23.7869 28.0992 23.2399 28.5135C22.9033 28.7695 22.4568 29.2028 22.0004 29.4908C21.7058 29.6753 21.3854 29.8108 21.1751 29.9213C20.6631 30.2029 20.4565 30.3452 20.1201 30.6893C20.2398 30.6829 20.2496 30.6893 20.2496 30.6893C20.2496 30.6893 19.8255 30.7443 19.5215 30.906C19.4575 30.906 19.3466 30.8834 19.1524 30.9384C19.0003 30.9869 18.7996 31.0972 18.5927 31.1552C18.298 31.2427 18.2012 31.2038 18.2012 31.2038L18.2496 31.3009C18.2496 31.3009 17.8656 31.2943 17.7376 31.3073C17.7602 31.3137 17.7538 31.3235 17.7538 31.3235C17.7313 31.3273 17.7097 31.3349 17.6898 31.3461C17.6282 31.386 17.5605 31.4155 17.4893 31.4334C17.4505 31.4398 17.418 31.4398 17.3694 31.4496C17.3856 31.4884 17.5119 31.7056 17.5701 31.8336C17.5217 31.866 16.7934 32.4162 16.7934 32.4162C16.816 32.4518 16.8345 32.4898 16.8484 32.5295C16.8711 32.6005 16.8809 32.7042 16.9035 32.7526C16.9583 32.8497 16.9907 32.8659 16.9907 32.8659C16.9907 32.8659 16.9035 32.8821 16.7512 32.921C16.6219 32.9534 16.4632 33.0082 16.2392 33.0406C16.1704 33.0496 16.1013 33.055 16.032 33.0568C16.0644 33.1281 16.2067 33.3999 15.9445 33.7137C15.6824 34.0275 15.6015 34.0732 15.5207 34.2737C15.48 34.2429 15.4366 34.2158 15.3912 34.1926C15.3039 34.1538 15.184 34.0958 15.142 34.0179C15.1175 34.1217 15.085 34.2234 15.0449 34.3221C14.9641 34.5389 14.8444 34.7526 14.8218 34.9143C14.7343 34.8173 14.5726 34.6263 14.3492 34.6652C14.1259 34.704 13.948 35.0082 13.9091 35.0957C13.9091 35.0406 13.8703 34.9986 13.8607 35.0632C13.8541 35.1345 13.7312 35.8786 13.0451 36.4806C13.0387 36.3285 13.0387 35.9919 13.0225 35.882C12.9585 35.946 12.8802 36.0405 12.4141 36.2413C11.9578 36.4418 12.0301 36.6426 12.0301 36.6426C12.0301 36.6426 11.9913 36.3226 12.2372 35.9855C12.4864 35.6491 12.6385 35.4903 12.6385 35.4645C12.6345 35.4382 12.6233 35.4136 12.6061 35.3933C12.5737 35.3608 12.509 35.322 12.509 35.2962C12.5479 35.2802 12.9329 35.0957 12.9103 34.7136C12.8877 34.3708 12.7422 34.1926 12.6385 34.0666C12.6225 34.0503 12.7908 33.9307 12.768 33.8918C12.7518 33.8692 12.5449 33.7169 12.5188 33.6358C12.525 33.5875 12.5358 33.5398 12.5513 33.4935C12.5739 33.4223 12.5901 33.3736 12.5837 33.3252C12.5675 33.2444 12.48 33.021 12.4542 32.9984C12.4768 33.0048 12.6385 32.9984 12.6385 32.9984C12.6385 32.9984 12.5092 32.7912 12.4864 32.6942C12.4636 32.5971 12.4152 32.3413 12.3893 32.2929C12.4444 32.2993 12.5803 32.3089 12.5803 32.2929C12.5869 32.2443 12.4606 32.1634 12.5163 32.1009C12.5551 32.1073 12.6296 32.1397 12.7006 32.2304C12.6618 32.1267 12.5971 31.9262 12.461 31.8453C12.525 31.8227 12.7426 31.7643 12.9336 31.8775C13.1245 31.9908 13.1896 32.1493 13.1896 32.1493C13.1896 32.1493 13.3028 32.2368 13.4778 32.3663C13.6783 32.5248 13.9339 32.7503 14.3418 32.9099C14.4292 32.9585 14.6524 32.9585 14.8143 32.9261C14.8848 32.9093 14.9524 32.882 15.0148 32.8452C15.0374 32.8319 15.0613 32.8211 15.0861 32.8128C15.0513 32.743 15.0113 32.6759 14.9664 32.612C15.0215 32.612 15.0861 32.6187 15.0861 32.6187C15.0861 32.6187 15.1249 32.5312 14.9502 32.3627C14.989 32.3238 15.0377 32.2987 15.0377 32.2332C14.9826 32.2268 14.8856 32.1459 14.8629 32.1135C14.8952 32.0909 14.9438 32.0164 14.9988 31.9938C14.9502 31.955 14.8305 31.7931 14.7755 31.7771C14.8281 31.7575 14.8789 31.7337 14.9276 31.7058C14.9276 31.7058 14.6558 31.6346 14.5683 31.5763C14.4809 31.5123 14.3516 31.4016 14.2739 31.3692C14.1929 31.3367 14.0506 31.3207 13.9923 31.2559C14.0472 31.2721 14.1346 31.2559 14.1995 31.2559C14.2479 31.2559 14.2707 31.2623 14.2867 31.2623C14.2803 31.2397 14.2803 31.191 14.4066 31.175C14.4674 31.1659 14.5263 31.1473 14.5813 31.12C14.5813 31.12 14.4615 31.1136 14.3253 30.9841C14.1892 30.8546 14.0762 30.7511 13.9985 30.7349C13.9177 30.7187 13.7656 30.79 13.6717 30.7834C13.5422 30.7674 13.4872 30.7025 13.4872 30.7025C13.4872 30.7025 13.0569 30.7413 12.1022 30.1589C11.2768 29.654 10.9176 29.2075 10.9176 29.2075C10.8403 29.1794 10.7657 29.1447 10.6944 29.1038C10.3838 28.9421 9.95329 28.6054 9.96631 28.1651L9.9646 28.1683Z" fill="#C2A44D"/>
<path id="Dogecoin (DOGE)_29" fill-rule="evenodd" clip-rule="evenodd" d="M21.8708 8.74432C21.9456 8.76864 22.0122 8.81351 22.0628 8.87381C22.2149 9.04853 22.3119 9.37856 21.9657 9.73141C22.1016 9.77984 22.1577 9.79541 22.2763 9.77984C22.1566 9.92235 21.8848 10.2266 21.8686 10.4919C21.8524 10.7087 21.9883 10.7735 21.9883 10.7735C21.9883 10.7735 21.7812 11.0129 21.7716 11.4135C21.8694 11.3032 21.9764 11.2015 22.0916 11.1093C22.3311 10.9184 22.6612 10.7017 22.8845 10.5658C22.8815 10.6227 22.8892 10.6797 22.9071 10.7339C22.9071 10.7339 23.3244 10.3908 23.6751 10.5431C23.8336 10.6144 23.7624 10.8375 23.7624 10.8375C23.7624 10.8375 23.9793 10.7567 24.1315 10.9088C24.2836 11.0609 24.4986 11.4532 24.6089 11.6053C24.6573 11.6766 24.7836 11.8125 24.9129 12.0228C25.0895 12.3173 25.237 12.6283 25.3532 12.9515C25.3596 12.7831 25.4016 12.5212 25.8808 12.6861C26.3597 12.8544 26.9033 13.2073 27.3596 13.9021C27.8159 14.5969 27.929 15.3813 28.1588 15.68C28.3917 15.968 28.6313 16.4469 28.6475 16.6477C28.6637 16.8484 28.5763 17.4955 29.0552 19.2463C29.1911 18.7027 29.3982 17.4955 29.3982 17.4955L29.5115 16.4307L29.641 13.1362L26.2008 10.2782L23.5115 8.32661L21.7607 8.49493L21.8705 8.74411L21.8708 8.74432Z" fill="#CAA13E"/>
<path id="Dogecoin (DOGE)_30" fill-rule="evenodd" clip-rule="evenodd" d="M28.2624 13.6471C28.2624 13.6471 28.2138 13.3271 27.4048 12.7831C26.5957 12.246 25.9646 12.246 25.3822 11.7897C24.9355 11.4304 24.4696 10.605 24.1662 10.3332C23.8716 10.0646 23.8232 9.28789 23.8232 9.28789L24.8167 8.45589L26.2942 6.32021L27.5433 4.94485L28.1419 5.77685L28.9739 6.75413L29.4366 8.71531L29.6049 11.5859L28.2609 13.6474L28.2624 13.6471Z" fill="#B59544"/>
<path id="Dogecoin (DOGE)_31" fill-rule="evenodd" clip-rule="evenodd" d="M29.2625 17.088C29.287 16.6527 29.2333 16.2165 29.1038 15.8001C28.8905 15.1366 28.4244 13.9586 28.2078 13.5174C28.1204 13.0287 28.1852 12.9899 28.2791 12.9348C28.3729 12.8798 28.7258 12.6788 28.9191 11.9738C29.1124 11.2687 29.712 11.2456 29.712 11.2456L30.0809 10.9739L30.6409 12.375L31.1294 13.6405L31.2815 14.6082L31.3948 15.4334L31.1294 17.1778L29.8189 18.3622L29.2623 17.088H29.2625Z" fill="#C89D3A"/>
<path id="Dogecoin (DOGE)_32" fill-rule="evenodd" clip-rule="evenodd" d="M10.9745 36.531V36.4951C11.0018 36.4781 11.0258 36.4565 11.0456 36.4311C11.0682 36.3987 11.0846 36.3599 11.1006 36.3503C11.1331 36.3341 11.2852 36.2863 11.366 36.3016C11.4469 36.317 11.6606 36.4051 11.7739 36.3987C12.0069 36.3923 12.2787 36.2142 12.7092 36.2952C13.3564 36.4149 13.5085 36.855 13.884 37.1042C14.14 37.2791 14.4049 37.2013 14.4438 37.2013H14.531C14.5472 37.2013 14.6669 37.0654 14.7318 37.072C14.8613 37.0784 14.8741 37.1853 14.9549 37.1917C15.1459 37.2143 15.5149 37.0946 15.6995 37.1432C15.8105 37.178 15.8975 37.265 15.9324 37.376C15.9712 37.4957 15.9388 37.6478 15.8449 37.7352C15.6444 37.9196 15.4535 38.0945 15.4147 38.2472C15.464 38.2849 15.5115 38.3251 15.5567 38.3676C13.9555 37.9596 12.4149 37.3427 10.9745 36.5329V36.531Z" fill="#CEB052"/>
<path id="Dogecoin (DOGE)_33" fill-rule="evenodd" clip-rule="evenodd" d="M28.2074 30.0649C28.2074 30.0649 28.7121 29.3918 28.8871 29.0583C29.0618 28.7147 28.3337 24.3627 28.3337 24.3627L29.7965 19.5699L29.7575 18.01C29.7575 18.01 29.8287 16.5698 29.9971 15.9452C30.1978 16.3044 30.8224 16.7381 30.9583 16.9679C31.0223 16.5276 31.2397 15.5989 31.2075 14.6086C31.3272 14.793 31.6152 16.6475 31.6152 16.6475L31.9032 17.8965L32.2787 19.2235L32.6961 20.6249L32.9453 21.5925L33.0876 21.8255L33.2075 22.2332L33.3208 22.6735L33.6476 23.7058L33.8396 24.5536L33.9917 26.0909C34.0248 26.2086 34.0486 26.3287 34.063 26.4501C34.0694 26.6185 34.0404 26.7155 34.0404 26.7448C34.0404 26.774 34.0954 27.1136 34.0728 27.3694C34.0404 27.6254 34.0404 27.8257 33.8396 28.0094C33.6389 28.1931 33.5128 29.2909 33.5128 29.2909L33.1535 29.0515C33.1535 29.0515 33.2248 28.7245 33.0565 28.4269C32.8881 28.1293 32.5613 28.0676 32.3768 28.1163C32.1925 28.1551 31.8236 28.2131 31.7037 28.3168C31.5904 28.4203 31.3123 28.7407 31.0565 28.8864C30.7365 29.0784 30.2151 29.0935 29.9369 29.1582C29.6553 29.2222 29.3447 29.4142 29.0176 29.6371C28.7612 29.8031 28.4905 29.9459 28.2087 30.0638L28.2074 30.0649Z" fill="#CCA847"/>
<path id="Dogecoin (DOGE)_34" fill-rule="evenodd" clip-rule="evenodd" d="M28.2074 37.136C28.2074 37.136 28.2287 37.1499 28.2699 37.1725C30.5691 36.0953 32.6292 34.5683 34.3286 32.6818C34.31 32.0269 34.2859 31.3555 34.2595 31.1068C34.2046 30.5792 34.2435 30.042 34.2272 29.7314C34.211 29.4208 34.0363 28.1553 33.9555 27.8285C33.868 27.5017 33.6995 27.3397 33.6739 27.3397C33.6512 27.3464 33.5151 27.9548 33.5151 28.1077C33.5151 28.2607 33.4827 28.6289 33.4827 28.7228C33.4601 28.7162 33.4505 28.6588 33.4505 28.6353C33.4181 28.7162 33.3792 28.8587 33.363 28.8749C33.3468 28.8911 33.3856 28.739 33.363 28.7066C33.3404 28.6741 33.299 28.6904 33.308 28.6095C33.3118 28.5616 33.3194 28.514 33.3306 28.4672C33.3306 28.4672 33.2335 28.6095 33.1625 28.972C33.0912 29.3312 33.0912 29.341 33.0654 29.3732C33.0428 29.4123 32.9133 29.5416 32.9067 29.5902C32.9003 29.6774 33.0266 29.7649 33.0362 29.8133C33.0426 29.8944 32.9229 30.2697 32.8841 30.4533C32.8453 30.637 32.8615 30.9969 32.8201 31.1814C32.7877 31.3498 32.7561 31.4468 32.6454 31.5179C32.7262 31.5341 32.8039 31.5567 32.8039 31.5567C32.8039 31.5567 32.9172 32.0356 32.6292 32.4435C32.5257 32.5858 32.4999 32.6507 32.3898 32.7802C32.1728 33.0195 32.0045 33.2922 31.9883 33.4694C31.9771 33.4171 31.9696 33.3641 31.9657 33.3107C31.9657 33.3107 31.6293 33.7024 31.4868 33.9258C31.3024 34.2138 31.0467 34.1976 30.9748 34.2688C30.9029 34.3401 30.8873 34.4693 30.9108 34.573C30.8468 34.589 30.7264 34.6118 30.6454 34.861C30.6065 34.9903 30.5095 35.117 30.3574 35.2041C30.2053 35.2911 30.0207 35.3173 29.9269 35.34C30.0077 35.3626 30.0401 35.3626 30.079 35.3884C30.0305 35.4692 29.8072 35.5955 29.558 35.7574C29.3088 35.9096 29.1889 36.1327 29.1275 36.2784C29.0635 36.4143 28.969 36.5018 28.8169 36.518C28.8809 36.5568 28.9756 36.6473 29.024 36.6765C28.9528 36.6927 28.832 36.6927 28.6164 36.8772C28.3898 37.065 28.3121 37.12 28.2085 37.1362L28.2074 37.136Z" fill="#C39D3C"/>
<path id="Dogecoin (DOGE)_35" fill-rule="evenodd" clip-rule="evenodd" d="M23.7044 38.6357C23.8283 38.5489 23.9625 38.4777 24.1039 38.4239C24.6087 38.2234 25.1427 38.1845 25.353 38.1199C25.5538 38.0559 25.7123 37.9676 25.9614 37.9192C25.9548 37.9759 25.9493 38.0292 25.9433 38.0796C25.2087 38.3105 24.4606 38.4963 23.7033 38.6357H23.7044Z" fill="#D2BA6B"/>
<path id="Dogecoin (DOGE)_36" fill-rule="evenodd" clip-rule="evenodd" d="M33.0142 25.3594C33.0142 25.3594 32.9107 25.9191 32.7262 26.272C32.5417 26.6249 32.3422 27.1134 32.3422 27.1134C32.3434 27.0033 32.3564 26.8937 32.381 26.7863C32.1481 26.9222 31.5817 27.2493 31.421 27.3948C31.2689 27.5307 31.0131 27.7702 30.9485 27.8835C31.1006 27.437 31.2591 27.0357 31.2851 26.8512C31.0522 27.0195 29.9646 27.9159 29.3984 28.5082L27.6346 29.9354C27.431 30.0452 27.2214 30.1433 27.0067 30.2293C26.7027 30.3586 26.3435 30.4687 26.0781 30.5724C26.1494 30.3814 26.2624 30.2129 26.4211 30.0512C26.5895 29.8927 27.0942 29.3457 27.1719 29.0912C27.2431 28.8258 27.2593 28.6673 27.1655 28.4439C27.078 28.4666 26.8775 28.4764 26.7416 28.5152C26.6057 28.554 26.46 28.6995 26.46 28.6995C26.46 28.6995 26.5634 28.1073 26.7868 27.5475C26.6185 27.5539 26.3305 27.6023 26.3305 27.6023C26.3305 27.6023 26.7318 26.9293 27.4185 26.4602C27.2082 26.5049 27.0024 26.5688 26.8037 26.6509C26.4024 26.8192 25.9623 27.0684 25.6354 27.2043C25.8198 26.9483 27.1143 25.1008 27.8846 23.379C28.6526 21.6606 28.9395 21.2205 29.1079 20.2982C29.1951 19.8419 29.1719 19.1676 29.1951 18.5636C29.2177 17.9648 29.2922 17.4276 29.2438 17.0684C29.4443 17.3175 30.1952 18.0198 30.221 19.5895C30.2436 21.159 29.5027 23.2789 28.7162 24.4211C28.9082 24.4762 29.4057 24.541 29.9168 23.6531C30.428 22.7652 30.4218 22.5173 30.6063 22.1483C30.6289 22.3328 30.6223 22.3974 30.6223 22.3974C30.6223 22.3974 31.3668 21.4946 31.7195 20.3586C31.7907 20.8474 32.0011 21.2779 31.6708 22.1743C31.3764 22.9833 30.9914 23.1808 30.9914 23.1808C30.9914 23.1808 31.1823 23.1484 31.4637 22.9801C31.5123 23.0997 31.5027 23.2361 31.5836 23.2843C31.6645 23.3325 31.7745 23.4138 31.7907 23.4914C31.878 23.3619 32.0139 23.1968 32.0561 23.0739C32.0237 23.3299 32.0011 24.4493 32.1201 25.0189C32.3695 24.9963 32.6251 24.9801 32.7998 24.5301C32.6801 24.9705 32.6801 25.2356 32.761 25.6111C32.8937 25.5206 33.0134 25.3587 33.0134 25.3587L33.0142 25.3594Z" fill="#C0993A"/>
<path id="Dogecoin (DOGE)_37" fill-rule="evenodd" clip-rule="evenodd" d="M24.6054 7.52107C24.6054 7.52107 24.3563 7.62453 23.9324 7.62453C23.5635 7.62453 23.667 7.48224 23.091 7.48224C22.2044 7.48224 19.1072 7.99424 18.5634 7.98699C18.2106 7.98059 19.7542 8.13909 19.7542 8.13909L23.6994 8.19413L24.4922 8.13013L24.7868 7.53067L24.6054 7.52107Z" fill="#A88F33"/>
<path id="Dogecoin (DOGE)_38" fill-rule="evenodd" clip-rule="evenodd" d="M14.3757 15.2331C14.3757 15.2331 13.8707 15.6181 13.6572 15.9128C13.4436 16.2074 13.3304 16.4013 13.0876 16.6409C13.1446 16.643 13.2015 16.6354 13.2559 16.6182C13.2559 16.6182 13.2559 16.6822 13.2171 16.6991C13.285 16.6915 13.3528 16.715 13.4014 16.7631C13.3301 16.8019 13.136 16.9963 13.2881 17.226C13.4014 17.4008 13.641 17.4168 13.641 17.4168C13.641 17.4168 13.5859 17.5755 13.8157 17.5593C14.3108 17.5366 14.8642 17.3197 15.1198 17.3747C15.3758 17.4387 15.5213 17.4622 15.7024 17.7762C15.8944 18.0868 16.0617 18.1355 16.0617 18.1355C16.0617 18.1355 16.1749 17.8473 16.1491 17.417C16.242 17.185 16.2935 16.9386 16.3012 16.6889L16.1329 15.4494L15.3984 14.5205L14.4469 15.0481L14.3757 15.2324V15.2331Z" fill="#E3C571"/>
<path id="Dogecoin (DOGE)_39" fill-rule="evenodd" clip-rule="evenodd" d="M15.2786 15.0485C15.2786 15.0485 15.3498 15.2169 15.6476 15.2329C15.6152 15.3041 15.6152 15.3139 15.625 15.3688C15.6314 15.4238 15.641 15.5046 15.641 15.5046C15.6738 15.4888 15.7034 15.4671 15.7285 15.4406C15.7447 15.5119 15.7123 15.625 15.7285 15.706C15.7385 15.7553 15.7548 15.8032 15.7769 15.8483C15.7816 15.8373 15.787 15.8265 15.7931 15.8161C15.7995 15.7999 15.8571 15.9908 16.0165 16.1361C16.0163 16.1138 16.0218 16.0918 16.0325 16.0721C16.0349 16.1127 16.0483 16.1518 16.0713 16.1854C16.0594 16.1797 16.0485 16.1721 16.0391 16.1628C16.0391 16.1628 16.0551 16.6748 16.1426 16.9395C16.1572 16.9224 16.1702 16.904 16.1814 16.8845C16.1814 16.8685 16.175 17.027 16.1588 17.1405C16.1362 17.2538 16.1524 17.4123 16.1524 17.4123C16.2107 17.3663 16.2748 17.3283 16.3431 17.299C16.4402 17.26 16.5991 17.1403 16.696 16.8749C16.7521 16.7246 16.7955 16.5698 16.8254 16.4122C16.8567 16.4724 16.8783 16.5372 16.8894 16.6042C16.8961 16.685 17.0482 16.643 17.0482 16.643L17.0806 16.2901L17.2726 15.4908L17.4473 14.9956L18.2887 13.6851L19.8089 12.5144L21.1358 12.8186L22.2554 11.2975L20.3267 10.1389L18.5014 10.3298L16.8449 12.6242L15.5181 14.7053L15.2786 15.0483L15.2786 15.0485Z" fill="#D8B65B"/>
<path id="Dogecoin (DOGE)_40" fill-rule="evenodd" clip-rule="evenodd" d="M24.8384 11.7282C24.8384 11.7282 24.7251 11.7508 24.3983 11.9202C24.0715 12.0896 23.8449 12.1434 23.7186 12.3925C23.5923 12.6417 23.5827 12.8393 23.5827 12.8393C23.5827 12.8393 23.8061 12.7422 23.9356 12.7098C24.0715 12.6776 24.2236 12.6872 24.2074 12.7422C24.1918 12.7799 24.1702 12.8149 24.1434 12.8457C24.1434 12.8457 24.3994 12.8393 24.3925 12.9656C24.3857 13.0918 24.3441 13.2309 24.2957 13.2924C24.2471 13.3564 24.0465 13.4511 24.0239 13.5256C23.9689 13.6777 24.0465 13.6841 24.0173 13.8069C23.9947 13.9268 23.888 14.1598 23.5384 14.5675C23.1791 14.9754 23.0264 15.2634 23.0264 15.2634C23.0264 15.2634 22.8516 14.9365 22.761 14.6549C22.697 14.6872 22.3533 14.8781 22.3533 14.8781L21.5571 12.1048L21.5731 11.9202C21.5731 11.9202 21.6444 11.833 21.6606 11.671C21.5409 11.6322 21.5247 11.5998 21.366 11.4479C21.2073 11.296 21.078 11.1113 20.8128 10.985C20.774 10.9137 20.7253 10.8169 20.5312 10.7778C20.3371 10.7388 20.2206 10.7068 20.2206 10.7068C20.2206 10.7068 20.3241 10.6677 20.3727 10.5869C20.2528 10.6031 20.156 10.6419 19.8938 10.6355C19.6284 10.6289 19.5992 10.6193 19.4537 10.6419C19.3082 10.6645 19.1337 10.7294 19.0686 10.506C18.9973 10.451 18.8452 10.4996 18.7157 10.6904C18.5863 10.8811 18.541 11.0334 18.2919 11.1078C18.2743 11.2177 18.2359 11.3231 18.1786 11.4185C18.1073 11.5384 17.994 11.658 17.8419 11.836C17.6024 12.1176 17.6412 12.5803 17.2593 12.9331C16.8743 13.2858 17.3233 11.9556 17.3233 11.9556L17.9381 10.4836L19.689 8.77163L22.4075 8.58731L22.6729 9.99531L23.9998 10.4516L24.838 11.7299L24.8384 11.7282Z" fill="#D3AE4D"/>
<path id="Dogecoin (DOGE)_41" fill-rule="evenodd" clip-rule="evenodd" d="M25.269 12.0388L24.1266 10.3917L23.3272 9.77664C23.3272 9.77664 22.7576 8.72832 22.7188 8.69589C22.6863 8.67328 22.1492 8.61504 21.8061 8.59242L21.8701 8.75093C21.945 8.77525 22.0115 8.82012 22.0621 8.88042C22.2142 9.05514 22.3113 9.38517 21.9651 9.73802C22.101 9.78645 22.1571 9.80202 22.2757 9.78645C22.156 9.92896 21.8842 10.2332 21.868 10.4986C21.8518 10.7153 21.9877 10.7799 21.9877 10.7799C21.9877 10.7799 21.7805 11.0195 21.7709 11.4199C21.8688 11.3096 21.9758 11.2079 22.0909 11.1157C22.3305 10.9237 22.6605 10.7078 22.8839 10.5719C22.8808 10.629 22.8885 10.6861 22.9065 10.7403C22.9065 10.7403 23.3238 10.3972 23.6745 10.5493C23.833 10.6206 23.7618 10.8439 23.7618 10.8439C23.7618 10.8439 23.9787 10.7631 24.1308 10.9152C24.2829 11.0673 24.4997 11.4588 24.6098 11.6111C24.6582 11.6823 24.7845 11.8182 24.9138 12.0284C25.0904 12.3229 25.2379 12.634 25.3541 12.9572C25.3605 12.8277 25.3865 12.6466 25.6101 12.6466L25.2702 12.0382L25.269 12.0388Z" fill="#CAA13E"/>
<path id="Dogecoin (DOGE)_42" fill-rule="evenodd" clip-rule="evenodd" d="M8.14275 16.7185C8.14275 16.7185 8.06189 16.5178 8.14275 16.1263C8.2236 15.7348 8.34989 15.5503 8.39192 14.9743C8.43395 14.3983 8.80941 13.6798 8.80941 13.6798L9.84813 13.2075L10.5829 13.408L10.7996 14.3919L9.87075 14.9039C9.87075 14.9039 9.82232 15.1206 9.56013 15.2954C9.29795 15.4701 8.93549 15.606 8.84824 15.7841C8.79608 15.8932 8.75801 16.0084 8.73496 16.1271C8.73496 16.1271 8.46957 16.0721 8.31107 16.2468C8.14275 16.425 8.14915 16.5835 8.14275 16.7194V16.7185Z" fill="#F4EFC8"/>
<path id="Dogecoin (DOGE)_43" fill-rule="evenodd" clip-rule="evenodd" d="M10.2398 16.4563C10.2398 16.4563 10.1523 16.5114 10.0877 16.6483C10.0237 16.5449 9.87072 15.9298 9.86432 15.3764C9.85792 14.823 9.82485 14.6859 9.95285 14.4951C10.0809 14.3044 10.5828 14.1035 10.5116 13.76C10.4403 13.4332 10.1425 13.2973 9.77685 13.3911C9.52085 13.4551 9.33034 13.9996 9.06496 14.2714C8.86421 14.4785 8.62485 14.4461 8.56021 14.5594C8.47275 14.7115 8.5536 14.8636 8.52778 14.9606C8.52117 14.9931 8.44032 15.1678 8.29461 15.3781C8.00021 15.802 7.50187 16.4009 7.43701 16.938C7.45963 16.6338 7.44363 16.6274 7.52448 16.2908L7.47584 16.2099L7.79584 15.1614L8.00299 14.2974L8.46592 12.8506L9.28128 11.3717L10.0742 10.4849L10.8994 10.5399L10.9965 11.7794L11.469 14.1065L12.4625 15.3297L10.8702 16.4013L10.2391 16.4563H10.2398Z" fill="#EBCC73"/>
<path id="Dogecoin (DOGE)_44" fill-rule="evenodd" clip-rule="evenodd" d="M10.735 16.896C10.735 16.896 10.5991 16.9284 10.5504 16.9026C10.5018 16.8768 10.4536 16.8476 10.4696 16.8151C10.4856 16.7827 10.573 16.7279 10.573 16.7019C10.5768 16.653 10.541 16.61 10.4922 16.6048C10.4177 16.5952 10.3951 16.6436 10.3951 16.6436C10.3951 16.6436 10.3239 16.5888 10.2658 16.5796C10.3002 16.5754 10.3347 16.5732 10.3693 16.573C10.2799 16.5325 10.185 16.5053 10.0877 16.4922C10.1686 16.4437 10.3273 16.3012 10.4307 16.3012C10.5342 16.3012 10.5991 16.2852 10.5829 16.2302C10.5666 16.1751 10.4858 16.0943 10.3985 16.0619C10.4307 16.023 10.4536 15.9648 10.3759 15.8059C10.2949 15.6474 10.3273 15.5405 10.3533 15.5019C10.3759 15.4532 10.4568 15.366 10.4956 15.3109C10.5344 15.2559 10.5669 15.1814 10.6315 15.1426C10.6639 15.12 10.7674 15.0786 10.8711 15.0391C10.9843 15.0003 11.0782 14.9517 11.1429 15.0003C11.2141 15.0487 11.1817 15.1136 11.1817 15.1136C11.1817 15.1136 11.405 15.0325 11.6056 15.1362C11.8063 15.2331 12.2951 15.2947 12.2951 15.2947L12.4702 15.6476L11.3116 16.6411L10.8327 16.8806L10.7356 16.8966L10.735 16.896Z" fill="#E5C66B"/>
<path id="Dogecoin (DOGE)_45" fill-rule="evenodd" clip-rule="evenodd" d="M12.3433 15.2719C12.3433 15.2719 11.984 15.5115 11.9032 15.5987C11.9516 15.6053 12.0325 15.6378 12 15.6862C11.9612 15.7346 11.7282 15.9029 11.5988 16.0617C11.4629 16.2202 11.3334 16.4209 11.2881 16.518C11.2397 16.6052 10.8706 16.861 10.7446 16.8932C11.01 16.8932 11.5439 16.5664 11.7445 16.5664C11.7381 16.6635 11.7995 16.7736 11.9128 16.7832C12.0261 16.7928 12.3529 16.8544 12.793 16.5826C13.2331 16.3172 13.0876 16.1197 13.2719 15.9904C13.6248 15.7572 13.7671 15.5501 13.9612 15.4208C14.1553 15.2915 14.2558 15.2621 14.2558 15.2621C14.2558 15.2621 14.2622 15.165 14.3198 15.1748C14.352 15.1785 14.3794 15.1997 14.3911 15.2299C14.3911 15.2299 14.7277 14.9903 15.1591 14.9257C15.149 14.9212 15.141 14.9131 15.1365 14.903C15.1365 14.903 15.1687 14.8868 15.1753 14.8706C15.1753 14.8706 15.1979 14.8382 15.2141 14.8544C15.2303 14.8706 15.2529 14.9903 15.2854 15.0389C15.3566 15.0065 15.4925 14.7023 15.4925 14.7023L15.8196 13.767V12.9126L15.5636 12.9613L13.6436 13.7766L12.4783 14.9839L12.3424 15.2719H12.3433Z" fill="#E6BD62"/>
<path id="Dogecoin (DOGE)_46" fill-rule="evenodd" clip-rule="evenodd" d="M17.8707 11.081C17.9746 11.0558 18.0742 11.0154 18.1662 10.9611C18.1274 11.0647 18.1274 11.178 17.9591 11.424C17.7907 11.67 17.7843 11.7056 17.6484 11.9612C17.5126 12.2266 17.4963 12.6084 17.3668 12.7765C17.4249 12.7483 17.4871 12.7298 17.5512 12.7217C17.5512 12.7217 17.4219 12.835 17.3668 12.9547C17.3118 13.0743 17.2147 13.3235 16.9754 13.4758C16.736 13.6282 16.4316 13.725 16.1048 14.0843C15.7777 14.4369 15.4413 14.8836 15.2728 15.0443C15.3602 14.8922 15.4799 14.5879 15.5123 14.3874C15.5448 14.1869 15.5057 13.9471 15.5608 13.6819C15.6158 13.4167 15.6158 13.2256 15.8808 12.7627C16.1457 12.2997 16.5993 10.6914 16.5993 10.6914L17.5766 10.3808L17.8712 11.0799L17.8707 11.081Z" fill="#B6933F"/>
<path id="Dogecoin (DOGE)_47" fill-rule="evenodd" clip-rule="evenodd" d="M17.1653 10.4888C17.1653 10.4888 16.8709 10.9126 16.79 11.2881C16.7092 11.6636 16.7834 11.6312 16.735 11.8157C16.706 11.9282 16.706 12.0462 16.735 12.1587C16.8369 11.9945 16.9765 11.8568 17.1422 11.7572C17.4206 11.5891 17.6472 11.4692 17.7822 11.3269C17.9181 11.1748 18.0314 10.9257 18.3258 10.7347C18.2061 10.7185 18.0378 10.6635 18.0058 10.6707C18.1257 10.5348 18.4847 10.3277 18.8472 10.0785C19.2064 9.82251 19.1838 9.71926 19.7664 9.46368C19.5755 9.49611 19.4848 9.44747 19.3261 9.46368C19.3901 9.32779 19.6141 9.26294 19.8381 9.03979C20.0621 8.81664 19.6958 8.4864 19.6958 8.4864L17.9892 9.51872L17.164 10.4896L17.1653 10.4888Z" fill="#C49937"/>
<path id="Dogecoin (DOGE)_48" fill-rule="evenodd" clip-rule="evenodd" d="M12.5342 9.7184L12.5731 9.40778L13.0618 8.62464L13.5732 7.24928V5.36896L13.5343 4.2816L13.6152 3.56949L13.6766 3.34314L13.7415 3.25568L14.1588 3.47242L14.735 4.25557L14.79 5.76704L14.23 8.1521L12.6313 9.89653L12.5342 9.7184Z" fill="#DFC068"/>
<path id="Dogecoin (DOGE)_49" fill-rule="evenodd" clip-rule="evenodd" d="M13.8061 3.16821C13.8061 3.16821 13.5501 3.17482 13.4955 4.23957C13.4409 5.30431 13.4144 5.8641 13.3756 6.39167C13.3368 6.91925 13.2463 7.23946 13.2009 7.55029C13.1554 7.86111 13.1296 8.28479 12.9841 8.54378C12.9201 8.66346 12.7834 9.03893 12.463 9.32053C12.1037 9.63114 11.567 9.8481 11.4857 9.86431C11.3432 9.89653 10.6215 9.96778 10.3271 10.1297C10.2236 10.1847 10.0455 10.2494 9.84813 10.4339C9.45645 10.7866 8.93549 11.4176 8.56002 12.1781C7.98402 13.3141 7.40802 16.5212 7.40802 16.5212L7.53751 16.3044C7.53751 16.3044 7.55373 16.0164 7.84173 15.5115C8.12333 15.0067 8.04247 14.4403 8.43394 13.4726C8.58605 13.1038 8.77698 12.6248 9.00994 12.217C9.37901 11.5535 9.82551 10.9839 10.2754 10.6733C11.0099 10.1685 11.8191 10.0584 11.8191 10.0584L12.6897 9.48245C12.6897 9.48245 12.8418 9.18805 13.0426 8.85141C13.324 8.37909 13.6826 7.85151 13.7609 7.08458C13.8808 5.94858 13.5926 5.20426 13.6088 4.53119C13.625 3.85813 13.6314 3.36298 13.7675 3.24309C13.9036 3.12319 13.8063 3.16863 13.8063 3.16863L13.8061 3.16821Z" fill="#A88F33"/>
<path id="Dogecoin (DOGE)_50" fill-rule="evenodd" clip-rule="evenodd" d="M13.8061 8.24918C13.8061 8.24918 14.1901 7.30411 14.3659 6.46592C14.3983 6.29761 14.4629 6.1295 14.4792 5.99361C14.56 5.20065 14.5826 4.87382 14.4792 4.44011C14.3983 4.12011 14.0877 3.83169 13.9258 3.60811C13.7673 3.37494 13.6928 3.28811 13.7252 3.23905C13.7577 3.18998 13.8837 3.10977 14.0066 3.11937C14.2706 3.12705 14.5198 3.24273 14.6961 3.43937C14.9453 3.72737 15.1426 4.70486 15.1426 4.70486L15.3502 5.99467L15.8778 7.6192L13.8065 8.25046L13.8061 8.24918Z" fill="#C99E3D"/>
<path id="Dogecoin (DOGE)_51" fill-rule="evenodd" clip-rule="evenodd" d="M17.4144 7.26549C17.4144 7.26549 17.3432 7.2977 17.2139 7.26549C17.2251 7.3732 17.1751 7.47815 17.0844 7.53727C16.9485 7.48223 15.6764 7.59231 15.6764 7.59231C15.6764 7.59231 15.0842 7.48863 14.8997 6.70549C14.7704 6.18431 14.9967 5.46602 14.9223 4.99349C14.809 4.29759 14.6505 4.16149 14.6343 3.94495C14.6181 3.72842 14.6018 3.67317 14.6018 3.53727C14.5306 3.52106 14.4886 3.49845 14.4175 3.49845C14.4013 3.43445 14.4335 3.37855 14.3625 3.26527C14.4013 3.28149 14.6667 3.31391 14.9773 3.60831C15.2333 3.84789 15.2333 3.93514 15.2719 3.98378C15.3204 4.03221 15.712 4.36778 15.8804 4.70229C16.0487 5.03679 16.3755 6.10346 16.45 6.27818C16.4726 6.34943 16.5212 6.42069 16.642 6.58239C16.8297 6.81557 17.1047 7.20106 17.4153 7.26506L17.4144 7.26549Z" fill="#B58634"/>
<path id="Dogecoin (DOGE)_52" fill-rule="evenodd" clip-rule="evenodd" d="M15.3176 4C15.5136 4.3167 15.6897 4.6453 15.8449 4.98389C16.0359 5.41419 16.1491 5.76704 16.3887 6.05504C16.2592 5.67979 16.0295 4.94187 15.8936 4.67968C15.7415 4.40235 15.4308 4.10368 15.3176 4.00021V4Z" fill="#A88F33"/>
<path id="Dogecoin (DOGE)_53" fill-rule="evenodd" clip-rule="evenodd" d="M13.1168 9.32053C13.1168 9.32053 12.79 9.40138 12.1815 9.72181C11.9808 9.82527 11.7901 9.91253 11.6055 9.99359C11.1262 10.2103 10.6121 10.4107 10.2042 10.5212C10.2366 10.56 10.2526 10.576 10.2526 10.576C10.2526 10.576 10.2526 10.7347 10.3401 10.8252C10.2916 10.8738 9.64416 11.3139 9.83531 12.7863C9.96459 12.7379 10.1167 12.6731 10.1393 12.6731C10.1783 12.6797 10.1879 12.7863 10.2364 12.7863C10.2848 12.7863 10.4435 12.7223 10.6118 12.5047C10.6054 12.5922 10.5084 13.4724 11.0293 14.0646C11.1264 13.9514 11.3724 13.5759 11.3724 13.5759L11.3788 13.4562C11.3788 13.4562 11.4014 13.0387 11.5375 12.6568C11.6736 12.275 11.9388 11.9934 11.9388 11.9934L13.3235 10.016L13.1164 9.32031L13.1168 9.32053Z" fill="#E6C367"/>
<path id="Dogecoin (DOGE)_54" fill-rule="evenodd" clip-rule="evenodd" d="M11.8223 12.224C11.7589 12.2688 11.6891 12.3037 11.6152 12.3275C11.5926 12.2466 11.5602 11.9682 11.7511 11.6964C11.9745 11.3694 12.463 10.9455 12.5989 10.6084C12.6863 10.3915 12.6475 9.8479 13.4243 9.152C14.201 8.45611 14.505 8.21675 14.505 8.21675L15.7607 7.58571L17.3044 8.19414L16.5374 11.2L15.942 12.608L13.574 12.1615L11.8221 12.224H11.8223Z" fill="#DCBA5A"/>
<path id="Dogecoin (DOGE)_55" fill-rule="evenodd" clip-rule="evenodd" d="M12.7262 11.4078L13.0208 11.0389V10.7767C13.0208 10.7767 13.3476 10.6893 13.7003 10.33C14.0529 9.97078 14.5417 9.2815 14.9722 9.32352C15.4027 9.37216 15.4447 10.2588 15.4609 10.5082C15.4771 10.7575 15.5322 11.3235 15.6194 11.6279C15.7165 11.9322 14.5709 13.0842 14.5709 13.0842L13.7929 13.6764L12.7262 11.4078Z" fill="#E9CE77"/>
<path id="Dogecoin (DOGE)_56" fill-rule="evenodd" clip-rule="evenodd" d="M13.6378 14.4789C13.6378 14.4789 13.8774 14.1035 13.7018 14.0226C13.8053 13.7897 13.9962 13.5437 13.9962 13.5437C13.9962 13.5437 14.1321 13.2073 14.5722 12.793C15.0123 12.3787 15.2843 12.1035 15.3556 11.8253C15.3995 11.644 15.4234 11.4584 15.4268 11.2719C15.4744 11.3108 15.5253 11.3454 15.5789 11.3754C15.6502 11.4078 15.9866 11.686 15.9382 12.246C15.8898 12.806 15.6822 13.0389 15.6822 13.0389C15.6822 13.0389 15.4817 13.2395 15.3394 13.3431C15.187 13.4466 15.1322 13.5663 14.8764 13.5761C14.9027 13.5552 14.9323 13.5388 14.9639 13.5275C14.9639 13.5275 14.6985 13.4953 14.556 13.6245C14.4135 13.7538 14.1106 14.1521 13.9585 14.272C13.8064 14.3691 13.6385 14.4791 13.6385 14.4791L13.6378 14.4789Z" fill="#CDAE50"/>
<path id="Dogecoin (DOGE)_57" fill-rule="evenodd" clip-rule="evenodd" d="M24.3983 8.18432C24.016 8.04497 23.6142 7.96637 23.2075 7.95136C22.5278 7.92875 21.5343 7.96758 20.5602 7.97398C19.5117 7.98038 18.5602 7.61472 17.2399 7.55008C17.0232 7.42059 16.4719 6.85419 14.7512 8.05483C14.8546 8.04843 16.0004 7.78944 16.3983 8.288C16.7996 8.78315 16.6863 9.62454 16.6315 9.82507C16.5278 10.2718 16.1912 10.9222 16.0555 11.3786C15.9198 11.8349 15.9518 12.0747 15.8547 12.3947C15.7577 12.7147 15.5441 12.8736 15.6702 13.2425C15.8385 13.139 15.9262 13.139 16.2074 12.5079C16.4885 11.8769 16.4307 11.427 16.8969 10.893C17.3532 10.3558 18.1129 9.62112 18.4017 9.43659C18.6906 9.25206 20.9841 8.06123 23.3856 9.19723C23.9648 9.13579 24.3985 8.18411 24.3985 8.18411L24.3983 8.18432Z" fill="#D2A83E"/>
<path id="Dogecoin (DOGE)_58" fill-rule="evenodd" clip-rule="evenodd" d="M15.7186 7.74401C15.7162 7.71969 15.7109 7.69575 15.7026 7.67275C15.6802 7.62543 15.6507 7.58177 15.6151 7.54326C15.6151 7.54326 15.0455 7.43979 14.7575 7.47201C14.2526 7.52705 13.7963 8.15169 13.5827 8.47211C13.3692 8.79254 13.1038 9.28747 12.8158 9.54326C12.8189 9.51834 12.8132 9.49311 12.7996 9.47201C12.7996 9.47201 12.8158 9.49462 12.7836 9.52705C12.7514 9.55947 12.7511 9.57547 12.7674 9.59105L12.816 9.63947C12.832 9.63947 13.2787 9.43873 13.8871 8.87147C14.5344 8.27926 15.0295 7.97547 15.2885 7.87137C15.4266 7.81267 15.571 7.76994 15.7188 7.74401H15.7186Z" fill="#C29637"/>
<path id="Dogecoin (DOGE)_59" fill-rule="evenodd" clip-rule="evenodd" d="M26.7674 5.31071C26.7674 5.31071 26.6637 5.43999 26.5342 5.5825C26.2462 5.88671 25.8707 6.22954 25.5503 6.58239C25.2463 6.91903 24.9033 7.18122 24.518 7.62133C24.1327 8.06143 23.686 8.54997 23.5729 8.69247C23.4695 8.83498 23.3886 9.06794 23.3886 9.18762C23.3336 9.14879 23.2689 9.10677 23.2689 9.10677C23.2961 9.15758 23.3287 9.20535 23.366 9.24927C23.4468 9.36255 23.5729 9.50527 23.6378 9.59231C23.7173 9.70312 23.7744 9.82843 23.8059 9.96117C23.8447 9.96757 24.0939 10.0162 24.4047 9.50485C24.7155 8.99349 25.123 8.4337 25.123 8.4337L25.7703 7.47242L26.1781 6.65706L26.6901 5.74442L26.768 5.31071H26.7674Z" fill="#AC8132"/>
<path id="Dogecoin (DOGE)_60" fill-rule="evenodd" clip-rule="evenodd" d="M27.4308 4.65707C27.4308 4.65707 27.0392 4.97707 26.8871 5.16907C26.735 5.36107 26.3751 5.86497 26.3751 5.86497L26.5046 5.84875L27.1616 5.26635L27.4176 4.81003L27.4306 4.65793L27.4308 4.65707Z" fill="#A88F33"/>
<path id="Dogecoin (DOGE)_61" fill-rule="evenodd" clip-rule="evenodd" d="M27.311 30.3755C27.311 30.3755 27.3046 30.1101 27.4535 29.9516C27.6056 29.7929 27.9907 29.5599 28.3661 28.6861C28.7416 27.8123 28.7834 27.6149 28.7834 27.6149C28.7834 27.6149 28.1103 28.1909 27.6954 28.3268C27.7925 28.1261 27.8475 27.9838 27.8961 27.8801C27.8411 27.8317 27.6081 27.7766 27.5855 27.7508C27.7148 27.6213 27.7861 27.3041 28.0483 27.0938C28.3849 26.8378 28.9997 26.3979 29.4776 26.0058C29.9555 25.6137 30.895 24.7017 31.0149 24.4363C31.0861 24.5397 31.1021 24.6044 31.1021 24.6044C31.1021 24.6044 30.6298 25.2194 30.3838 25.6109C30.1669 25.9475 30.1831 26.1385 30.1831 26.1385L30.6298 25.9465C30.6298 25.9465 30.7591 26.4254 30.1735 27.1537C30.4295 27.0566 30.5327 27.1149 30.6782 27.0338C30.4387 27.1861 30.1086 27.3933 29.798 27.9627C29.4938 28.5323 29.0795 29.1957 28.3806 29.6098C27.7009 30.0467 27.3093 30.3735 27.3093 30.3735L27.311 30.3755Z" fill="#A67A2E"/>
<path id="Dogecoin (DOGE)_62" fill-rule="evenodd" clip-rule="evenodd" d="M25.5569 8.52117C25.5569 8.52117 25.2915 9.07435 25.2527 9.50485C25.2463 9.60853 25.2203 9.68939 25.2203 9.80907C25.2139 10.1941 25.2429 10.6246 25.1563 10.8252C25.1238 10.7443 25.1076 10.6893 25.0752 10.6571C25.0268 10.793 24.9393 11.2169 24.8681 11.3754C24.8358 11.2719 24.7646 10.9126 24.7712 10.4887C24.7778 10.0649 24.7872 9.98379 24.7872 9.89653C24.7712 10.0258 24.6837 10.2007 24.6513 10.3042C24.6029 10.217 24.5478 10.1037 24.483 10.0098C24.4442 10.0738 24.3957 10.1683 24.3537 10.217C24.3471 10.1781 24.3311 10.0745 24.3213 9.92896C24.3149 9.76064 24.3051 9.54389 24.3149 9.49845C24.3309 9.4112 24.467 9.06816 24.755 8.75413C25.098 8.37867 25.4509 7.65717 25.5544 7.43381C25.6578 7.21045 26.0979 6.28181 26.0979 6.28181H26.4346L25.9458 7.39499C25.9458 7.39499 25.6514 8.00341 25.4993 8.22699C25.3472 8.45056 25.0268 9.0912 24.8843 9.34037C24.9877 9.20448 25.0752 9.13323 25.1789 9.00373C25.2792 8.91307 25.5573 8.5216 25.5573 8.5216L25.5569 8.52117Z" fill="#8C6228"/>
<path id="Dogecoin (DOGE)_63" fill-rule="evenodd" clip-rule="evenodd" d="M27.4373 4.61482C27.3823 4.78407 27.2954 4.94121 27.1813 5.07776C26.9805 5.31733 26.55 5.63754 26.3399 5.89312C26.1479 6.14229 25.7639 6.82197 25.9384 7.62773C26.0024 7.45301 26.1229 7.10677 26.4433 6.71509C26.7638 6.32341 27.1068 5.8737 27.2753 5.52426C27.4434 5.17141 27.4661 4.89322 27.4661 4.89322L27.5301 4.81237L27.4912 4.62784L27.4362 4.61482L27.4373 4.61482Z" fill="#CBA94C"/>
<path id="Dogecoin (DOGE)_64" fill-rule="evenodd" clip-rule="evenodd" d="M33.9906 26.0809C33.9906 26.0809 33.8612 25.7282 33.8223 25.4078C33.7835 25.0874 33.8863 25.0238 33.7673 24.6571C33.696 24.4337 33.5668 24.4651 33.5343 24.4337C33.5019 24.4024 33.4793 24.0649 33.4857 23.8803C33.4921 23.6958 33.4793 23.4564 33.4469 23.3528C33.3984 23.3139 33.366 23.2815 33.2948 23.0421C33.2139 22.8026 33.1751 22.6829 33.1362 22.6118C33.0974 22.5408 32.9839 22.476 32.9839 22.4047C32.9839 22.2622 33.1134 22.188 33.1134 22.1487C33.107 22.0678 33.01 22.1327 32.9839 22.1099C32.9517 22.071 33.065 21.8381 33.023 21.8057C33.0068 21.7897 32.8935 21.9256 32.8642 21.8867C32.8318 21.8477 32.793 21.4626 32.7348 21.207C32.6799 20.9579 32.6215 20.7768 32.6151 20.7023C32.6087 20.631 32.1684 19.3754 32.0617 19.0712C31.9757 18.8141 31.9034 18.5527 31.8449 18.288C31.8125 18.1359 31.7899 17.8251 31.7737 17.8575C31.7575 17.8899 31.7673 18.0484 31.7413 18.042C31.7186 18.0354 31.6378 17.4822 31.612 17.3948C31.5894 17.3073 31.4533 17.0108 31.42 16.7962C31.3876 16.5792 31.3165 16.0128 31.2679 15.6277C31.2192 15.2427 31.1966 15.0842 31.1966 14.9877C31.2046 14.7519 31.1916 14.5158 31.1578 14.2822C31.0938 13.8744 30.9658 13.3792 30.8536 13.0914C30.6368 12.5476 30.0606 11.1561 29.9576 10.8098C29.9576 10.7224 30.0709 10.771 30.0709 10.771C30.0709 10.771 30.3522 11.4765 30.5594 12.0201C30.7601 12.5638 30.9511 13.0428 30.9997 13.0914C31.0385 13.1398 31.3428 13.6738 31.4786 14.5476C31.6145 15.4214 31.663 16.2272 31.744 16.7644C31.7829 17.0204 31.8153 17.292 31.8961 17.5637C31.9834 17.8584 32.1193 18.1626 32.2974 18.6285C32.4495 19.0202 32.5628 19.347 32.6242 19.6286C32.6955 19.9878 32.6955 20.2596 32.7375 20.4378C32.7766 20.5899 32.8346 20.8939 32.9707 21.3338C33.1068 21.7737 33.3071 22.3403 33.443 22.6929C33.7086 23.3984 33.827 23.9874 33.8671 24.3014C33.9025 24.6251 34.0224 25.7449 33.99 26.0813L33.9906 26.0809Z" fill="#A88F33"/>
<path id="Dogecoin (DOGE)_65" fill-rule="evenodd" clip-rule="evenodd" d="M27.4535 4.57601L27.4372 4.61483C27.4372 4.61483 27.4857 4.63105 27.4761 4.6959C27.4768 4.78463 27.4713 4.8733 27.4599 4.96129C27.4439 5.07457 27.4114 5.16182 27.405 5.23307C27.405 5.38518 27.4276 5.5599 27.213 5.99361C27.149 6.11329 27.1096 6.21675 27.0771 6.28801C26.9963 6.46273 26.9801 6.48875 26.9088 6.56961C27.0221 6.50561 27.43 6.24961 27.6369 6.28801C27.4946 6.36886 27.2777 6.52758 27.1418 6.73473C27.1742 6.74113 27.3101 6.76715 27.5258 6.73473C27.885 6.67969 28.2863 6.55019 28.6389 6.57601C29.0242 6.59862 28.8721 6.11329 28.8721 6.11329L28.4275 5.13601L27.5861 4.54401L27.4535 4.57622V4.57601Z" fill="#BE9C44"/>
<path id="Dogecoin (DOGE)_66" fill-rule="evenodd" clip-rule="evenodd" d="M29.6476 11.8965C29.6476 11.8965 29.2721 11.5211 29.12 10.2325C28.9679 8.93802 29.0003 7.03253 29.0003 7.03253L28.6961 6.28821C28.6961 6.28821 28.6321 5.79306 28.4728 5.60874C28.3134 5.42442 28.0005 5.11359 27.8579 4.96149C27.7154 4.80938 27.5537 4.60223 27.4567 4.56981C27.5051 4.48895 27.7221 4.03263 28.5536 4.02623C29.3852 4.01983 29.6416 4.48255 29.7285 4.65087C29.8153 4.81919 30.2074 5.54687 30.3529 6.93354C30.4888 8.3185 30.4954 8.42218 30.4728 8.90111C30.4566 9.1665 30.3691 9.78133 30.2168 10.4382C30.0777 10.995 29.9256 11.6164 29.6472 11.8978L29.6476 11.8965Z" fill="#A17C34"/>
<path id="Dogecoin (DOGE)_67" fill-rule="evenodd" clip-rule="evenodd" d="M28.4702 13.0001C28.5954 13.0091 28.7204 12.9809 28.8295 12.919C28.9492 12.9126 29.3829 12.9677 29.7161 12.5438C29.7387 12.6406 29.7972 12.903 29.6449 13.136C29.7259 13.0549 29.8456 13.0227 29.8618 13.0001C29.8682 13.1198 29.9815 13.4886 29.5026 14.3851C29.6318 14.2428 29.784 14.2492 29.9198 14.233C29.9265 14.4013 30.0169 14.9675 29.7776 15.2719C29.619 15.479 29.3601 15.4142 29.3601 15.4142C29.3638 15.369 29.3638 15.3235 29.3601 15.2783C29.3537 15.1908 29.3212 15.1036 29.3441 15.0453C29.2189 14.9882 29.1049 14.9092 29.0074 14.8122C28.7258 14.5468 28.3602 14.0939 28.3344 13.7572C28.3019 13.3818 28.6386 13.3009 28.6386 13.3009C28.6104 13.2757 28.5863 13.2462 28.5673 13.2134C28.5511 13.1586 28.5349 13.0712 28.4702 13.0001Z" fill="#8C6228"/>
<path id="Dogecoin (DOGE)_68" fill-rule="evenodd" clip-rule="evenodd" d="M25.9742 8.92886C25.9742 8.92886 25.958 8.90624 25.8707 9.00971C25.8869 8.90624 25.9032 8.80896 25.9096 8.7151C25.9509 8.62819 26.0043 8.5476 26.0683 8.47574C26.0196 8.57259 25.9872 8.66006 25.9872 8.66006C25.9872 8.66006 26.1071 8.4367 26.2818 8.3008C26.4015 8.20374 26.5536 8.15851 26.6182 8.06784C26.6895 7.97078 26.6733 7.95456 26.6895 7.93835C26.6895 7.93835 26.8482 7.83488 27.091 7.53046C27.1232 7.49163 27.1718 7.4496 27.2043 7.41078C27.2591 7.38816 27.3886 7.32992 27.5407 7.25206C27.6994 7.1648 27.8773 7.04512 27.9874 6.99606C28.2042 6.89899 28.4341 6.9088 28.5408 6.75648C28.6217 6.73387 28.7089 6.4911 28.6929 6.28416C28.8126 6.33259 29.4274 6.71446 29.638 7.54944C29.7901 8.14166 29.5181 9.0543 29.4048 9.49462C29.2915 9.93494 29.2755 10.2616 29.1168 10.4621C28.9161 10.7277 28.269 11.1021 28.1103 11.2875C27.9744 11.4396 27.5667 11.8246 27.5827 12.1028C27.5989 12.31 27.8545 12.4228 27.9098 12.4621C27.965 12.5013 27.9646 12.5496 28.0683 12.5261C28.172 12.5026 28.2106 12.4548 28.2528 12.4548C28.3012 12.4612 28.3012 12.471 28.3238 12.471C28.3402 12.4706 28.3566 12.4683 28.3725 12.4644C28.3725 12.4644 28.3563 12.759 27.667 12.8484C27.6184 12.855 27.5699 12.871 27.5083 12.8809C27.5893 12.842 27.6378 12.842 27.7252 12.7224C27.6282 12.7061 27.3498 12.6899 27.2785 12.6673C27.3011 12.6285 27.3756 12.5248 27.437 12.4764C27.4921 12.428 27.4306 12.4124 27.3822 12.4376C27.2988 12.4943 27.2188 12.5558 27.1426 12.6219C27.0618 12.6931 26.9905 12.7902 26.861 12.8779C26.8222 12.7484 26.8286 12.5024 26.9809 12.3245C26.9419 12.3309 26.8674 12.4442 26.7964 12.4216C26.7835 12.3035 26.7912 12.1841 26.819 12.0687C26.8578 11.923 27.0682 11.6674 27.0682 11.6674L28.0843 9.85174L28.301 8.47638L25.9742 8.92843V8.92886Z" fill="#92723A"/>
<path id="Dogecoin (DOGE)_69" fill-rule="evenodd" clip-rule="evenodd" d="M25.9194 9.0065C25.9194 9.0065 25.8644 9.04533 25.9744 9.11978C25.9582 9.14239 25.9194 9.22325 25.8708 9.27829C25.8159 9.34229 25.7575 9.38197 25.7349 9.43701C25.6864 9.55029 25.6476 9.62794 25.6476 9.67658C25.6476 9.72522 25.6314 10.0358 25.4955 10.2364C25.4469 10.3076 25.3918 10.4273 25.353 10.5082C25.2721 10.6504 25.2009 10.7642 25.1847 10.8282C25.1525 10.9414 25.1299 11.252 25.1299 11.252C25.1299 11.252 25.2011 11.1646 25.2269 11.1324C25.1879 11.2132 25.1459 11.3005 25.0844 11.3653C25.1232 11.3329 25.2365 11.252 25.4275 11.0837C25.6928 10.8606 26.1071 10.4851 26.6121 10.1877C26.4598 10.2428 26.3305 10.2428 26.227 10.259C26.3079 10.1781 27.036 9.32373 27.4179 9.24287C27.441 9.21347 27.4526 9.17656 27.4503 9.13919L27.1232 9.10698L26.4598 9.24927L26.3629 8.73727L25.9194 9.00586V9.0065Z" fill="#B18E3E"/>
<path id="Dogecoin (DOGE)_70" fill-rule="evenodd" clip-rule="evenodd" d="M26.9745 11.9191C26.9745 11.9191 26.8871 12.0064 26.8062 12.2234C26.744 12.1584 26.6906 12.0854 26.6475 12.0064C26.5278 11.8059 26.3435 11.5501 25.913 11.6958C25.9066 11.5599 25.8968 11.4886 25.913 11.3916C25.9842 11.3756 26.201 11.2008 26.4177 10.9451C26.5701 10.7703 26.7124 10.5696 26.8094 10.314C26.8734 10.2654 26.9841 10.1845 27.1294 10.0907C27.3366 9.94837 27.5857 9.75402 27.6246 9.53727C27.5275 9.5761 27.3204 9.67317 27.0095 9.65717C27.1294 9.60213 27.3137 9.54389 27.2911 9.30431C27.3398 9.27189 27.3786 9.24927 27.3786 9.24927C27.3421 9.23711 27.3037 9.23161 27.2653 9.23306C27.2587 9.21045 27.2491 9.17823 27.1941 9.19423C27.139 9.21023 27.1301 9.21045 27.1228 9.23306C27.1002 9.23967 27.0257 9.23306 26.9707 9.2721C26.9157 9.31114 26.7636 9.44021 26.7053 9.46282C26.7279 9.42399 26.7601 9.36597 26.7601 9.36597C26.7601 9.36597 26.6016 9.38197 26.4884 9.42997C26.2812 9.50122 26.0418 9.63071 25.7991 9.75679C25.8217 9.71797 25.8315 9.69279 25.8475 9.68554C25.8635 9.67829 25.9025 9.66954 25.9025 9.66293C25.9025 9.65631 25.8865 9.59893 25.8961 9.57567C25.9687 9.42191 26.0544 9.27467 26.1521 9.13557C26.2654 8.98325 26.288 8.7665 26.288 8.7665L26.7832 8.51733L28.1748 8.19733L29.0778 8.25237L28.9645 8.87701L28.4312 9.96757L27.9749 10.9611L27.4537 11.5697L26.9748 11.9191H26.9745Z" fill="#543E26"/>
<path id="Dogecoin (DOGE)_71" fill-rule="evenodd" clip-rule="evenodd" d="M29.2301 9.216C29.2301 9.216 28.6863 9.88906 28.5342 9.99274C28.6313 9.7856 29.2301 8.55253 29.4469 8.20949C29.3984 8.17066 29.3336 8.17066 29.4857 7.56949C29.3564 7.87349 29.311 8.03221 29.2043 8.11306C29.0976 8.19392 29.0844 8.1681 29.0123 8.1681C29.0259 8.14347 29.0315 8.11521 29.0283 8.08725C29.0283 8.08725 28.572 8.03221 28.2603 8.03221C27.9486 8.03221 27.3317 8.20053 26.9884 8.33642C26.7166 8.4497 26.5645 8.4497 26.4675 8.52074C26.3704 8.6016 26.3154 8.68906 26.2667 8.71168C26.2279 8.73429 26.0436 8.79253 26.0013 8.85397C25.9625 8.91797 25.8979 8.98986 25.8979 9.00608C25.8979 9.02229 25.8816 9.04512 25.9303 9.02869C25.9463 9.02229 26.0662 8.95744 26.2021 8.87658C26.3864 8.77312 26.6098 8.65344 26.7717 8.58218C27.2344 8.39765 27.3801 8.43008 27.587 8.39125C27.8038 8.35242 28.1146 8.26176 28.3215 8.26176C28.5287 8.25536 28.9204 8.26176 29.011 8.27797C28.9722 8.3104 28.9398 8.34922 28.956 8.48512C28.956 8.52394 28.9236 8.56597 28.892 8.65984C28.7951 8.92522 28.6106 9.36533 28.508 9.58869C28.3657 9.89269 28.204 10.1485 28.124 10.307C28.044 10.4655 27.868 10.883 27.6937 11.1063C27.5194 11.3297 27.4283 11.4656 27.3737 11.5142C27.3191 11.5629 26.927 11.8507 26.9562 11.9543C27.0275 11.9317 27.4774 11.7623 27.804 11.3946C28.1306 11.0268 28.1957 10.8023 28.4512 10.6016C28.7068 10.4008 28.9076 10.0644 29.0272 9.78624C29.1275 9.52725 29.1049 9.4464 29.231 9.21664L29.2301 9.216Z" fill="#806031"/>
<path id="Dogecoin (DOGE)_72" fill-rule="evenodd" clip-rule="evenodd" d="M17.5117 14.2396C17.5117 14.2396 17.4405 14.534 17.2786 14.6797C17.1201 14.8222 16.8385 14.9451 16.8062 15.1846C16.7674 15.424 17.0878 15.5439 17.0878 15.5439C17.0878 15.5439 16.9129 15.8319 16.9129 16.0486C16.9129 16.272 16.9065 16.314 16.9291 16.5276C16.9035 16.5441 16.8816 16.5659 16.8651 16.5916C16.8651 16.5916 16.8811 16.7987 17.0398 16.928C17.1986 17.0573 17.3342 17.1351 17.4151 17.1027C17.4274 17.1291 17.4383 17.1562 17.4475 17.1838C17.4475 17.1838 17.5674 16.8796 17.6483 16.6142C17.7291 16.3424 17.8004 16.381 17.8326 16.0154C17.8648 15.6497 18.2166 15.0219 18.2166 15.0219L18.4566 14.4853L18.0651 14.1811L17.5117 14.2394V14.2396Z" fill="#B6903C"/>
<path id="Dogecoin (DOGE)_73" fill-rule="evenodd" clip-rule="evenodd" d="M18.2398 14.7669C18.1591 14.8498 18.0846 14.9385 18.0169 15.0323C17.9134 15.1748 17.8326 15.3041 17.6805 15.3594C17.5284 15.4146 17.4313 15.4142 17.4409 15.5665C17.4505 15.7188 17.593 15.7833 17.6739 15.8609C17.7613 15.9418 17.8326 16.0777 17.7938 16.23C17.8422 16.2074 17.9296 16.1813 18.0105 16.0066C18.0914 15.8319 18.6569 14.7672 18.6569 14.7672H18.2398V14.7669Z" fill="#685026"/>
<path id="Dogecoin (DOGE)_74" fill-rule="evenodd" clip-rule="evenodd" d="M20.4702 12.3106C20.4702 12.3106 20.5187 12.1813 20.4702 12.0875C20.4216 11.9904 20.1272 11.958 19.9815 11.8479C19.8294 11.7346 19.6448 11.6559 19.4927 11.7056C19.5154 11.6506 19.606 11.5307 19.5316 11.5049C19.4603 11.4822 19.1951 11.6019 19.1239 11.657C19.0526 11.712 18.8907 11.7766 18.8585 11.8157C18.8263 11.8547 18.771 11.929 18.7386 11.8965C18.7062 11.8739 18.6902 11.8157 18.6351 11.8479C18.5801 11.8801 18.3151 12.0971 18.2663 12.2234C18.2174 12.3497 18.1076 12.6313 17.7775 12.9515C17.4475 13.2717 17.305 13.479 17.4021 13.5987C17.4991 13.7184 17.5446 13.6311 17.5608 13.7346C17.5733 13.8362 17.5678 13.9392 17.5446 14.0388C17.5058 14.2071 17.4411 14.3657 17.5284 14.3981C17.7517 14.4693 17.9687 14.3341 18.0171 14.3755C18.1142 14.4627 17.9621 14.7767 18.1918 14.8382C18.425 14.9022 18.6548 14.7831 18.6548 14.7831L19.5026 14.3268L20.3181 13.8965L20.7354 13.0711L20.5116 12.3819L20.469 12.3106H20.4702Z" fill="#D4B968"/>
<path id="Dogecoin (DOGE)_75" fill-rule="evenodd" clip-rule="evenodd" d="M19.6702 14.2816C19.6702 14.2816 19.5277 14.0649 19.7026 13.8737C19.8776 13.6826 20.1265 13.6019 20.2236 13.4822C20.2051 13.4594 20.1803 13.4426 20.1523 13.4338C20.2168 13.3185 20.3151 13.2258 20.4339 13.1682C20.3855 13.1198 20.3207 13.081 20.2496 13.081C20.0909 13.081 19.9936 13.178 19.8481 13.178C19.7058 13.178 19.6896 13.1068 19.6896 13.1068C19.6896 13.1068 19.9292 13.0842 19.9064 12.9773C19.8837 12.864 19.8424 12.864 19.8424 12.864C19.8424 12.864 20.3051 12.672 20.3859 12.5696C20.4668 12.4672 20.4572 12.3462 20.4734 12.2978C20.5282 12.2978 20.8487 12.1295 20.9781 12.2007C21.1076 12.272 21.017 12.4661 21.017 12.4661C21.017 12.4661 21.4089 12.1715 21.6085 11.8827C21.7833 11.8989 21.8645 11.763 21.9925 11.763C22.1513 11.763 22.4004 11.9797 22.4489 12.4425C22.4813 12.7078 22.5297 12.8599 22.4813 13.3293C22.4587 13.5947 22.4651 14.1613 22.5453 14.4425C22.6001 14.6658 22.7296 14.6432 22.7296 14.6432C22.7097 14.7113 22.6704 14.772 22.6163 14.8179C22.5289 14.8988 22.5193 15.1125 22.5289 15.1934C22.5418 15.2525 22.558 15.3108 22.5775 15.3681C22.5775 15.3681 22.474 15.4878 22.448 15.5689C22.4254 15.6497 22.3187 15.7047 22.2409 15.7047C22.163 15.7047 22.202 15.6981 22.0986 15.7047C21.9951 15.7114 21.9627 15.7274 21.8978 15.7047C21.833 15.6821 21.7845 15.6561 21.8106 15.4487C21.8332 15.2416 21.0112 14.7595 21.0112 14.7595L19.6672 14.2805L19.6702 14.2816Z" fill="#CCA849"/>
<path id="Dogecoin (DOGE)_76" fill-rule="evenodd" clip-rule="evenodd" d="M18.1266 16.3268C18.1266 16.3268 18.421 16.7185 19.6314 16.7185C20.2074 16.7185 20.4082 16.6635 20.5274 16.631C20.6569 16.5986 21.1422 16.4079 21.631 15.8317C22.0711 15.3107 21.974 15.0972 21.974 15.0972L21.718 15.0583L20.886 15.1716L18.4242 16.2202L18.1255 16.3268H18.1266Z" fill="#585136"/>
<path id="Dogecoin (DOGE)_77" fill-rule="evenodd" clip-rule="evenodd" d="M19.0294 16.4239C19.0294 16.4239 17.9808 16.6571 17.9808 15.9936C17.9808 15.3463 18.6281 14.6667 18.79 14.547C18.9583 14.4271 19.3596 14.291 19.3596 14.291H20.3273L20.5116 14.7797L20.4308 15.8347L19.0294 16.4237V16.4239Z" fill="#252211"/>
<path id="Dogecoin (DOGE)_78" fill-rule="evenodd" clip-rule="evenodd" d="M19.9971 14.4887C19.9971 14.4887 19.7965 14.3042 19.3402 14.5527C18.8839 14.8013 18.5148 15.3207 18.4922 15.7924C18.4696 16.2097 18.8352 16.5205 19.4048 16.5367C19.8287 16.5527 20.0845 16.5043 20.214 16.4727C20.1816 16.4339 20.0133 16.2236 20.0133 16.2236L19.9973 14.489L19.9971 14.4887Z" fill="#C3B378"/>
<path id="Dogecoin (DOGE)_79" fill-rule="evenodd" clip-rule="evenodd" d="M19.7997 14.592C19.7997 14.592 19.7513 14.5532 19.6077 14.6308C19.488 14.6948 19.3133 14.864 19.1774 14.9837C19.0899 15.0549 19.0349 15.0871 18.9854 15.1422C18.7846 15.3818 18.6163 15.7734 18.7136 15.9676C18.8109 16.1617 19.1311 16.3851 19.9467 16.233L19.7973 14.5922L19.7997 14.592Z" fill="#E6D89C"/>
<path id="Dogecoin (DOGE)_80" fill-rule="evenodd" clip-rule="evenodd" d="M19.5343 14.9935C19.5343 14.9935 19.4049 15.1942 19.4049 15.5147C19.4049 15.8415 19.5894 16.3625 20.2691 16.4013C20.79 16.4337 21.1395 15.6506 21.5181 15.3464C21.8061 15.1134 21.9809 15.1068 21.9809 15.1068C21.9809 15.1068 21.6865 14.7868 20.9001 14.3723C20.1234 13.9548 19.2527 13.8997 18.7802 14.5406C19.0036 14.5244 19.7253 14.3398 19.7253 14.3398L20.0781 14.4531L19.5343 14.9937V14.9935Z" fill="#252211"/>
<path id="Dogecoin (DOGE)_81" fill-rule="evenodd" clip-rule="evenodd" d="M20.5504 15.4174C20.5278 15.369 20.5116 15.3041 20.6055 15.2881C20.6993 15.2721 20.7414 15.2815 20.7738 15.3521C20.8062 15.4227 20.8378 15.4816 20.7898 15.5108C20.7414 15.5366 20.6151 15.5108 20.5502 15.417L20.5504 15.4174ZM20.3983 14.9611C20.3983 14.9611 20.3659 14.9837 20.3821 14.9385C20.3885 14.8836 20.4307 14.7864 20.5342 14.8092C20.6377 14.832 20.6153 14.9451 20.5982 14.9775C20.5811 15.0099 20.4947 15.0648 20.4299 15.0415C20.4132 15.0372 20.3996 15.0253 20.3932 15.0093C20.3868 14.9933 20.3884 14.9753 20.3975 14.9606L20.3983 14.9611Z" fill="#6F674D"/>
<path id="Dogecoin (DOGE)_82" fill-rule="evenodd" clip-rule="evenodd" d="M11.6382 15.168C11.6382 15.168 11.8942 15.36 12.1916 15.3525C12.486 15.3459 12.8647 15.0419 13.0394 14.8476C13.1429 14.7343 13.2314 14.6146 13.3274 14.5207C13.4085 14.4399 13.4633 14.4011 13.5021 14.346C13.5572 14.282 13.6154 14.1617 13.6446 14.1227C13.5734 14.1777 13.4699 14.275 13.363 14.3396C13.2596 14.4036 13.0362 14.5239 12.9456 14.5564C12.8583 14.5888 11.9521 15.0684 11.9521 15.0684L11.6382 15.168Z" fill="#AC924C"/>
<path id="Dogecoin (DOGE)_83" fill-rule="evenodd" clip-rule="evenodd" d="M12.0295 12.7767C12.0295 12.7767 12.1718 12.6797 12.447 12.618C12.7124 12.554 13.2463 12.5047 13.2463 12.5047L13.6864 12.6967L13.8612 13.3602L13.5412 14.0497L13.1335 14.3057L12.6705 13.5614L12.0305 12.778L12.0295 12.7767Z" fill="#9F8E57"/>
<path id="Dogecoin (DOGE)_84" fill-rule="evenodd" clip-rule="evenodd" d="M11.4535 13.369L11.3011 13.4827C11.3011 13.4827 11.3402 13.4114 11.3724 13.1947C11.4046 12.9779 11.5731 12.4503 11.8191 12.1461C12.0651 11.8419 12.0587 11.8581 12.0587 11.8581C12.0129 11.8498 11.9657 11.8615 11.9292 11.8903C11.9616 11.8187 12.1688 11.5627 12.3759 11.4347C12.5831 11.3067 12.6639 11.2663 12.8807 11.3707C13.0974 11.475 13.1525 11.5292 13.3112 11.5228C13.4699 11.5164 13.6056 11.3481 13.6056 11.3481C13.6056 11.3481 13.638 11.4515 13.5183 11.6911C13.3986 11.9307 12.9261 12.4192 12.9261 12.4192L11.9422 13.0923L11.4535 13.3696V13.369Z" fill="#EAC970"/>
<path id="Dogecoin (DOGE)_85" fill-rule="evenodd" clip-rule="evenodd" d="M12.1813 12.6959C12.1813 12.6959 12.8934 12.793 13.1102 12.5924C13.1166 12.615 13.1426 12.615 13.1426 12.6313C13.1409 12.6435 13.1352 12.6548 13.1264 12.6635C13.15 12.6597 13.1738 12.6576 13.1977 12.6571C13.2262 12.6656 13.2555 12.671 13.2851 12.6733C13.309 12.6728 13.3328 12.6706 13.3564 12.6667C13.3518 12.6992 13.3343 12.7284 13.3077 12.7477C13.3402 12.7477 13.3717 12.7541 13.3717 12.78C13.3717 12.8058 13.3781 12.8836 13.3393 12.8998C13.3071 12.9087 13.2729 12.9064 13.2422 12.8932C13.2448 12.9545 13.2615 13.0144 13.2909 13.0682C13.3549 13.1878 13.4914 13.3242 13.6749 13.2849C13.6749 13.2849 13.7717 13.5179 13.3641 14.0356C13.3092 14.1069 13.2508 14.204 13.1797 14.2848C13.1517 14.346 13.1302 14.41 13.1157 14.4757C13.1157 14.4757 13.8052 14.2104 14.0026 13.6051C14.2033 12.9967 14.2421 12.3981 14.2033 11.8383C14.1967 11.6796 14.1709 11.5665 14.1321 11.4854C14.035 11.2847 13.763 11.3171 13.6531 11.4304C13.4944 11.5891 13.229 11.9838 12.8602 12.2556C12.4847 12.5274 12.4687 12.5756 12.1805 12.6959H12.1813Z" fill="#D7BC6B"/>
<path id="Dogecoin (DOGE)_86" fill-rule="evenodd" clip-rule="evenodd" d="M11.3272 13.5697C11.3272 13.5697 11.1913 13.6506 11.1201 13.9537C11.0488 14.2643 11.1841 14.643 11.2624 14.7627C11.3406 14.8823 11.5184 15.2094 11.887 15.2256C11.9782 15.2251 12.0685 15.2064 12.1524 15.1706C12.2811 15.1116 12.4018 15.0365 12.5116 14.9472C12.6704 14.8275 12.7996 14.7241 12.7834 14.7142C12.7446 14.698 11.8061 13.9213 11.8061 13.9213L11.4533 13.5275L11.327 13.5701L11.3272 13.5697Z" fill="#585136"/>
<path id="Dogecoin (DOGE)_87" fill-rule="evenodd" clip-rule="evenodd" d="M12.2142 14.8576C12.2142 14.8576 12.4052 14.8416 12.5184 14.7703C12.6317 14.6991 11.855 13.929 11.855 13.929L11.91 14.761L12.2142 14.8576Z" fill="#453A25"/>
<path id="Dogecoin (DOGE)_88" fill-rule="evenodd" clip-rule="evenodd" d="M11.3886 13.5113C11.3886 13.5113 11.2915 13.6958 11.2915 13.7444C11.2753 13.9029 11.324 14.4013 11.3628 14.5598C11.4016 14.7281 11.612 14.9837 11.884 14.9837C12.0521 14.9837 12.2852 14.8802 12.2852 14.8544C12.2852 14.822 12.0457 14.7904 11.981 14.6699C11.9422 14.6059 11.926 14.4467 11.917 14.2859C11.9106 14.1824 11.9106 14.0691 11.9495 14.0299C12.0369 13.9328 12.0529 13.6544 12.0529 13.6544L12.3635 13.0773H11.955L11.4663 13.3815L11.3886 13.5113Z" fill="#84754B"/>
<path id="Dogecoin (DOGE)_89" fill-rule="evenodd" clip-rule="evenodd" d="M11.2689 13.6894C11.2689 13.6894 11.5889 13.2655 11.8773 13.1682C12.1658 13.0709 12.2948 13.1294 12.2948 13.1294L12.1265 13.5599L11.8869 13.8253L11.9032 13.9612C11.9032 13.9612 11.8641 14.3204 12.1037 14.5696C12.3433 14.8188 12.5212 14.8092 12.6249 14.8092C12.7285 14.8092 13.0261 14.7217 13.1783 14.3624C13.3141 14.026 13.4274 13.5944 13.1556 13.1618C12.89 12.7313 12.4209 12.7147 12.3303 12.7147C12.2396 12.7147 11.5277 12.7503 11.2689 13.6887V13.6894Z" fill="#252211"/>
<path id="Dogecoin (DOGE)_90" fill-rule="evenodd" clip-rule="evenodd" d="M19.4857 15.1294C19.366 15.0744 19.4793 14.7379 19.599 14.6342C19.7186 14.5306 19.8708 14.4111 20.1364 14.3947C20.2332 14.3883 20.3271 14.4497 20.3111 14.5146C20.2885 14.6342 20.1201 14.8026 19.968 14.9222C19.7577 15.0874 19.6216 15.1908 19.4857 15.1294Z" fill="#F7F7E7"/>
<path id="Dogecoin (DOGE)_91" fill-rule="evenodd" clip-rule="evenodd" d="M13.0132 13.2945C13.1006 13.2881 13.2139 13.3585 13.2365 13.4532C13.2592 13.5567 13.1815 13.7638 13.0132 13.7638C12.8773 13.7638 12.806 13.5955 12.806 13.5471C12.8076 13.5073 12.8187 13.4684 12.8385 13.4338C12.8449 13.424 12.8611 13.3107 13.0132 13.2945Z" fill="#F8F6DE"/>
<path id="Dogecoin (DOGE)_92" fill-rule="evenodd" clip-rule="evenodd" d="M11.751 13.369C11.751 13.369 11.5277 13.4724 11.4242 13.689C11.3503 13.8489 11.3279 14.0278 11.3602 14.201C11.3764 14.2818 11.4573 14.4823 11.5123 14.5536C11.5674 14.6249 11.6418 14.6735 11.6969 14.6669C11.7519 14.6603 11.865 14.5148 11.865 14.4275C11.865 14.3403 11.8716 13.9712 11.9782 13.7705C12.0721 13.5699 11.7517 13.3692 11.7517 13.3692L11.751 13.369Z" fill="#D4C38B"/>
<path id="Dogecoin (DOGE)_93" fill-rule="evenodd" clip-rule="evenodd" d="M11.7835 13.3527C11.7447 13.3754 11.68 13.4078 11.696 13.4498C11.7123 13.4886 11.8481 13.5138 11.8968 13.6085C11.9518 13.7056 11.9518 13.8091 11.9356 13.8577C11.9779 13.8376 12.0162 13.8102 12.0489 13.7766C12.1201 13.6958 12.2074 13.5859 12.2819 13.5859C12.3305 13.5859 12.3789 13.6085 12.4244 13.6085C12.4956 13.6085 12.5667 13.5859 12.5765 13.5115C12.5925 13.4144 12.4406 13.3269 12.3531 13.3431C12.3693 13.2791 12.3919 13.1846 12.3207 13.1198C12.2494 13.0549 12.0263 13.1684 11.9776 13.2009C11.929 13.2333 11.7835 13.353 11.7835 13.353V13.3527Z" fill="#E2D59D"/>
<path id="Dogecoin (DOGE)_94" fill-rule="evenodd" clip-rule="evenodd" d="M16.9259 20.1521L17.4048 20.0107L17.5407 20.1077C17.5407 20.1077 17.6375 20.3149 17.7899 20.3407C17.7412 20.4442 17.6149 20.5327 17.6215 20.6061C17.6282 20.6795 17.6928 20.7356 17.6928 20.7356C17.6928 20.7356 17.2623 21.4475 18.1103 22.1649C17.9095 22.2458 17.654 22.3569 17.5181 22.4209C17.6149 22.4435 17.8221 22.4849 17.9095 22.5634C17.997 22.6419 17.997 22.6669 18.0779 22.7155C18.1587 22.7642 18.2071 22.8288 18.1911 22.8578C18.1361 22.8254 17.9516 22.7285 17.9194 22.819C17.8871 22.9094 17.12 22.874 17.12 22.874L15.8255 23.1232C15.8255 23.1232 15.8739 22.9937 15.738 22.874C15.5795 22.7317 15.3854 22.8804 15.1782 22.7219C14.9065 22.5148 14.8966 22.2752 14.8094 22.1847C14.8966 22.1297 15.0748 22.0489 15.4987 21.9927C15.4825 21.9603 15.4274 21.8633 15.4598 21.776C15.4987 21.6627 15.6604 21.5915 15.6119 21.456C15.6832 21.4398 15.7154 21.4398 15.8935 21.2164C16.0619 20.9931 16.1653 20.9446 16.2948 20.9284C16.4243 20.9122 16.502 20.9284 16.7415 20.7051C16.9097 20.5466 16.8548 20.4107 16.8548 20.4107C16.8548 20.4107 16.9647 20.375 16.9261 20.1517L16.9259 20.1521Z" fill="#CBAC5A"/>
<path id="Dogecoin (DOGE)_95" fill-rule="evenodd" clip-rule="evenodd" d="M15.5117 20.224C15.5181 20.1916 15.5442 20.1754 15.7189 20.1916C15.8936 20.2078 17.0004 20.0881 17.3014 20.0719C17.6056 20.0493 18.6767 20.0653 19.1979 20.1754C19.7191 20.2854 20.2465 20.4149 20.502 20.4796C20.758 20.5508 20.8387 20.5764 20.8289 20.6088C20.8225 20.6413 20.7649 20.6728 20.7318 20.6639C20.6996 20.6575 19.8516 20.3985 19.5896 20.3439C19.3276 20.2893 18.4212 20.1431 17.9256 20.1519C17.4629 20.1585 17.2783 20.1455 16.8869 20.1907C16.4952 20.2394 15.8479 20.304 15.6538 20.2782C15.4618 20.2556 15.5015 20.2556 15.5113 20.2231L15.5117 20.224Z" fill="#D6BC6F"/>
<path id="Dogecoin (DOGE)_96" fill-rule="evenodd" clip-rule="evenodd" d="M18.1167 22.7605C18.1167 22.7605 18.7802 23.1198 19.0198 23.5599C19.1945 23.8867 18.9163 24.0486 18.9163 24.0486C18.9163 24.0486 19.2918 24.0486 19.2431 24.2558C19.2205 24.3851 18.5959 24.7345 18.1784 24.919C17.7545 25.1036 17.7707 25.094 17.5636 25.1262C17.3628 25.1586 16.8126 25.0622 16.6993 25.2233C16.5861 25.3843 16.6353 25.5503 16.6669 25.5761C16.6993 25.5987 16.9615 25.6311 16.9615 25.6311C16.9615 25.6311 16.9065 25.7833 16.3629 25.7995C15.8193 25.8157 15.6832 25.8543 15.6508 25.9127C15.6184 25.9676 15.7543 25.9354 16.0037 25.9767C16.2528 26.0156 16.6023 26.0407 16.6023 26.0407C16.6023 26.0407 16.489 26.1378 16.1946 26.2155C15.858 26.3027 15.3304 26.3838 15.1719 26.4809C15.2527 26.5359 15.3726 26.6167 15.4279 26.6231C15.292 26.6556 15.1008 26.7268 15.0686 26.7526C15.1171 26.7851 15.1819 26.8239 15.1819 26.8239C15.1819 26.8239 14.9099 27.1507 14.7514 27.2318C14.5929 27.3129 13.6803 27.7365 13.3662 27.6557C12.5831 27.4485 12.486 26.5909 12.2951 26.5263C12.0071 26.4292 11.8712 26.6231 11.6154 26.4873C11.7287 26.4064 11.7903 26.358 11.91 26.3029C11.7805 26.2389 11.1107 25.8142 11.1107 25.8142C11.0406 25.6615 10.9629 25.5125 10.8777 25.3677C10.7482 25.1443 10.5577 24.8465 10.4148 24.5843C10.1041 24.0083 10.0879 23.7429 9.80634 23.4161C9.85498 23.3521 10.0231 23.3611 10.0231 23.3611L12.3825 24.1378L16.5662 24.259L17.6542 22.7057L18.1169 22.7607L18.1167 22.7605Z" fill="#DFC677"/>
<path id="Dogecoin (DOGE)_97" fill-rule="evenodd" clip-rule="evenodd" d="M11.9194 25.1294C11.9446 25.1575 11.974 25.1815 12.0066 25.2006C12.0877 25.2557 12.2074 25.3205 12.2882 25.4174C12.3207 25.369 12.4015 25.2815 12.5442 25.4174C12.6869 25.5533 12.8642 25.4564 12.9745 25.4886C13.0878 25.5277 13.0942 25.5437 13.0942 25.5437C13.0942 25.5437 13.1582 25.4886 13.3013 25.4304C13.3888 25.398 13.4923 25.3754 13.6056 25.3431C13.709 25.3205 13.8223 25.2881 13.9002 25.2881C13.9714 25.3365 14.227 25.6081 15.2529 25.2073C16.2206 24.8318 16.4437 24.7898 16.6057 24.8478C16.6219 24.809 16.6381 24.7345 16.8873 24.7443C16.8873 24.6409 16.6801 24.288 16.6801 24.288L15.5377 23.8965H14.9129L13.0392 24.2396L12.0009 24.832L11.92 25.1307L11.9194 25.1294Z" fill="#C4A859"/>
<path id="Dogecoin (DOGE)_98" fill-rule="evenodd" clip-rule="evenodd" d="M11.2947 24.4725C11.2947 24.4725 11.3174 24.6473 11.5763 24.8318C11.8323 25.0161 11.9128 25.1262 11.9128 25.1262C11.9128 25.1262 11.9614 25.0622 12.0002 24.9969C12.0391 24.9257 12.0715 24.8448 12.1361 24.8222C12.2656 24.7672 12.56 24.8706 12.6249 24.8544C12.6799 24.8384 12.6637 24.7251 12.7219 24.7251C12.8578 24.7185 12.9451 24.8124 12.9937 24.8124C13.0424 24.8124 13.1618 24.806 13.178 24.7802C13.1943 24.7544 13.2007 24.4856 13.3852 24.3561C13.5859 24.2138 13.8319 24.2752 13.8972 24.3076C13.8972 24.3561 13.9036 24.476 14.0331 24.4824C14.1626 24.4888 14.1754 24.4661 14.2891 24.505C14.4028 24.5438 14.5383 24.4986 14.5997 24.6893C14.6547 24.6733 14.7842 24.6571 14.7518 24.4725C14.8158 24.4241 14.8717 24.3917 15.0078 24.2008C15.0402 24.1523 15.0951 24.0973 15.1373 24.026C15.2506 24.026 15.3865 24.0034 15.5676 24.1619C15.5126 24.2008 15.4801 24.2259 15.4641 24.2654C15.5115 24.3123 15.5547 24.3632 15.5934 24.4175C15.642 24.4815 15.6745 24.56 15.7359 24.5762C15.8718 24.615 16.0952 24.56 16.3443 24.5762C16.5839 24.5924 16.7844 24.6797 16.8719 24.7347C16.9043 24.7187 16.9043 24.7121 16.9852 24.7283C17.066 24.7445 17.1275 24.7509 17.0402 24.6475C17.0887 24.6701 17.1437 24.7187 17.1923 24.6701C17.241 24.6214 17.2796 24.5504 17.4155 24.5342C17.5514 24.518 17.6 24.5406 17.6551 24.3983C17.7263 24.2236 17.4803 24.2236 17.4803 24.2236C17.4803 24.2236 17.5936 24.1199 17.7199 23.984C17.872 23.8417 18.0467 23.6572 18.0888 23.4306C18.16 23.0131 17.7523 22.9583 17.7523 22.9583L15.775 23.5667L13.3575 23.4468L11.296 24.4728L11.2947 24.4725Z" fill="#927D49"/>
<path id="Dogecoin (DOGE)_99" fill-rule="evenodd" clip-rule="evenodd" d="M9.51813 18.7605C9.51813 18.7605 9.45413 18.8414 9.41466 19.0323C9.3752 19.2233 9.39205 19.2006 9.35962 19.3365C9.3272 19.4724 8.9289 20.8252 9.07824 21.2815C9.22757 21.7378 9.48613 21.9061 9.64784 22.275C9.68026 22.3558 9.71184 22.4045 9.72869 22.4757C9.78373 22.7151 9.7353 22.8996 9.79994 23.1392C9.82256 23.2201 9.88101 23.3139 9.96826 23.411C10.1603 23.6115 10.4732 23.8025 10.6083 23.9383C10.799 24.1391 11.071 24.547 11.4172 24.5856C11.6018 24.6082 11.8639 24.5306 12.0807 24.4013C12.2727 24.2814 12.3913 24.1133 12.5927 24.0173C12.735 23.946 12.8871 23.9202 13.023 23.8878C13.3046 23.8327 13.5604 23.8238 13.7125 23.8554C13.9454 23.904 14.4956 24.0723 14.8005 24.0723C15.0387 24.0685 15.2756 24.0359 15.506 23.9753C15.9687 23.8394 16.5285 23.6062 16.8975 23.5027C17.1143 23.4387 17.289 23.4219 17.4671 23.383C17.7714 23.3118 18.0269 23.2147 18.1726 23.0302C18.0756 22.9169 17.9559 22.7422 17.3084 22.7486C16.5739 22.7648 15.7259 23.1725 15.3084 23.2373C14.8909 23.3022 14.7098 23.357 14.2437 23.1887C13.7867 23.0187 13.7716 22.9062 13.7716 22.9062C13.7716 22.9062 13.2918 22.5707 13.091 21.7152C12.8903 20.8597 13.091 20.2364 13.6122 19.6439C13.7481 19.4918 13.7157 19.3559 13.7157 19.3559C13.7157 19.3559 14.0587 18.8932 13.9649 18.4599C13.8614 18.0294 13.1979 18.1169 13.1979 18.1169L9.51834 18.7605H9.51813Z" fill="#6E6342"/>
<path id="Dogecoin (DOGE)_100" fill-rule="evenodd" clip-rule="evenodd" d="M10.0715 20.2007C10.043 20.2544 10.0295 20.3148 10.0327 20.3755C10.0391 20.4627 10.0651 20.576 10.3271 20.8318C10.5504 21.0549 10.5018 21.3041 10.5018 21.3041C10.5018 21.3041 10.6142 21.3267 10.9193 21.184C11.1589 21.0707 11.2393 21.2715 11.2393 21.2715C11.309 21.2349 11.3846 21.2108 11.4626 21.2002C11.5333 21.1937 11.6018 21.1719 11.6632 21.1362C11.6632 21.1362 11.9448 21.4242 12.1908 21.5601C12.4141 21.68 12.5436 21.7609 12.6537 21.68C12.7572 21.6087 12.7572 21.463 12.7505 21.3984C12.7249 21.3387 12.6924 21.2823 12.6537 21.2301C12.5824 21.1266 12.4692 21.0067 12.4617 20.9101C12.4455 20.6869 12.63 20.4213 12.591 20.3567C12.5519 20.2921 12.4066 20.2758 12.0474 20.4053C11.6753 20.5282 10.07 20.2014 10.07 20.2014L10.0715 20.2007Z" fill="#39331F"/>
<path id="Dogecoin (DOGE)_101" fill-rule="evenodd" clip-rule="evenodd" d="M10.9193 21.6474C10.9193 21.6474 10.7349 21.4726 10.7996 20.6246C10.8778 20.6235 10.956 20.6311 11.0325 20.6473C11.0325 20.6473 11.133 21.3043 10.9193 21.6474Z" fill="#292311"/>
<path id="Dogecoin (DOGE)_102" fill-rule="evenodd" clip-rule="evenodd" d="M9.60559 18.1133C9.63131 18.0942 9.65517 18.0728 9.67684 18.0493C9.61284 18.169 9.31737 18.6479 9.55695 19.402C9.79652 20.1527 10.3983 20.7125 11.1395 20.7386C11.8806 20.7646 12.2701 20.4019 12.7156 19.8583C12.8903 19.6416 13.091 19.3696 13.2689 19.1853C13.5343 18.8971 13.7415 18.8162 13.7415 18.538C13.7415 17.9684 13.1589 17.7126 12.3013 17.4571C11.4437 17.2015 10.6701 17.2331 10.2688 17.408C9.87737 17.5987 9.70905 17.7995 9.60537 18.1135L9.60559 18.1133Z" fill="#252211"/>
<path id="Dogecoin (DOGE)_103" fill-rule="evenodd" clip-rule="evenodd" d="M12.3595 21.9029L12.4235 21.8705C12.4235 21.8705 12.4395 21.6145 12.5432 21.6213C12.6467 21.6375 12.6953 21.7737 12.6855 21.8221C12.6791 21.8705 12.6533 21.9516 12.5496 21.9418C12.4137 21.945 12.3589 21.9029 12.3589 21.9029H12.3595Z" fill="#3F3824"/>
<path id="Dogecoin (DOGE)_104" fill-rule="evenodd" clip-rule="evenodd" d="M12.0715 20.8156C12.0715 20.8156 12.1355 20.793 12.2138 20.8706C12.2778 20.8706 12.5568 20.8382 12.6443 20.8932C12.7317 20.9483 12.7576 20.9967 12.7576 20.9967C12.7576 20.9967 12.4307 21.068 12.2526 20.9967C12.0715 20.9353 12.0715 20.8156 12.0715 20.8156H12.0715Z" fill="#2D2815"/>
<path id="Dogecoin (DOGE)_105" fill-rule="evenodd" clip-rule="evenodd" d="M13.5117 20.864C13.5117 20.8478 13.337 20.7281 13.1525 20.6891C13.1201 20.6827 13.1134 20.7053 13.0885 20.7053C13.0723 20.6989 13.0659 20.6502 13.0659 20.6502L12.9609 20.7055C12.9609 20.7055 12.9447 20.7281 12.9997 20.7695C13.0482 20.8083 13.1292 20.8407 13.1518 20.9054C13.1745 20.97 13.1745 20.9926 13.1843 21.0025C13.1907 21.0089 13.3039 21.0025 13.359 20.97C13.414 20.9376 13.5177 20.8847 13.5111 20.8634L13.5117 20.864Z" fill="#82764F"/>
<path id="Dogecoin (DOGE)_106" fill-rule="evenodd" clip-rule="evenodd" d="M11.8774 21.5211C11.8774 21.5211 11.9096 21.2979 12.1266 21.2881C12.3497 21.2719 12.3919 21.4886 12.3919 21.4886L12.2624 21.6181C12.2624 21.6149 12.1654 21.479 11.8784 21.5211H11.8774Z" fill="#2D2816"/>
<path id="Dogecoin (DOGE)_107" fill-rule="evenodd" clip-rule="evenodd" d="M13.2852 20.5598C13.2852 20.5598 13.1653 20.6893 12.9001 20.7281C12.8775 20.6957 12.8289 20.631 12.9001 20.5276C12.9714 20.4241 13.0522 20.3917 13.1331 20.4239C13.2059 20.4357 13.2653 20.4887 13.2852 20.5598Z" fill="#574F35"/>
<path id="Dogecoin (DOGE)_108" fill-rule="evenodd" clip-rule="evenodd" d="M13.7737 20.7185C13.7803 20.6861 13.7577 20.6797 13.7737 20.6635C13.7897 20.6473 13.8774 20.615 13.8936 20.631C13.9 20.6377 13.8936 20.6635 13.8936 20.695C13.8936 20.7266 13.8936 20.759 13.8774 20.7823C13.8548 20.8147 13.7901 20.8309 13.7577 20.8213C13.7253 20.8117 13.7189 20.7663 13.7189 20.7573C13.7349 20.7509 13.7737 20.7347 13.7737 20.7185ZM14.3262 20.3691C14.3262 20.3529 14.3813 20.3204 14.4137 20.3204C14.4621 20.3204 14.4621 20.3593 14.4687 20.3691C14.4847 20.3755 14.4847 20.3625 14.501 20.3917C14.5172 20.4209 14.54 20.4725 14.5236 20.505C14.5071 20.5374 14.4427 20.5598 14.4267 20.5534C14.4041 20.5372 14.3328 20.3917 14.3262 20.3691Z" fill="#82764F"/>
<path id="Dogecoin (DOGE)_109" fill-rule="evenodd" clip-rule="evenodd" d="M13.2139 20.793C13.2139 20.793 13.2851 20.809 13.3822 20.89C13.3498 20.9126 13.3011 20.9384 13.3011 20.9384C13.3011 20.9384 13.2947 20.864 13.2139 20.7927V20.793Z" fill="#6E6342"/>
<path id="Dogecoin (DOGE)_110" fill-rule="evenodd" clip-rule="evenodd" d="M13.0554 20.0809C13.0392 20.0649 13.1038 20.0261 13.1427 20.0325C13.1815 20.0389 13.1977 20.0649 13.2397 20.0713C13.2818 20.0777 13.2884 20.0551 13.3037 20.0389C13.3191 20.0227 13.375 20.0325 13.3846 20.0389C13.3906 20.046 13.396 20.0535 13.4008 20.0615C13.4022 20.0366 13.4138 20.0134 13.433 19.9975C13.4582 19.979 13.4904 19.973 13.5205 19.9813C13.5269 20.0039 13.5593 20.0847 13.5529 20.1009C13.5465 20.1172 13.4494 20.14 13.433 20.1236C13.4492 20.1626 13.5205 20.2435 13.5301 20.2595C13.5397 20.2755 13.4588 20.3145 13.4266 20.3081C13.3814 20.3049 13.103 20.143 13.0546 20.0815L13.0554 20.0809ZM13.4794 19.5437C13.4734 19.5274 13.462 19.5137 13.447 19.5049C13.4244 19.4985 13.3499 19.5049 13.3499 19.5437C13.3499 19.5825 13.4139 19.7997 13.4858 19.9127C13.5669 20.026 13.6217 20.1197 13.6767 20.1457C13.7126 20.162 13.755 20.1479 13.7738 20.1133C13.7802 20.0971 13.7964 19.9774 13.79 19.6958C13.7836 19.4142 13.7738 19.1424 13.7576 19.1262C13.7414 19.11 13.6767 19.1102 13.6541 19.1424C13.6315 19.1746 13.4858 19.4953 13.4792 19.5437H13.4794Z" fill="#585136"/>
<path id="Dogecoin (DOGE)_111" fill-rule="evenodd" clip-rule="evenodd" d="M13.1913 21.2006C13.1913 21.2006 13.078 21.1294 12.9679 21.178C12.8645 21.2267 12.8709 21.4176 12.8709 21.4176C12.9181 21.4361 12.9715 21.43 13.0134 21.4014C13.0846 21.353 13.1751 21.2721 13.1913 21.2009V21.2006Z" fill="#574F35"/>
<path id="Dogecoin (DOGE)_112" fill-rule="evenodd" clip-rule="evenodd" d="M13.4048 21.4564C13.3984 21.3924 13.3408 21.3924 13.3408 21.3594C13.349 21.3268 13.3783 21.3041 13.4119 21.3043C13.4443 21.3043 13.4759 21.3431 13.5155 21.3683C13.5544 21.3909 13.6126 21.4323 13.619 21.4816C13.6254 21.5309 13.555 21.6659 13.4767 21.6659C13.3984 21.6659 13.4217 21.5202 13.4055 21.4556L13.4048 21.4564ZM14.0294 21.3689C14.0294 21.3689 13.8999 21.4078 13.9095 21.3689C13.9191 21.3301 13.9485 21.3205 13.9905 21.3205C14.0119 21.2982 14.0406 21.2843 14.0714 21.2815C14.089 21.2806 14.1063 21.2864 14.1198 21.2977C14.1198 21.2977 14.2073 21.2589 14.2331 21.2815C14.2589 21.3041 14.2397 21.3041 14.2557 21.3301C14.2761 21.359 14.2895 21.3922 14.2948 21.4272C14.2948 21.453 14.1977 21.508 14.1198 21.4984C14.0294 21.479 14.0454 21.3852 14.0294 21.3689ZM14.7834 21.2232C14.7834 21.2232 14.8222 21.2459 14.79 21.2719C14.7674 21.2945 14.6541 21.3359 14.5568 21.3431C14.4598 21.3431 14.3725 21.3591 14.3725 21.3269C14.3725 21.2947 14.4534 21.2299 14.5018 21.2136C14.5215 21.189 14.5513 21.1747 14.5828 21.1748C14.6217 21.1748 14.7736 21.1586 14.8158 21.1522C14.8546 21.1456 14.8871 21.1682 14.8642 21.2006C14.8546 21.2232 14.7834 21.2232 14.7834 21.2232ZM15.0067 20.224C15.0067 20.224 14.9581 20.3275 14.9033 20.3275C14.8482 20.3211 14.8482 20.3048 14.8482 20.2886C14.8482 20.266 14.9033 20.2078 14.8967 20.1916C14.8807 20.1916 14.8416 20.1916 14.8482 20.1527C14.8482 20.1203 14.9033 20.0815 14.9517 20.0887C14.9883 20.0587 15.0339 20.0416 15.0812 20.0403C15.1362 20.0403 15.1847 20.0563 15.1847 20.0887C15.1847 20.1212 15.1207 20.1922 15.0972 20.2086C15.0714 20.2344 15.039 20.2513 15.0067 20.2246V20.224ZM14.2687 22.1365C14.2687 22.1365 14.2047 22.1431 14.2047 22.1753C14.2047 22.1916 14.2207 22.1916 14.2435 22.182C14.2567 22.1812 14.2697 22.179 14.2824 22.1753C14.2888 22.182 14.2888 22.2142 14.3374 22.2142C14.3773 22.2088 14.4158 22.1956 14.4507 22.1753C14.4895 22.1593 14.5219 22.1429 14.5219 22.1113C14.5057 22.0563 14.4733 22.0303 14.4249 22.0303C14.4 22.0287 14.3753 22.0343 14.3536 22.0465C14.3536 22.0465 14.3374 22.0141 14.2824 22.0465C14.2273 22.0789 14.2337 22.0789 14.2499 22.0951C14.2789 22.1209 14.2693 22.1378 14.2693 22.1378L14.2687 22.1365ZM13.9032 22.4732C13.9032 22.457 13.984 22.4245 14.0066 22.4343C14.0292 22.4407 14.0939 22.5636 14.0939 22.5766C14.0939 22.5928 14.013 22.6317 13.9806 22.6317C13.9482 22.6317 13.8934 22.5766 13.8934 22.5677C13.8934 22.5613 13.9322 22.5517 13.9322 22.5451C13.9418 22.5291 13.9032 22.49 13.9032 22.4738V22.4732ZM13.6472 22.0006C13.6634 21.9942 13.6634 21.978 13.686 21.9618C13.7003 21.9523 13.7183 21.9499 13.7346 21.9554C13.7462 21.9348 13.7664 21.9205 13.7897 21.9164C13.8285 21.91 13.8609 21.9164 13.8537 21.9326C13.8537 21.9812 13.8861 22.0134 13.8861 22.0523C13.8861 22.0911 13.8635 22.1397 13.7826 22.1722C13.7018 22.1948 13.5917 22.1948 13.5755 22.1884C13.5593 22.182 13.5431 22.1171 13.5593 22.0847C13.5755 22.0523 13.6207 22.0168 13.6467 22.0006H13.6472Z" fill="#82764F"/>
<path id="Dogecoin (DOGE)_113" fill-rule="evenodd" clip-rule="evenodd" d="M13.7502 22.0226C13.7502 22.0226 13.6952 22.055 13.6952 22.0713C13.6903 22.0869 13.6881 22.1033 13.6888 22.1197C13.6888 22.1293 13.76 22.1133 13.7696 22.1035C13.7728 22.0971 13.7502 22.0395 13.7502 22.0226Z" fill="#6E6342"/>
<path id="Dogecoin (DOGE)_114" fill-rule="evenodd" clip-rule="evenodd" d="M13.2689 21.8705C13.3012 21.8771 13.3562 21.8705 13.3982 21.8867C13.4307 21.9029 13.4533 21.9354 13.4208 21.9742C13.3884 22.013 13.3568 22.0713 13.2849 22.0614C13.2041 22.055 13.1264 22.013 13.1264 21.9806C13.1237 21.9392 13.1377 21.8984 13.1653 21.8673C13.1977 21.8415 13.2137 21.8577 13.2687 21.8705H13.2689Z" fill="#585136"/>
<path id="Dogecoin (DOGE)_115" fill-rule="evenodd" clip-rule="evenodd" d="M13.2301 21.9029C13.2301 21.9029 13.1267 21.9838 13.1006 22.0228C13.0682 22.0617 12.9097 22.2622 12.8613 22.3042C12.8773 22.2758 12.8957 22.2488 12.9161 22.2234C12.8521 22.2643 12.8041 22.326 12.7802 22.3981C12.7414 22.518 12.9972 22.5826 13.1653 22.6313C13.3334 22.6799 13.3984 22.6953 13.3984 22.6953C13.3365 22.6022 13.2834 22.5037 13.2397 22.4009C13.1757 22.2488 13.1427 22.2325 13.1847 22.1613C13.2171 22.09 13.2657 22.0416 13.2657 21.9866C13.2463 21.9354 13.2301 21.9029 13.2301 21.9029Z" fill="#574F35"/>
<path id="Dogecoin (DOGE)_116" fill-rule="evenodd" clip-rule="evenodd" d="M9.54071 22.1587C9.56426 22.163 9.58841 22.163 9.61196 22.1587C9.66039 22.1521 10.1653 21.9667 10.6929 22C11.0879 22.0239 11.4793 22.0882 11.8611 22.192C12.5246 22.3667 13.3498 22.713 13.8837 22.9105C14.026 22.9653 14.1653 23.0626 14.2677 23.1012C14.6756 23.2599 14.6916 23.2599 14.9312 23.302C15.2128 23.3408 15.5008 23.2469 15.8018 23.1823C16.1707 23.1012 16.8017 23.0624 17.3551 22.9815C17.5341 22.9567 17.7106 22.9167 17.8827 22.8619C17.8827 22.8619 17.4426 23.302 16.3874 23.4605C15.9609 23.5252 15.5275 23.5307 15.0995 23.4767C14.7629 23.4443 14.5398 23.3956 14.3714 23.3472C14.1805 23.2922 13.7888 23.1465 13.3067 23.0272C12.97 22.9397 12.5946 22.8751 12.1643 22.7942C11.1027 22.5999 9.95074 22.3767 9.54028 22.16L9.54071 22.1587Z" fill="#252211"/>
<path id="Dogecoin (DOGE)_117" fill-rule="evenodd" clip-rule="evenodd" d="M8.34967 20.1587C8.09367 20.3755 7.8221 20.5826 7.55693 20.7831L6.75757 21.3973C6.48578 21.5979 6.22039 21.805 5.94839 22.0058C5.67639 22.2065 5.40482 22.3972 5.11639 22.5818C5.37239 22.365 5.64397 22.1643 5.91575 21.9669C6.18754 21.7696 6.46935 21.5761 6.73154 21.376L7.5309 20.761C7.80589 20.5604 8.07127 20.3533 8.34967 20.1591V20.1587ZM6.93538 22.424C6.93538 22.424 7.22338 22.1845 7.58264 21.848C8.02914 21.4308 8.57613 20.8966 8.75085 20.7997L6.93517 22.4243L6.93538 22.424Z" fill="#CFB66C"/>
<path id="Dogecoin (DOGE)_118" fill-rule="evenodd" clip-rule="evenodd" d="M6.93549 22.4239C7.07799 22.2816 7.2301 22.1425 7.38221 22.0064L7.61517 21.8059C7.68642 21.7419 7.76749 21.67 7.83853 21.5987C7.98082 21.4564 8.12013 21.3041 8.26242 21.1586C8.33295 21.0854 8.40752 21.0163 8.48578 20.9515C8.52491 20.9168 8.56836 20.8874 8.61506 20.864C8.6541 20.8414 8.69613 20.8 8.75095 20.7927C8.71874 20.8414 8.67991 20.864 8.64749 20.906C8.60866 20.9384 8.57623 20.9773 8.54402 21.0095C8.47277 21.0807 8.39191 21.1454 8.32066 21.2102C8.16855 21.3397 8.01005 21.4662 7.85794 21.6017C7.70583 21.7372 7.56354 21.8833 7.41122 22.0192C7.24631 22.1585 7.09421 22.2944 6.93549 22.4245V22.4239ZM8.87085 21.1294C8.87085 21.1294 7.81591 22.1619 7.59895 22.33L8.87085 21.1294Z" fill="#CFB66C"/>
<path id="Dogecoin (DOGE)_119" fill-rule="evenodd" clip-rule="evenodd" d="M8.87083 21.1294C8.77593 21.2392 8.67418 21.343 8.56619 21.44L8.24619 21.7442C8.14272 21.8477 8.04544 21.9514 7.93558 22.0548C7.8223 22.1519 7.71883 22.2468 7.59894 22.3364L7.90955 22.0322C8.01323 21.9288 8.12651 21.8415 8.23659 21.7378L8.5472 21.4336C8.65387 21.3269 8.75755 21.2233 8.87083 21.1294ZM8.91916 21.6892C8.82192 21.9606 8.70734 22.2255 8.57612 22.4822C8.30434 23.026 7.89666 23.7054 7.71852 24.0519L8.91916 21.6892Z" fill="#CFB66C"/>
<path id="Dogecoin (DOGE)_120" fill-rule="evenodd" clip-rule="evenodd" d="M8.9193 21.6894C8.9193 21.8091 8.88688 21.9128 8.84805 22.0162C8.8102 22.1198 8.76705 22.2213 8.71877 22.3204C8.67013 22.4175 8.61509 22.5212 8.56005 22.615C8.50501 22.7089 8.44037 22.8058 8.39173 22.903L8.0649 23.479C7.95162 23.671 7.84154 23.8641 7.72186 24.0486C7.80272 23.8415 7.9128 23.6474 8.01648 23.4564C8.12976 23.2644 8.23322 23.0724 8.33648 22.8738C8.38689 22.7749 8.43224 22.6734 8.47237 22.5698C8.5208 22.4661 8.56922 22.3691 8.60826 22.2752C8.65669 22.1717 8.69552 22.0745 8.74416 21.9808C8.79898 21.8803 8.84442 21.7833 8.91888 21.6894L8.9193 21.6894Z" fill="#CFB66C"/>
<path id="Dogecoin (DOGE)_121" fill-rule="evenodd" clip-rule="evenodd" d="M10.0715 24.343C10.0715 24.343 9.7515 24.7669 9.7835 25.3041C9.87075 25.0227 9.98083 24.5922 10.0715 24.343ZM10.3757 24.768C10.3757 24.768 10.2624 25.92 10.1686 26.4864C10.3013 25.8317 10.3271 25.8867 10.3757 24.768ZM12.4954 26.5545C12.4954 26.5545 12.0165 27.9625 12.0066 28.3537C12.1103 27.9514 12.3109 27.1294 12.4954 26.5534V26.5545Z" fill="#DEC270"/>
<path id="Dogecoin (DOGE)_122" fill-rule="evenodd" clip-rule="evenodd" d="M13.6152 24.256C13.6152 24.256 14.3919 25.5375 14.9745 26.6313C14.8169 26.0809 14.4542 25.0714 13.6152 24.256Z" fill="#CBAF59"/>
<path id="Dogecoin (DOGE)_123" fill-rule="evenodd" clip-rule="evenodd" d="M15.7026 26.1425C16.1291 26.8963 16.5137 27.6731 16.8546 28.4693C16.79 27.9191 16.6151 26.9775 15.7026 26.1425Z" fill="#E3C677"/>
<path id="Dogecoin (DOGE)_124" fill-rule="evenodd" clip-rule="evenodd" d="M21.8385 28.032C21.9678 27.9512 22.2236 27.5108 22.447 27.401C22.6701 27.2877 22.8384 27.2651 23.0392 27.0417C23.2397 26.8085 23.2952 26.6662 23.7349 26.4819C24.3499 26.2163 23.9269 25.8733 23.9269 25.8733C23.9946 25.8067 24.067 25.7451 24.1436 25.689C24.3023 25.5693 24.4866 25.4236 24.4706 25.1678C24.448 24.7375 24.3672 24.1129 24.0143 23.7504C24.3574 23.6792 25.0142 23.6307 25.4223 23.5273C25.8946 23.4074 26.1116 23.239 26.1116 23.239C26.1116 23.239 25.8398 22.7763 26.2799 22.3104C26.72 21.8445 27.0793 21.5661 27.3447 21.0449C27.0405 21.0061 26.5767 20.8444 25.3931 21.2941C25.457 21.3241 25.5187 21.3587 25.5776 21.3976C25.5776 21.3976 24.8495 21.5983 24.5841 21.8217C24.1212 22.2131 24.063 22.5336 23.5614 22.7731C23.0599 23.0127 22.5549 22.9478 22.1376 23.142C21.7203 23.3361 21.6587 23.5012 21.5064 23.5725C21.5388 23.6113 21.5 23.676 21.5614 23.731C21.5226 23.786 21.296 24.1549 21.0663 24.1549C21.0889 24.2424 21.283 24.307 21.283 24.307C21.283 24.307 21.1407 24.4107 20.7783 24.4365C20.9626 24.6285 21.1375 24.8378 21.6197 25.142C21.5808 25.2228 21.4189 25.3427 21.4838 25.4948C21.555 25.6469 21.7398 25.8541 22.4773 26.0224C22.1018 26.0384 21.6619 26.1259 21.0693 26.045C20.477 25.9738 20.38 25.9317 20.0143 26.0224C20.0531 26.0612 20.1566 26.0612 20.2473 26.1647C20.1502 26.1711 19.5418 26.0934 19.3346 26.3654C19.1179 26.6468 19.024 27.1098 19.0402 27.4204C18.927 27.4754 18.8169 27.5725 18.8719 27.7732C18.927 27.974 19.215 28.0386 19.3995 28.1647C19.5838 28.3006 19.6 28.349 19.775 28.3168C19.9593 28.278 20.2311 28.0937 20.3898 28.0937C20.5485 28.0937 20.6616 28.2133 20.6616 28.2133C20.6616 28.2133 21.0921 28.0062 21.1341 28.045C21.1729 28.0838 21.1405 28.333 21.1825 28.3718C21.2252 28.4011 21.7101 28.1131 21.8396 28.032H21.8385Z" fill="#ECD592"/>
<path id="Dogecoin (DOGE)_125" fill-rule="evenodd" clip-rule="evenodd" d="M31.2463 15.081C29.2237 9.85771 24.2236 8.89003 24.2236 8.89003H9.95822L10.0133 14.2104H12.8542V26.0907H9.95801V31.4014H23.8287C27.1717 31.4014 29.8513 28.042 29.8513 28.042C34.1425 21.9516 31.2461 15.081 31.2461 15.081H31.2463ZM23.9032 24.4627C23.9032 24.4627 22.8152 26.0324 21.6314 26.0324H19.2634L19.2073 14.2234H22.2462C22.2462 14.2234 23.6542 14.5178 24.6379 17.3041C24.6379 17.3041 25.942 21.2934 23.9032 24.4627Z" fill="white" fill-opacity="0.8"/>
</g>
</svg>
