<svg width="163" height="45" viewBox="0 0 163 45" fill="none" xmlns="http://www.w3.org/2000/svg">
<g id="Analytics">
<path id="Vector 338" d="M4.96472 9.53172L4.06952 10.4319C3.66642 10.8372 2.99464 10.7784 2.66803 10.3093C2.15558 9.57315 1 9.93577 1 10.8327V44C1 44.5523 1.44771 45 2 45H160.927C161.507 45 161.965 44.5084 161.925 43.9299L161.033 31.2311C161.022 31.0748 160.974 30.9232 160.894 30.7887L159.835 29.0132C159.465 28.3929 158.579 28.3576 158.161 28.9465L158.141 28.9743C157.767 29.5002 157.001 29.54 156.575 29.0557L150.672 22.3463C150.256 21.8729 149.51 21.8984 149.127 22.3993L147.518 24.5027C147.08 25.0757 146.198 25.0101 145.849 24.3787L142.579 18.4614C142.192 17.7603 141.179 17.7765 140.814 18.4897L136.499 26.9254C136.162 27.5848 135.25 27.6616 134.807 27.068L134.635 26.8362C134.225 26.2873 133.398 26.303 133.009 26.867L131.806 28.614C131.376 29.2398 130.432 29.1754 130.09 28.4969L118.957 6.40257C118.667 5.82684 117.916 5.67201 117.422 6.08608L117.341 6.15382C116.862 6.55475 116.137 6.42415 115.829 5.88142L113.415 1.6335C113.019 0.937293 112.007 0.965315 111.65 1.68233L109.173 6.66436C108.868 7.2774 108.051 7.40972 107.568 6.92427L107.126 6.47889C106.678 6.02857 105.929 6.10437 105.58 6.63532L96.1269 21.0382C95.7736 21.5764 95.0112 21.6454 94.567 21.1794L88.6027 14.9214C88.2145 14.514 87.5666 14.5071 87.1698 14.9061L85.965 16.1176C85.5799 16.5048 84.9553 16.5115 84.562 16.1325L77.6917 9.51198C77.5053 9.3324 77.2566 9.23206 76.9978 9.23206H73.8822C73.6161 9.23206 73.3609 9.12594 73.1732 8.93721L69.4983 5.24202C69.1427 4.88441 68.5764 4.8476 68.1774 5.15618L65.5965 7.1525C65.0913 7.54327 64.3542 7.36674 64.0809 6.78951L62.3474 3.12905C61.9689 2.32989 60.8156 2.37911 60.5067 3.20762L57.9446 10.0776C57.6898 10.7609 56.8128 10.9505 56.2986 10.4334L55.5416 9.67226C55.1293 9.25768 54.4509 9.28373 54.0716 9.72869L53.4305 10.4808C53.0828 10.8886 52.4755 10.9499 52.0534 10.6198L50.7678 9.61436C50.2877 9.23887 49.5863 9.37655 49.2837 9.90566L43.148 20.6355C42.7721 21.2929 41.8303 21.3101 41.4306 20.667L37.6906 14.6499C37.5081 14.3563 37.187 14.1778 36.8413 14.1778H33.8128C33.4032 14.1778 33.0351 13.928 32.8837 13.5474L32.0736 11.511C31.9222 11.1304 31.554 10.8806 31.1444 10.8806H26.9307C26.5192 10.8806 26.1497 10.6286 25.9996 10.2454L22.7418 1.92981C22.4364 1.15038 21.3658 1.0687 20.9457 1.79278L17.8777 7.08124C17.6082 7.54586 17.0198 7.71455 16.545 7.46329L12.15 5.13733C11.6241 4.859 10.973 5.09868 10.753 5.65155L9.03526 9.96975C8.78864 10.5897 8.0156 10.7989 7.49003 10.3878L6.28982 9.44917C5.89093 9.1372 5.3218 9.17266 4.96472 9.53172Z" fill="url(#paint0_linear_102_149)" fill-opacity="0.1"/>
<path id="Vector 339" d="M1 7.91319L2.61061 10.2268C2.96711 10.7389 3.70039 10.803 4.14038 10.3606L4.96472 9.53172C5.3218 9.17266 5.89093 9.1372 6.28982 9.44917L7.49003 10.3878C8.0156 10.7989 8.78864 10.5897 9.03526 9.96975L10.753 5.65155C10.973 5.09868 11.6241 4.859 12.15 5.13732L16.545 7.46329C17.0198 7.71455 17.6082 7.54586 17.8777 7.08124L20.9457 1.79278C21.3658 1.0687 22.4364 1.15038 22.7418 1.92981L25.9996 10.2454C26.1497 10.6286 26.5192 10.8806 26.9307 10.8806H31.1444C31.554 10.8806 31.9222 11.1304 32.0736 11.511L32.8837 13.5474C33.0351 13.928 33.4032 14.1778 33.8128 14.1778H36.8413C37.187 14.1778 37.5081 14.3563 37.6906 14.6499L41.4306 20.667C41.8303 21.3101 42.7721 21.2929 43.148 20.6355L49.2837 9.90566C49.5863 9.37655 50.2877 9.23887 50.7678 9.61436L52.0534 10.6198C52.4755 10.9499 53.0828 10.8886 53.4305 10.4808L54.0716 9.72869C54.4509 9.28373 55.1294 9.25768 55.5416 9.67226L56.2986 10.4334C56.8128 10.9505 57.6898 10.7609 57.9446 10.0776L60.5067 3.20762C60.8156 2.37911 61.9689 2.32988 62.3474 3.12905L64.0809 6.78951C64.3542 7.36674 65.0913 7.54327 65.5965 7.1525L68.1774 5.15618C68.5764 4.8476 69.1427 4.88441 69.4983 5.24202L73.1732 8.93721C73.3609 9.12594 73.6161 9.23206 73.8822 9.23206H76.9978C77.2566 9.23206 77.5053 9.3324 77.6917 9.51198L84.5621 16.1325C84.9553 16.5115 85.5799 16.5048 85.965 16.1176L87.1698 14.9061C87.5666 14.5071 88.2145 14.514 88.6027 14.9214L94.567 21.1794C95.0112 21.6454 95.7736 21.5764 96.1269 21.0382L105.58 6.63532C105.929 6.10437 106.678 6.02857 107.126 6.47889L107.568 6.92427C108.051 7.40972 108.868 7.2774 109.173 6.66436L111.65 1.68233C112.007 0.965315 113.019 0.937293 113.415 1.6335L115.829 5.88142C116.138 6.42415 116.862 6.55475 117.341 6.15382L117.422 6.08607C117.916 5.67201 118.667 5.82684 118.957 6.40257L130.09 28.4969C130.432 29.1754 131.376 29.2398 131.806 28.614L133.009 26.867C133.398 26.303 134.225 26.2873 134.635 26.8362L134.807 27.068C135.25 27.6616 136.162 27.5848 136.499 26.9254L140.814 18.4897C141.179 17.7765 142.192 17.7603 142.579 18.4614L145.849 24.3787C146.198 25.0101 147.08 25.0757 147.518 24.5027L149.127 22.3993C149.51 21.8984 150.256 21.8729 150.672 22.3463L156.575 29.0557C157.001 29.54 157.767 29.5002 158.141 28.9743L158.161 28.9465C158.579 28.3576 159.465 28.3929 159.835 29.0132L161.016 30.9933L162 32.6419" stroke="#FB4950"/>
</g>
<defs>
<linearGradient id="paint0_linear_102_149" x1="81.5" y1="0" x2="82.1213" y2="44.489" gradientUnits="userSpaceOnUse">
<stop stop-color="#FB4950"/>
<stop offset="1" stop-color="#FB4950" stop-opacity="0"/>
</linearGradient>
</defs>
</svg>
