<svg width="163" height="46" viewBox="0 0 163 46" fill="none" xmlns="http://www.w3.org/2000/svg">
<g id="Analytics">
<path id="Vector 336" d="M2.44947 23.1286L1.16751 25.0549C1.05828 25.219 1 25.4118 1 25.6089V45C1 45.5523 1.44771 46 2 46H161C161.552 46 162 45.5523 162 45V4.07947C162 3.11057 160.76 2.70791 160.191 3.49196L159.904 3.88698C159.604 4.30011 159.041 4.42097 158.598 4.16735L157.877 3.75456C157.427 3.49695 156.854 3.6261 156.559 4.05203L152.133 10.4244C151.946 10.6935 151.64 10.854 151.312 10.854H148.567C148.163 10.854 147.799 10.611 147.644 10.2381L147.085 8.89462C146.759 8.10997 145.664 8.06427 145.274 8.81898L142.499 14.1797C142.138 14.877 141.151 14.9053 140.751 14.2299L136.039 6.28081C135.725 5.75084 135.011 5.62822 134.538 6.02302L134.209 6.29755C133.797 6.64117 133.188 6.59897 132.828 6.20191L131.164 4.36906C130.695 3.85169 129.853 3.96301 129.534 4.58465L118.632 25.8364C118.339 26.4067 117.593 26.5584 117.101 26.1476L117.015 26.076C116.536 25.6757 115.811 25.8082 115.504 26.3523L112.776 31.1867C112.378 31.8917 111.351 31.8566 111.003 31.1261L108.707 26.3181C108.45 25.7791 107.78 25.5844 107.274 25.9014L106.578 26.3371C106.062 26.66 105.38 26.4513 105.133 25.8951L95.9594 5.21839C95.618 4.44894 94.5367 4.41982 94.1544 5.16979L87.9041 17.4311C87.5842 18.0587 86.7328 18.1676 86.2652 17.6406L85.3516 16.6111C84.9578 16.1673 84.2664 16.162 83.8659 16.5997L77.6985 23.3393C77.5091 23.5463 77.2414 23.6642 76.9608 23.6642H74.5008C74.2568 23.6642 74.0213 23.7534 73.8385 23.915L69.1665 28.0445C68.8074 28.3619 68.2735 28.3798 67.8939 28.0873L65.5697 26.2964C64.9802 25.8421 64.1187 26.1681 63.9775 26.8988L63.0209 31.8496C62.8272 32.8523 61.4319 32.9538 61.095 31.9897L58.0721 23.3378C57.8841 22.7998 57.2852 22.5274 56.7561 22.7394L55.2252 23.3528C54.7755 23.533 54.2613 23.3649 54.0049 22.9539L53.3292 21.8709C53.0402 21.4078 52.4334 21.262 51.9656 21.5431L50.3559 22.5106C49.8947 22.7878 49.2969 22.6504 49.003 22.1997L40.2061 8.7062C39.7425 7.99508 38.6596 8.14861 38.4119 8.96057L35.6458 18.029C35.5174 18.4498 35.1292 18.7372 34.6893 18.7372H33.1316C32.7348 18.7372 32.3756 18.9718 32.216 19.3351L28.9617 26.744C28.9024 26.8789 28.8141 26.9991 28.7029 27.0959L21.8353 33.078C21.5296 33.3444 21.0932 33.3997 20.7307 33.2181L18.2623 31.9818C18.1233 31.9122 17.97 31.8759 17.8145 31.8759H15.7401C15.3498 31.8759 14.9952 31.6488 14.8319 31.2944L13.4003 28.1874C13.237 27.8329 12.8824 27.6058 12.4921 27.6058H10.8747C10.4576 27.6058 10.0844 27.347 9.93815 26.9564L8.58638 23.3455C8.3844 22.8059 7.76945 22.5482 7.24313 22.7825L5.72606 23.458C5.43483 23.5876 5.09923 23.5706 4.82256 23.4123L3.77874 22.8148C3.32209 22.5534 2.74099 22.6906 2.44947 23.1286Z" fill="url(#paint0_linear_102_251)" fill-opacity="0.1"/>
<path id="Vector 337" d="M1 25.3066L2.44947 23.1286C2.74099 22.6906 3.32209 22.5534 3.77874 22.8148L4.82256 23.4123C5.09923 23.5706 5.43483 23.5876 5.72606 23.458L7.24313 22.7825C7.76945 22.5482 8.3844 22.8059 8.58638 23.3455L9.93815 26.9564C10.0844 27.347 10.4576 27.6058 10.8747 27.6058H12.4921C12.8824 27.6058 13.237 27.8329 13.4003 28.1874L14.8319 31.2944C14.9952 31.6488 15.3498 31.8759 15.7401 31.8759H17.8145C17.97 31.8759 18.1233 31.9122 18.2623 31.9818L20.7307 33.2181C21.0932 33.3997 21.5296 33.3444 21.8353 33.078L28.7029 27.0959C28.8141 26.9991 28.9024 26.8789 28.9617 26.744L32.216 19.3351C32.3756 18.9718 32.7348 18.7372 33.1316 18.7372H34.6893C35.1292 18.7372 35.5174 18.4498 35.6458 18.029L38.4119 8.96057C38.6596 8.14861 39.7425 7.99508 40.2061 8.7062L49.003 22.1997C49.2969 22.6504 49.8947 22.7878 50.3559 22.5106L51.9656 21.5431C52.4334 21.262 53.0402 21.4078 53.3292 21.8709L54.0049 22.9539C54.2613 23.3649 54.7755 23.533 55.2252 23.3528L56.7561 22.7394C57.2852 22.5274 57.8841 22.7998 58.0721 23.3378L61.095 31.9897C61.4319 32.9538 62.8272 32.8523 63.0209 31.8496L63.9775 26.8988C64.1187 26.1681 64.9802 25.8421 65.5697 26.2964L67.8939 28.0873C68.2735 28.3798 68.8074 28.3619 69.1665 28.0445L73.8385 23.915C74.0213 23.7534 74.2568 23.6642 74.5008 23.6642H76.9608C77.2414 23.6642 77.5091 23.5463 77.6985 23.3393L83.8659 16.5997C84.2665 16.162 84.9578 16.1673 85.3516 16.6111L86.2652 17.6406C86.7328 18.1676 87.5842 18.0587 87.9041 17.4311L94.1544 5.16979C94.5367 4.41982 95.618 4.44894 95.9594 5.21839L105.133 25.8951C105.38 26.4513 106.062 26.66 106.578 26.3371L107.274 25.9014C107.78 25.5844 108.45 25.7791 108.707 26.3181L111.003 31.1261C111.351 31.8566 112.378 31.8917 112.776 31.1867L115.504 26.3523C115.811 25.8082 116.536 25.6757 117.015 26.076L117.101 26.1476C117.593 26.5584 118.339 26.4067 118.632 25.8364L129.534 4.58465C129.853 3.96301 130.695 3.85169 131.164 4.36906L132.828 6.20191C133.188 6.59897 133.797 6.64117 134.209 6.29755L134.538 6.02302C135.011 5.62822 135.725 5.75084 136.039 6.28081L140.751 14.2299C141.151 14.9053 142.138 14.877 142.499 14.1797L145.274 8.81898C145.664 8.06427 146.759 8.10997 147.085 8.89462L147.644 10.2381C147.799 10.611 148.163 10.854 148.567 10.854H151.312C151.64 10.854 151.946 10.6935 152.133 10.4244L156.559 4.05203C156.854 3.6261 157.427 3.49695 157.877 3.75456L158.598 4.16735C159.041 4.42097 159.604 4.30011 159.904 3.88698L162 1" stroke="#0CE93C"/>
</g>
<defs>
<linearGradient id="paint0_linear_102_251" x1="81.5" y1="1" x2="81.5" y2="46" gradientUnits="userSpaceOnUse">
<stop stop-color="#0CE93C"/>
<stop offset="1" stop-color="#0CE93C" stop-opacity="0"/>
</linearGradient>
</defs>
</svg>
