<svg width="126" height="37" viewBox="0 0 126 37" fill="none" xmlns="http://www.w3.org/2000/svg">
<path d="M14.3981 16.1742V20.8258L15.6705 22.0981H21.5981V29.2981H15.6705L14.3981 30.5742V36.5H0V29.2981H13.1258L14.3981 28.0258V23.3705L13.1239 22.0981H0V14.9H13.1239L14.3981 13.6277V8.97235L13.1258 7.7H0V0.5H14.3981V6.42578L15.6705 7.7H21.5981V14.9H15.6705L14.3981 16.1742Z" fill="#0CE93C"/>
<path d="M45.4969 18.0529C47.3475 18.7227 49.0071 20.3824 49.0071 23.03C49.0071 26.6674 46.0396 29.1878 42.4583 29.1878H30.9491C30.8563 29.1873 30.7674 29.1504 30.7016 29.0849C30.6358 29.0194 30.5983 28.9307 30.5974 28.8379V8.17159C30.5983 8.0786 30.6357 7.98969 30.7015 7.92393C30.7672 7.85817 30.8561 7.8208 30.9491 7.81982H42.084C45.6579 7.81982 48.4327 10.0539 48.4327 13.4687C48.4285 14.4175 48.1488 15.3446 47.6276 16.1375C47.1065 16.9304 46.3663 17.5548 45.4969 17.935V18.0529ZM35.8626 12.5013V16.2978H41.0306C41.5501 16.3093 42.0529 16.1142 42.4286 15.7553C42.8044 15.3964 43.0223 14.9031 43.0346 14.3836C43.0346 13.4593 42.3011 12.5013 41.025 12.5013H35.8626ZM41.4759 24.5306C42.0331 24.5342 42.5694 24.3187 42.9691 23.9305C43.3688 23.5423 43.6 23.0126 43.6127 22.4556C43.6127 21.5313 42.7838 20.6051 41.4759 20.6051H35.8626V24.5344L41.4759 24.5306Z" fill="#0CE93C"/>
<path d="M55.4223 6.21631C55.5148 6.21728 55.6033 6.25446 55.6687 6.31987C55.7341 6.38528 55.7713 6.47371 55.7722 6.5662V11.1298C55.7713 11.2223 55.7341 11.3108 55.6687 11.3762C55.6033 11.4416 55.5148 11.4787 55.4223 11.4797H51.1787C51.0858 11.4792 50.9969 11.4423 50.9311 11.3768C50.8653 11.3114 50.8279 11.2226 50.8269 11.1298V6.5662C50.8279 6.47339 50.8653 6.38468 50.9311 6.31922C50.9969 6.25376 51.0858 6.21679 51.1787 6.21631H55.4223ZM55.4223 13.2348C55.515 13.2363 55.6034 13.2739 55.6688 13.3396C55.7341 13.4053 55.7713 13.4939 55.7722 13.5866V28.8379C55.7713 28.9304 55.7341 29.0189 55.6687 29.0843C55.6033 29.1497 55.5148 29.1869 55.4223 29.1878H51.1787C51.0858 29.1873 50.9969 29.1504 50.9311 29.0849C50.8653 29.0195 50.8279 28.9307 50.8269 28.8379V13.5866C50.8279 13.4936 50.8652 13.4047 50.931 13.3389C50.9968 13.2732 51.0857 13.2358 51.1787 13.2348H55.4223Z" fill="#0CE93C"/>
<path d="M70.5762 17.6693C70.5757 17.7621 70.5387 17.851 70.4733 17.9168C70.4078 17.9827 70.3191 18.0201 70.2263 18.0211H64.3548V23.3818C64.3548 24.0198 64.802 24.4015 65.4774 24.4015H70.2319C70.3246 24.403 70.413 24.4406 70.4784 24.5063C70.5437 24.572 70.5808 24.6606 70.5818 24.7533V28.8379C70.5808 28.9304 70.5437 29.0188 70.4783 29.0842C70.4128 29.1497 70.3244 29.1868 70.2319 29.1878H64.5531C61.4901 29.1878 59.4169 27.2101 59.4169 24.1789V18.0211H57.8527C57.7599 18.0201 57.6712 17.9827 57.6057 17.9168C57.5403 17.851 57.5033 17.7621 57.5028 17.6693V13.5866C57.5038 13.4939 57.5409 13.4053 57.6062 13.3395C57.6716 13.2738 57.76 13.2363 57.8527 13.2348H59.4169V8.17159C59.4179 8.07892 59.455 7.99029 59.5204 7.92458C59.5857 7.85887 59.6742 7.82128 59.7668 7.81982H64.0105C64.1022 7.82272 64.1892 7.86094 64.2534 7.92649C64.3175 7.99205 64.3539 8.07987 64.3548 8.17159V13.2348H70.2263C70.319 13.2363 70.4074 13.2738 70.4728 13.3395C70.5381 13.4053 70.5752 13.4939 70.5762 13.5866V17.6693Z" fill="#0CE93C"/>
<path d="M84.0117 13.4594C84.029 13.3962 84.0662 13.3402 84.1177 13.2998C84.1693 13.2593 84.2325 13.2366 84.298 13.2348H88.5024C88.8223 13.2348 88.9814 13.4912 88.8541 13.8093L82.541 28.997C82.5086 29.0533 82.462 29.1002 82.4059 29.133C82.3498 29.1658 82.2861 29.1834 82.2211 29.1841H77.7304C77.6654 29.1834 77.6018 29.1658 77.5457 29.133C77.4896 29.1002 77.443 29.0533 77.4105 28.997L71.0543 13.8093C71.0219 13.7474 71.0066 13.6781 71.0099 13.6083C71.0132 13.5385 71.035 13.4709 71.0732 13.4124C71.1113 13.3539 71.1643 13.3066 71.2268 13.2754C71.2892 13.2442 71.3589 13.2302 71.4286 13.2348H75.8968C75.9626 13.2291 76.0287 13.244 76.0857 13.2776C76.1427 13.3111 76.1879 13.3616 76.2148 13.422L80.2358 23.3388L84.0117 13.4594Z" fill="#0CE93C"/>
<path d="M100.982 13.5865C100.983 13.4938 101.02 13.4052 101.086 13.3395C101.151 13.2737 101.24 13.2362 101.332 13.2347H105.544C105.591 13.2342 105.637 13.2429 105.68 13.2603C105.724 13.2777 105.763 13.3035 105.797 13.3362C105.83 13.3688 105.857 13.4078 105.875 13.4507C105.893 13.4936 105.903 13.5398 105.903 13.5865V28.8378C105.902 28.9305 105.864 29.0189 105.799 29.0843C105.733 29.1496 105.644 29.1867 105.552 29.1877H101.332C101.24 29.1867 101.151 29.1496 101.086 29.0842C101.021 29.0187 100.983 28.9303 100.982 28.8378V27.2418H100.851C99.8953 28.6133 98.1402 29.6742 95.9379 29.6742C91.7597 29.6742 88.5676 26.3249 88.5676 21.2823C88.5676 16.3688 91.5614 12.7632 95.9379 12.7632C98.1402 12.7632 99.8953 13.8166 100.851 15.1956H100.981L100.982 13.5865ZM100.982 21.2112C100.982 19.0426 99.4181 17.4147 97.2813 17.4147C95.1745 17.4147 93.5784 18.979 93.5784 21.2112C93.5784 23.4434 95.1745 25.0114 97.2813 25.0114C99.4818 25.0114 100.982 23.2863 100.982 21.2112Z" fill="#0CE93C"/>
<path d="M120.124 13.491C120.147 13.422 120.189 13.3611 120.245 13.3156C120.301 13.2701 120.37 13.2419 120.442 13.2346H124.686C124.75 13.2285 124.814 13.2389 124.873 13.2647C124.931 13.2906 124.982 13.3311 125.021 13.3824C125.059 13.4337 125.084 13.494 125.093 13.5576C125.101 13.6212 125.093 13.6859 125.069 13.7454L120.601 27.4644C120.584 27.5276 120.547 27.5836 120.495 27.624C120.444 27.6644 120.38 27.6872 120.315 27.6889H119.23V31.8371C119.23 34.1648 116.55 35.5793 114.157 35.5793H109.597C109.504 35.5784 109.415 35.541 109.35 35.4752C109.284 35.4095 109.246 35.3206 109.245 35.2276V31.1336C109.246 31.0408 109.284 30.9521 109.35 30.8866C109.415 30.8211 109.504 30.7842 109.597 30.7837H114.159V27.6889H113.106C113.04 27.6947 112.974 27.6797 112.917 27.6462C112.86 27.6127 112.814 27.5622 112.787 27.5018L107.213 13.8091C107.18 13.7473 107.165 13.6777 107.168 13.6077C107.171 13.5377 107.192 13.4698 107.231 13.4111C107.269 13.3524 107.322 13.3051 107.385 13.274C107.448 13.243 107.518 13.2294 107.588 13.2346H112.183C112.249 13.2289 112.315 13.2438 112.372 13.2773C112.429 13.3109 112.474 13.3614 112.501 13.4217L116.902 24.8242L120.124 13.491Z" fill="#0CE93C"/>
</svg>
