<svg width="175" height="40" viewBox="0 0 175 40" fill="none" xmlns="http://www.w3.org/2000/svg">
<g id="OpenSea">
<g id="OpenSea Icon">
<path d="M40.2 20C40.2 31.0451 31.245 40 20.2 40C9.15487 40 0.199951 31.0451 0.199951 20C0.199951 8.95492 9.15487 0 20.2 0C31.2474 0 40.2 8.95492 40.2 20Z" fill="#2081E2"/>
<path d="M33.2578 23.4728V22.1844C33.2578 22.0652 33.1427 21.9789 33.0296 22.0118L26.9453 23.7707C26.9125 23.7789 26.8837 23.7974 26.8611 23.8221C26.1933 24.5598 25.6283 25.0488 25.4988 25.1618C25.1207 25.4823 24.6521 25.657 24.1589 25.657H21.9562V23.4111H23.707C23.7521 23.4111 23.7953 23.3947 23.8283 23.3659L24.0543 23.1584C24.1507 23.07 24.266 22.9632 24.4035 22.8255L24.4386 22.7902C24.5111 22.7181 24.5886 22.641 24.6644 22.5563C24.7548 22.468 24.8433 22.3693 24.9253 22.2728C24.9882 22.2052 25.05 22.1363 25.1115 22.066C25.1845 21.9823 25.2576 21.8966 25.3324 21.8084C25.431 21.7016 25.5214 21.5803 25.6097 21.4591C25.7084 21.3439 25.8048 21.2146 25.8953 21.0912C25.9611 20.9946 26.0351 20.896 26.107 20.7912C26.1728 20.6926 26.2384 20.5878 26.2939 20.4892C26.4666 20.2221 26.6125 19.9364 26.7357 19.6508C26.7929 19.5271 26.8386 19.3968 26.8828 19.2702L26.898 19.2275C26.9203 19.1621 26.9408 19.0982 26.9593 19.0346C26.9822 18.9564 27.0023 18.8785 27.0193 18.798C27.0933 18.4549 27.1097 18.1138 27.0769 17.7727C27.0687 17.6658 27.0603 17.561 27.0357 17.4624V17.446C27.0275 17.3761 27.0111 17.298 26.9884 17.2261C26.9451 17.0308 26.8875 16.8354 26.8179 16.6413C26.7689 16.5047 26.7138 16.3687 26.6535 16.2336C26.6043 16.1124 26.5466 15.9892 26.4912 15.8761C26.3597 15.6316 26.222 15.387 26.066 15.1508C26.0345 15.1009 26 15.0503 25.9654 14.9999C25.9386 14.9609 25.9121 14.9221 25.8871 14.8836C25.7882 14.7312 25.6771 14.5841 25.5691 14.4414L25.4966 14.3453C25.4326 14.2611 25.3625 14.177 25.2919 14.0923C25.2539 14.0467 25.2158 14.0009 25.1783 13.9549C25.0714 13.8254 24.9666 13.7021 24.8597 13.5809C24.4775 13.1493 24.0769 12.759 23.7193 12.4261C23.6535 12.3604 23.5816 12.2945 23.5076 12.2309C23.2302 11.9781 22.9775 11.7582 22.7658 11.5877C22.6589 11.5056 22.5707 11.4254 22.4884 11.3597C22.43 11.3162 22.3789 11.2772 22.3349 11.2438L22.2439 11.1747C22.2275 11.1624 22.2089 11.1542 22.1906 11.1479L21.9562 11.0822V9.14248C21.9562 8.82607 21.8289 8.54248 21.6253 8.33496C21.422 8.12744 21.1384 8 20.8261 8C20.2015 8 19.696 8.51162 19.696 9.14248V10.4493L19.5789 10.4165L19.2603 10.3261L18.9707 10.2459L18.9679 10.2451C18.9666 10.2445 18.9648 10.2438 18.9625 10.2438H18.9562L16.7576 9.64795C16.6611 9.62119 16.5789 9.72607 16.6281 9.81436L16.9794 10.4637C16.9994 10.5134 17.0246 10.5631 17.0503 10.6143C17.0673 10.6477 17.0845 10.6816 17.1007 10.7165C17.1584 10.8315 17.2158 10.9527 17.2712 11.074C17.3207 11.1809 17.3699 11.2856 17.4275 11.4007C17.5404 11.6535 17.6638 11.9206 17.7849 12.2145C17.8671 12.4097 17.9494 12.6049 18.0212 12.8083C18.1529 13.1496 18.2798 13.5065 18.398 13.8729C18.457 14.0556 18.5138 14.2407 18.5679 14.4274C18.6021 14.5338 18.6304 14.6372 18.6582 14.7412C18.6771 14.812 18.6959 14.8831 18.7158 14.9556L18.7384 15.0542C18.7796 15.2174 18.8175 15.3798 18.8502 15.5423C18.8697 15.6397 18.8875 15.7372 18.9029 15.835C18.9357 16.0138 18.9666 16.1843 18.983 16.3569C19.0076 16.5521 19.0322 16.7474 19.0404 16.9426C19.057 17.1213 19.0652 17.3083 19.0652 17.4871C19.0652 17.9433 19.024 18.383 18.9275 18.798L18.908 18.8706C18.8812 18.9701 18.8537 19.073 18.8207 19.1721C18.7794 19.3179 18.722 19.4638 18.6666 19.6199C18.6335 19.7083 18.6007 19.7987 18.5597 19.8871C18.3562 20.3762 18.1035 20.8632 17.8425 21.3193C17.4603 21.9953 17.0761 22.5892 16.8068 22.9714L16.7597 23.041C16.7402 23.0696 16.7214 23.0969 16.7043 23.1234C16.6199 23.2426 16.7062 23.4111 16.8521 23.4111H19.696V25.657H16.8193C16.0466 25.657 15.3316 25.2193 14.9863 24.5187C14.8076 24.1673 14.7377 23.781 14.7789 23.4028C14.789 23.2898 14.7048 23.183 14.5898 23.183H8.77867C8.74371 23.183 8.71089 23.1932 8.68335 23.2106C8.63316 23.2423 8.59996 23.2982 8.59996 23.3618V23.481C8.59996 27.1879 11.5939 30.192 15.2884 30.192H25.7125C27.6664 30.192 28.7757 28.4115 29.8664 26.6614C30.1705 26.1735 30.473 25.688 30.7919 25.244C31.3652 24.4467 32.7441 23.8139 33.1468 23.6412C33.2125 23.6125 33.2578 23.5467 33.2578 23.4728Z" fill="white"/>
<path d="M10.1535 20.5364L10.0671 20.6721C9.99117 20.7892 10.0753 20.9454 10.2193 20.9454H15.5699C15.6296 20.9454 15.6851 20.9166 15.7179 20.8673C15.7878 20.7604 15.8535 20.6495 15.913 20.5364C16.3755 19.7598 16.7865 18.9193 16.9365 18.2987C17.2878 16.7905 16.5378 14.3679 15.6685 12.4199C15.6111 12.2905 15.4324 12.2781 15.3562 12.3974L10.1535 20.5364Z" fill="white"/>
</g>
<g id="OpenSea_2">
<path fill-rule="evenodd" clip-rule="evenodd" d="M59.6892 29.5986C57.8812 29.5986 56.2191 29.1934 54.7035 28.3832C53.206 27.5727 52.0096 26.4454 51.1148 25.0009C50.2385 23.5387 49.8 21.9005 49.8 20.0861C49.8 18.2717 50.2385 16.6422 51.1148 15.1977C52.0096 13.7532 53.206 12.6258 54.7035 11.8155C56.2191 11.0052 57.8812 10.6 59.6892 10.6C61.4973 10.6 63.15 11.0052 64.6476 11.8155C66.1637 12.6258 67.3504 13.7532 68.2088 15.1977C69.0855 16.6422 69.5236 18.2717 69.5236 20.0861C69.5236 21.9005 69.0855 23.5387 68.2088 25.0009C67.3324 26.4454 66.1451 27.5727 64.6476 28.3832C63.15 29.1934 61.4973 29.5986 59.6892 29.5986ZM59.6892 25.4765C61.2232 25.4765 62.4469 24.9833 63.3599 23.9968C64.2916 23.0103 64.7572 21.7067 64.7572 20.0861C64.7572 18.4478 64.2916 17.1442 63.3599 16.1754C62.4469 15.1889 61.2232 14.6957 59.6892 14.6957C58.1367 14.6957 56.8951 15.1801 55.9637 16.1489C55.0504 17.1178 54.5939 18.4302 54.5939 20.0861C54.5939 21.7243 55.0504 23.0367 55.9637 24.0232C56.8951 24.9921 58.1367 25.4765 59.6892 25.4765Z" fill="white"/>
<path fill-rule="evenodd" clip-rule="evenodd" d="M76.8144 16.7567C77.2709 16.0697 77.901 15.5147 78.7045 15.092C79.508 14.6692 80.4484 14.4578 81.5262 14.4578C82.7861 14.4578 83.9277 14.7661 84.9504 15.3826C85.9728 15.9992 86.7766 16.88 87.3609 18.025C87.9637 19.17 88.2648 20.5001 88.2648 22.015C88.2648 23.53 87.9637 24.8687 87.3609 26.0314C86.7766 27.1764 85.9728 28.066 84.9504 28.7002C83.9277 29.3168 82.7861 29.625 81.5262 29.625C80.4668 29.625 79.5266 29.4136 78.7045 28.9908C77.901 28.568 77.2709 28.0219 76.8144 27.3525V33.8H72.1301V14.6692H76.8144V16.7567ZM83.4984 22.015C83.4984 20.8876 83.1697 20.0068 82.5121 19.3726C81.8728 18.7209 81.0785 18.395 80.1289 18.395C79.1976 18.395 78.4033 18.7209 77.7457 19.3726C77.1064 20.0244 76.7869 20.9139 76.7869 22.0414C76.7869 23.1688 77.1064 24.0585 77.7457 24.7102C78.4033 25.362 79.1976 25.6879 80.1289 25.6879C81.0605 25.6879 81.8549 25.362 82.5121 24.7102C83.1697 24.0408 83.4984 23.1424 83.4984 22.015Z" fill="white"/>
<path fill-rule="evenodd" clip-rule="evenodd" d="M105.05 23.1248C105.104 22.6668 105.132 22.2263 105.132 21.8036C105.132 20.3239 104.803 19.0291 104.146 17.9193C103.506 16.8095 102.612 15.9552 101.461 15.3562C100.31 14.7573 98.9957 14.4578 97.5164 14.4578C96.0004 14.4578 94.658 14.7661 93.4892 15.3826C92.3205 15.9992 91.4072 16.88 90.75 18.025C90.1107 19.17 89.7912 20.5089 89.7912 22.0414C89.7912 23.574 90.1199 24.9128 90.7771 26.0578C91.4348 27.2028 92.348 28.0837 93.5168 28.7002C94.6855 29.3168 96.0187 29.625 97.5164 29.625C98.758 29.625 99.8812 29.4048 100.886 28.9644C101.89 28.524 102.721 27.9163 103.379 27.1412C104.054 26.3661 104.52 25.4941 104.776 24.5253H99.79C99.3332 25.4764 98.5209 25.9521 97.3519 25.9521C96.5664 25.9521 95.9 25.7143 95.3519 25.2386C94.8224 24.7454 94.5213 24.0408 94.448 23.1248H105.05ZM99.516 18.7648C100.064 19.2228 100.338 19.8394 100.338 20.6145H94.4756C94.6031 19.8042 94.932 19.1788 95.4615 18.7385C96.0096 18.298 96.676 18.0779 97.4615 18.0779C98.2832 18.0779 98.968 18.3069 99.516 18.7648Z" fill="white"/>
<path d="M116.917 14.5107C118.707 14.5107 120.131 15.0744 121.19 16.2018C122.268 17.3116 122.807 18.8442 122.807 20.7996V29.4136H118.15V21.4073C118.15 20.4208 117.885 19.6546 117.355 19.1085C116.826 18.5623 116.113 18.2892 115.219 18.2892C114.323 18.2892 113.612 18.5623 113.082 19.1085C112.552 19.6546 112.287 20.4208 112.287 21.4073V29.4136H107.603V14.6692H112.287V16.6246C112.762 15.9728 113.402 15.462 114.205 15.0921C115.008 14.7045 115.912 14.5107 116.917 14.5107Z" fill="white"/>
<path d="M129.24 28.9381C130.354 29.3784 131.614 29.5986 133.02 29.5986C134.463 29.5986 135.714 29.3431 136.773 28.8323C137.832 28.3215 138.636 27.6344 139.184 26.7713C139.75 25.9081 140.033 24.948 140.033 23.8911C140.033 22.7813 139.75 21.8741 139.184 21.1694C138.618 20.4648 137.942 19.9275 137.156 19.5576C136.39 19.1877 135.385 18.8002 134.143 18.395C132.901 18.0074 131.988 17.6463 131.404 17.3116C130.819 16.9769 130.527 16.51 130.527 15.9111C130.527 15.365 130.701 14.951 131.048 14.6692C131.395 14.3697 131.851 14.22 132.417 14.22C133.075 14.22 133.614 14.3962 134.034 14.7485C134.454 15.0832 134.682 15.55 134.718 16.1489H139.787C139.695 14.405 139.001 13.0486 137.704 12.0797C136.408 11.0932 134.7 10.6 132.582 10.6C130.5 10.6 128.811 11.0932 127.514 12.0797C126.217 13.0486 125.569 14.3962 125.569 16.1225C125.569 17.2851 125.852 18.2276 126.418 18.9499C126.984 19.6721 127.66 20.2182 128.445 20.5882C129.23 20.9581 130.244 21.328 131.486 21.6979C131.946 21.8302 132.349 21.9548 132.694 22.0718C132.992 22.173 133.246 22.2686 133.458 22.3586C133.933 22.5523 134.326 22.7989 134.637 23.0984C134.965 23.3978 135.13 23.7765 135.13 24.2346C135.13 24.7807 134.929 25.2123 134.527 25.5294C134.125 25.8288 133.577 25.9786 132.883 25.9786C132.207 25.9786 131.66 25.8024 131.24 25.4501C130.819 25.0802 130.573 24.5517 130.5 23.8646H125.514C125.55 25.0802 125.898 26.1195 126.555 26.9827C127.231 27.8459 128.126 28.4976 129.24 28.9381Z" fill="white"/>
<path fill-rule="evenodd" clip-rule="evenodd" d="M157.325 21.8036C157.325 22.2263 157.298 22.6668 157.243 23.1248H146.641C146.714 24.0408 147.016 24.7454 147.545 25.2386C148.093 25.7143 148.76 25.9521 149.545 25.9521C150.714 25.9521 151.527 25.4764 151.983 24.5253H156.969C156.713 25.4941 156.248 26.3661 155.572 27.1412C154.914 27.9163 154.084 28.524 153.079 28.9644C152.074 29.4048 150.951 29.625 149.71 29.625C148.212 29.625 146.879 29.3168 145.71 28.7002C144.541 28.0837 143.628 27.2028 142.97 26.0578C142.313 24.9128 141.984 23.574 141.984 22.0414C141.984 20.5089 142.304 19.17 142.943 18.025C143.6 16.88 144.513 15.9992 145.682 15.3826C146.851 14.7661 148.194 14.4578 149.71 14.4578C151.189 14.4578 152.504 14.7573 153.654 15.3562C154.805 15.9552 155.7 16.8095 156.339 17.9193C156.996 19.0291 157.325 20.3239 157.325 21.8036ZM152.531 20.6145C152.531 19.8394 152.257 19.2228 151.709 18.7648C151.161 18.3069 150.476 18.0779 149.655 18.0779C148.87 18.0779 148.203 18.298 147.655 18.7385C147.125 19.1788 146.796 19.8042 146.669 20.6145H152.531Z" fill="white"/>
<path fill-rule="evenodd" clip-rule="evenodd" d="M159.742 18.025C159.157 19.17 158.865 20.5001 158.865 22.015C158.865 23.53 159.157 24.8687 159.742 26.0314C160.344 27.1764 161.157 28.066 162.18 28.7002C163.203 29.3168 164.334 29.625 165.576 29.625C166.654 29.625 167.595 29.4136 168.398 28.9908C169.22 28.568 169.859 28.0132 170.316 27.3261V29.4136H175V14.6692H170.316V16.7567C169.877 16.0697 169.247 15.5147 168.426 15.092C167.622 14.6692 166.681 14.4578 165.604 14.4578C164.344 14.4578 163.203 14.7661 162.18 15.3826C161.157 15.9992 160.344 16.88 159.742 18.025ZM169.33 19.3726C169.987 20.0244 170.316 20.9139 170.316 22.0414C170.316 23.1688 169.987 24.0585 169.33 24.7102C168.69 25.362 167.905 25.6879 166.974 25.6879C166.042 25.6879 165.248 25.362 164.59 24.7102C163.951 24.0408 163.632 23.1424 163.632 22.015C163.632 20.8876 163.951 20.0068 164.59 19.3726C165.248 18.7209 166.042 18.395 166.974 18.395C167.905 18.395 168.69 18.7209 169.33 19.3726Z" fill="white"/>
</g>
</g>
</svg>
