<svg width="100" height="100" viewBox="0 0 100 100" fill="none" xmlns="http://www.w3.org/2000/svg">
<g filter="url(#filter0_b_104_2197)">
<circle cx="50" cy="50" r="50" fill="#B6F3A5" fill-opacity="0.1"/>
<circle cx="50" cy="50" r="49.5" stroke="#B6F3A5" stroke-opacity="0.1"/>
</g>
<path fill-rule="evenodd" clip-rule="evenodd" d="M64.5833 51.5608C63.446 52.3546 61.8692 52.244 60.8543 51.2291L58.2324 48.6071H31.25V56.2857C31.25 60.4081 34.4006 63.75 38.287 63.75H57.5463C61.4327 63.75 64.5833 60.4081 64.5833 56.2857V51.5608ZM60.3858 36.8826C59.5173 36.4759 58.5567 36.25 57.5463 36.25H38.287C34.4006 36.25 31.25 39.5919 31.25 43.7143V46.25H56.1139C55.6005 45.1672 55.7917 43.8335 56.6876 42.9376C57.5835 42.0417 58.9172 41.8505 60 42.3639V38.3333C60 37.8052 60.1404 37.3099 60.3858 36.8826Z" fill="#0CE93C"/>
<path fill-rule="evenodd" clip-rule="evenodd" d="M62.0328 50.0505C62.5209 50.5387 63.3124 50.5387 63.8005 50.0505L67.9672 45.8838C68.4554 45.3957 68.4554 44.6042 67.9672 44.1161C67.4791 43.6279 66.6876 43.6279 66.1994 44.1161L64.1667 46.1489L64.1667 38.3333C64.1667 37.6429 63.607 37.0833 62.9167 37.0833C62.2263 37.0833 61.6667 37.6429 61.6667 38.3333L61.6667 46.1489L59.6339 44.1161C59.1457 43.6279 58.3543 43.6279 57.8661 44.1161C57.378 44.6042 57.378 45.3957 57.8661 45.8838L62.0328 50.0505Z" fill="#0CE93C"/>
<g filter="url(#filter1_b_104_2197)">
<path d="M14.608 14.208C12.032 14.208 10.544 12.224 10.544 8.864C10.544 5.424 12.064 3.504 14.608 3.504C17.168 3.504 18.656 5.488 18.656 8.864C18.656 12.304 17.136 14.208 14.608 14.208ZM14.608 12.752C16.096 12.752 16.912 11.376 16.912 8.864C16.912 6.368 16.08 4.96 14.608 4.96C13.12 4.96 12.288 6.336 12.288 8.864C12.288 11.328 13.12 12.752 14.608 12.752ZM21.2828 14V12.672H23.2348V5.92H21.2828V4.608H22.3228C23.2668 4.608 23.5228 4.384 23.5228 3.888V3.712H25.0268V12.672H26.9628V14H21.2828Z" fill="white"/>
</g>
<defs>
<filter id="filter0_b_104_2197" x="-34" y="-34" width="168" height="168" filterUnits="userSpaceOnUse" color-interpolation-filters="sRGB">
<feFlood flood-opacity="0" result="BackgroundImageFix"/>
<feGaussianBlur in="BackgroundImageFix" stdDeviation="17"/>
<feComposite in2="SourceAlpha" operator="in" result="effect1_backgroundBlur_104_2197"/>
<feBlend mode="normal" in="SourceGraphic" in2="effect1_backgroundBlur_104_2197" result="shape"/>
</filter>
<filter id="filter1_b_104_2197" x="-13.456" y="-20.496" width="64.4188" height="58.704" filterUnits="userSpaceOnUse" color-interpolation-filters="sRGB">
<feFlood flood-opacity="0" result="BackgroundImageFix"/>
<feGaussianBlur in="BackgroundImageFix" stdDeviation="12"/>
<feComposite in2="SourceAlpha" operator="in" result="effect1_backgroundBlur_104_2197"/>
<feBlend mode="normal" in="SourceGraphic" in2="effect1_backgroundBlur_104_2197" result="shape"/>
</filter>
</defs>
</svg>
