<svg width="40" height="40" viewBox="0 0 40 40" fill="none" xmlns="http://www.w3.org/2000/svg">
<path fill-rule="evenodd" clip-rule="evenodd" d="M36.6666 22.0834C37.357 22.0834 37.9166 22.643 37.9166 23.3334C37.9166 29.5371 33.5564 34.7111 27.7295 35.9618L28.3839 36.6162C28.872 37.1043 28.872 37.8958 28.3839 38.3839C27.8957 38.8721 27.1042 38.8721 26.6161 38.3839L24.1161 35.8839C23.7105 35.4783 23.633 34.8488 23.9281 34.3569L25.6781 31.4403C26.0333 30.8483 26.8011 30.6563 27.3931 31.0115C27.985 31.3667 28.177 32.1345 27.8218 32.7265L27.3696 33.4801C31.9848 32.4094 35.4166 28.2777 35.4166 23.3334C35.4166 22.643 35.9763 22.0834 36.6666 22.0834Z" fill="#0CE93C"/>
<path fill-rule="evenodd" clip-rule="evenodd" d="M3.33331 18.75C2.64295 18.75 2.08331 18.1904 2.08331 17.5C2.08331 11.2963 6.44359 6.12223 12.2704 4.87155L11.6161 4.21722C11.1279 3.72906 11.1279 2.9376 11.6161 2.44945C12.1042 1.9613 12.8957 1.9613 13.3839 2.44945L15.8839 4.94945C16.2894 5.35503 16.3669 5.9846 16.0718 6.47645L14.3219 9.39311C13.9667 9.98509 13.1989 10.1771 12.6069 9.82187C12.0149 9.46669 11.8229 8.69886 12.1781 8.10689L12.6303 7.35323C8.01514 8.42394 4.58331 12.5557 4.58331 17.5C4.58331 18.1904 4.02366 18.75 3.33331 18.75Z" fill="#0CE93C"/>
<path fill-rule="evenodd" clip-rule="evenodd" d="M18.75 8.01674H37.9167V10.5167H18.75V8.01674ZM18.75 7.50008C18.75 4.96878 20.802 2.91675 23.3333 2.91675H33.3333C35.8646 2.91675 37.9167 4.96878 37.9167 7.50008V14.1667C37.9167 16.6981 35.8646 18.7501 33.3333 18.7501H23.3333C20.802 18.7501 18.75 16.6981 18.75 14.1667V7.50008Z" fill="#0CE93C"/>
<path fill-rule="evenodd" clip-rule="evenodd" d="M2.08331 26.35H21.25V28.85H2.08331V26.35ZM2.08331 25.8333C2.08331 23.302 4.13534 21.25 6.66665 21.25H16.6666C19.198 21.25 21.25 23.302 21.25 25.8333V32.5C21.25 35.0313 19.198 37.0833 16.6666 37.0833H6.66665C4.13534 37.0833 2.08331 35.0313 2.08331 32.5V25.8333Z" fill="#0CE93C"/>
</svg>
