<svg width="58" height="58" viewBox="0 0 58 58" fill="none" xmlns="http://www.w3.org/2000/svg">
<g id="Uniswap (UNI)">
<g id="Uniswap (UNI)_2">
<path id="Uniswap (UNI)_3" d="M55.5094 35.6123L55.4763 35.7453C51.7693 50.3089 36.984 59.1553 22.3838 55.5149C7.74542 51.8644 -1.16601 37.0326 2.48612 22.3909L2.48616 22.3907C6.1351 7.74619 20.966 -1.16578 35.6059 2.48472L35.606 2.48472C50.2495 6.13524 59.1604 20.9687 55.5094 35.6123Z" fill="url(#paint0_linear_1_1003)" stroke="#FFD9EC" stroke-width="1.33333"/>
<g id="Uniswap (UNI)_4">
<path id="Uniswap (UNI)_5" d="M24.5821 18.2937C24.203 18.2395 24.185 18.2215 24.3655 18.2034C24.7085 18.1493 25.5027 18.2215 26.0623 18.3478C27.3619 18.6547 28.5352 19.4489 29.7807 20.8388L30.1056 21.2179L30.5749 21.1457C32.5785 20.8208 34.6363 21.0735 36.3511 21.8677C36.8204 22.0843 37.5604 22.5175 37.6507 22.6258C37.6868 22.6619 37.741 22.8966 37.7771 23.1312C37.9034 23.9796 37.8493 24.6114 37.5785 25.0987C37.4341 25.3695 37.4341 25.4417 37.5243 25.6764C37.5965 25.8569 37.8132 25.9832 38.0117 25.9832C38.4449 25.9832 38.8962 25.2973 39.1128 24.3406L39.203 23.9616L39.3655 24.1421C40.2861 25.1709 41.0081 26.5969 41.1164 27.6078L41.1525 27.8785L40.9901 27.6439C40.7193 27.2287 40.4666 26.9579 40.1236 26.7233C39.5099 26.3081 38.8601 26.1818 37.1453 26.0915C35.5929 26.0013 34.7085 25.8749 33.842 25.5861C32.3619 25.0987 31.6038 24.467 29.8529 22.1385C29.0767 21.1096 28.5893 20.55 28.102 20.0807C27.037 19.0518 25.972 18.5103 24.5821 18.2937Z" fill="#FF007A"/>
<path id="Uniswap (UNI)_6" d="M38.0296 20.5861C38.0657 19.9002 38.1559 19.4489 38.3545 19.0337C38.4267 18.8713 38.4989 18.7269 38.5169 18.7269C38.535 18.7269 38.4989 18.8532 38.4447 18.9976C38.3003 19.3947 38.2823 19.9543 38.3725 20.5861C38.4989 21.3983 38.553 21.5067 39.4195 22.3911C39.8166 22.8063 40.2859 23.3298 40.4664 23.5464L40.7732 23.9435L40.4664 23.6547C40.0873 23.2937 39.2209 22.6077 39.0223 22.5175C38.896 22.4453 38.8779 22.4453 38.7877 22.5355C38.7155 22.6077 38.6974 22.716 38.6974 23.2395C38.6794 24.0518 38.5711 24.5572 38.3003 25.0807C38.1559 25.3514 38.1379 25.2973 38.2642 24.9904C38.3545 24.7557 38.3725 24.6474 38.3725 23.8713C38.3725 22.3009 38.192 21.9218 37.0909 21.29C36.8202 21.1276 36.3509 20.8929 36.0801 20.7666C35.7913 20.6402 35.5747 20.5319 35.5927 20.5319C35.6288 20.4958 36.6938 20.8027 37.109 20.9832C37.7408 21.2359 37.8491 21.2539 37.9213 21.2359C37.9754 21.1817 38.0115 21.0373 38.0296 20.5861Z" fill="#FF007A"/>
<path id="Uniswap (UNI)_7" d="M25.3221 23.2757C24.564 22.2288 24.0766 20.6043 24.1849 19.3949L24.221 19.0158L24.4015 19.0519C24.7264 19.1061 25.286 19.3227 25.5568 19.4851C26.2788 19.9183 26.6037 20.514 26.9105 21.9941C27.0008 22.4274 27.1272 22.9328 27.1813 23.0952C27.2716 23.366 27.6145 23.9978 27.9033 24.3949C28.1019 24.6837 27.9755 24.8281 27.5243 24.792C26.8383 24.7198 25.9178 24.088 25.3221 23.2757Z" fill="#FF007A"/>
<path id="Uniswap (UNI)_8" d="M37.1091 31.1276C33.5351 29.6835 32.2715 28.438 32.2715 26.3261C32.2715 26.0192 32.2896 25.7665 32.2896 25.7665C32.3076 25.7665 32.434 25.8748 32.5964 26.0012C33.3185 26.5788 34.1307 26.8315 36.3871 27.1564C37.7047 27.355 38.4629 27.4994 39.1488 27.734C41.3329 28.4561 42.6867 29.9362 43.0116 31.9398C43.1019 32.5174 43.0477 33.6185 42.9033 34.1961C42.7769 34.6474 42.4159 35.4777 42.3257 35.4958C42.3076 35.4958 42.2715 35.4055 42.2715 35.2611C42.2354 34.503 41.8564 33.781 41.2246 33.2214C40.4665 32.5716 39.4917 32.0842 37.1091 31.1276Z" fill="#FF007A"/>
<path id="Uniswap (UNI)_9" d="M34.5821 31.7233C34.546 31.4526 34.4558 31.1096 34.4016 30.9652L34.3114 30.6945L34.4738 30.893C34.7085 31.1638 34.889 31.4887 35.0515 31.9399C35.1778 32.2829 35.1778 32.3912 35.1778 32.9508C35.1778 33.4923 35.1598 33.6186 35.0515 33.9255C34.8709 34.4129 34.6543 34.7558 34.2933 35.1349C33.6435 35.8028 32.7951 36.1638 31.5857 36.3262C31.3691 36.3443 30.7554 36.3984 30.2139 36.4345C28.8601 36.5067 27.9576 36.6511 27.1453 36.9399C27.037 36.976 26.9287 37.0121 26.9107 36.9941C26.8746 36.958 27.4341 36.6331 27.8854 36.4165C28.5172 36.1096 29.167 35.9472 30.593 35.6945C31.2969 35.5862 32.019 35.4418 32.1995 35.3695C33.9865 34.81 34.8709 33.4201 34.5821 31.7233Z" fill="#FF007A"/>
<path id="Uniswap (UNI)_10" d="M36.2249 34.6295C35.7556 33.6006 35.6473 32.6259 35.9 31.7053C35.9361 31.615 35.9722 31.5248 36.0083 31.5248C36.0444 31.5248 36.1527 31.5789 36.261 31.6511C36.4776 31.7955 36.9289 32.0482 38.0841 32.68C39.5462 33.4742 40.3765 34.088 40.9541 34.7919C41.4596 35.4056 41.7664 36.1096 41.9108 36.976C42.0011 37.4634 41.9469 38.6367 41.8206 39.1241C41.4235 40.6584 40.5209 41.8858 39.2032 42.5898C39.0047 42.6981 38.8422 42.7703 38.8242 42.7703C38.8061 42.7703 38.8783 42.5898 38.9866 42.3732C39.4198 41.4526 39.474 40.5681 39.1491 39.5753C38.9505 38.9616 38.5354 38.2215 37.705 36.976C36.7123 35.532 36.4776 35.1529 36.2249 34.6295Z" fill="#FF007A"/>
<path id="Uniswap (UNI)_11" d="M22.7774 40.153C24.1131 39.0339 25.7557 38.2397 27.272 37.987C27.9218 37.8787 29.0048 37.9148 29.6005 38.0772C30.5572 38.3299 31.4236 38.8714 31.8749 39.5393C32.3081 40.1891 32.5066 40.7487 32.7052 41.9942C32.7774 42.4815 32.8676 42.987 32.8857 43.0953C33.0301 43.7451 33.3189 44.2505 33.6799 44.5213C34.2395 44.9364 35.2142 44.9545 36.1709 44.5935C36.3334 44.5393 36.4778 44.4852 36.4778 44.5032C36.5139 44.5393 36.0265 44.8642 35.7016 45.0267C35.2503 45.2613 34.8893 45.3335 34.4019 45.3335C33.5355 45.3335 32.7954 44.8823 32.1998 43.9797C32.0734 43.7992 31.8207 43.2758 31.6041 42.7884C30.9723 41.3263 30.6474 40.8931 29.9074 40.4057C29.2575 39.9906 28.4272 39.9003 27.7954 40.2072C26.9651 40.6043 26.7485 41.6693 27.3261 42.3191C27.5608 42.5898 27.994 42.8065 28.355 42.8606C29.0229 42.9509 29.6005 42.4274 29.6005 41.7595C29.6005 41.3263 29.438 41.0736 29.0048 40.875C28.4272 40.6223 27.7954 40.9111 27.8135 41.4707C27.8135 41.7054 27.9218 41.8498 28.1565 41.9581C28.3009 42.0303 28.3009 42.0303 28.1926 42.0122C27.6691 41.9039 27.5427 41.2541 27.9579 40.8389C28.4633 40.3335 29.5283 40.5501 29.8893 41.2541C30.0337 41.5429 30.0518 42.1205 29.9254 42.4815C29.6185 43.2758 28.7521 43.6909 27.8676 43.4563C27.272 43.2938 27.0193 43.1314 26.2972 42.3913C25.0337 41.0916 24.5463 40.8389 22.7413 40.5682L22.3983 40.514L22.7774 40.153Z" fill="#FF007A"/>
<path id="Uniswap (UNI)_12" fill-rule="evenodd" clip-rule="evenodd" d="M13.2821 11.1096C17.4879 16.2179 23.968 24.1602 24.2929 24.5934C24.5637 24.9544 24.4554 25.2973 24.0041 25.55C23.7514 25.6944 23.2279 25.8389 22.9752 25.8389C22.6864 25.8389 22.3434 25.6944 22.1088 25.4598C21.9463 25.2973 21.2424 24.2685 19.6539 21.7955C18.4445 19.9002 17.4157 18.3298 17.3976 18.3118C17.3254 18.2757 17.3254 18.2757 19.5276 22.2107C20.9175 24.6836 21.3687 25.5681 21.3687 25.6764C21.3687 25.9111 21.2965 26.0374 21.0077 26.3623C20.5203 26.9038 20.3037 27.5176 20.1413 28.7991C19.9608 30.2251 19.4734 31.236 18.0835 32.9508C17.2712 33.9616 17.1449 34.1421 16.9463 34.5573C16.6936 35.0627 16.6214 35.3515 16.5853 36.0013C16.5492 36.6872 16.6214 37.1204 16.82 37.7703C17.0005 38.3479 17.199 38.7269 17.6864 39.467C18.1016 40.1168 18.3543 40.6042 18.3543 40.7847C18.3543 40.9291 18.3904 40.9291 19.0402 40.7847C20.5925 40.4237 21.8741 39.81 22.5781 39.0518C23.0113 38.5825 23.1196 38.3298 23.1196 37.68C23.1196 37.2648 23.1016 37.1746 22.9933 36.9219C22.8128 36.5248 22.4698 36.1999 21.7297 35.6944C20.755 35.0266 20.3398 34.4851 20.2315 33.763C20.1413 33.1493 20.2496 32.7342 20.7911 31.597C21.3507 30.4237 21.4951 29.9363 21.5853 28.745C21.6395 27.9869 21.7297 27.68 21.9463 27.4453C22.181 27.1926 22.3796 27.1024 22.9391 27.0302C23.8597 26.9038 24.4554 26.6692 24.9247 26.2179C25.3398 25.8389 25.5203 25.4598 25.5384 24.9002L25.5564 24.4851L25.3218 24.2324C24.4734 23.2576 12.7225 10.3334 12.6684 10.3334C12.6503 10.3334 12.9391 10.6764 13.2821 11.1096ZM18.8243 36.7774C19.0229 36.4344 18.9146 36.0012 18.5897 35.7846C18.2828 35.5861 17.8135 35.6763 17.8135 35.9471C17.8135 36.0193 17.8496 36.0915 17.9579 36.1276C18.1204 36.2178 18.1384 36.3081 18.0121 36.5066C17.8857 36.7052 17.8857 36.8857 18.0482 37.012C18.3009 37.2106 18.6438 37.1023 18.8243 36.7774Z" fill="#FF007A"/>
<path id="Uniswap (UNI)_13" fill-rule="evenodd" clip-rule="evenodd" d="M26.1342 27.2828C25.701 27.4091 25.2859 27.8784 25.1595 28.3478C25.0873 28.6366 25.1234 29.16 25.2498 29.3225C25.4483 29.5752 25.6288 29.6474 26.1342 29.6474C27.127 29.6474 27.9754 29.2142 28.0656 28.6907C28.1559 28.2575 27.7768 27.6618 27.2534 27.3911C26.9826 27.2467 26.423 27.1925 26.1342 27.2828ZM27.2895 28.1852C27.4339 27.9685 27.3798 27.7339 27.109 27.5714C26.6216 27.2646 25.8816 27.5173 25.8816 27.9866C25.8816 28.2213 26.2606 28.474 26.6216 28.474C26.8563 28.474 27.1812 28.3296 27.2895 28.1852Z" fill="#FF007A"/>
</g>
</g>
</g>
<defs>
<linearGradient id="paint0_linear_1_1003" x1="1.00072" y1="1" x2="1.00072" y2="57" gradientUnits="userSpaceOnUse">
<stop stop-color="#FEF3F9"/>
<stop offset="1" stop-color="#FDE5F2"/>
</linearGradient>
</defs>
</svg>
