<svg width="58" height="58" viewBox="0 0 58 58" fill="none" xmlns="http://www.w3.org/2000/svg">
<g id="USD Coin (USDC)">
<g id="USD Coin (USDC)_2">
<path id="USD Coin (USDC)_3" d="M29 57C44.5168 57 57 44.5168 57 29C57 13.4832 44.5168 1 29 1C13.4832 1 1 13.4832 1 29C1 44.5168 13.4832 57 29 57Z" fill="#2775CA"/>
<path id="USD Coin (USDC)_4" d="M36.7004 33.4332C36.7004 29.35 34.2504 27.95 29.3504 27.3667C25.8504 26.9 25.1504 25.9667 25.1504 24.3332C25.1504 22.6997 26.3172 21.65 28.6504 21.65C30.7504 21.65 31.9172 22.35 32.5004 24.1C32.6172 24.45 32.9672 24.6832 33.3172 24.6832H35.1836C35.6504 24.6832 36.0004 24.3332 36.0004 23.8667V23.75C35.5336 21.1832 33.4336 19.2 30.7504 18.9667V16.1667C30.7504 15.7 30.4004 15.35 29.8172 15.2332H28.0672C27.6004 15.2332 27.2504 15.5832 27.1336 16.1667V18.85C23.6336 19.3167 21.4172 21.65 21.4172 24.5667C21.4172 28.4167 23.7504 29.9332 28.6504 30.5167C31.9172 31.1 32.9672 31.8 32.9672 33.6667C32.9672 35.5335 31.3336 36.8167 29.1172 36.8167C26.0836 36.8167 25.0336 35.5332 24.6836 33.7832C24.5672 33.3167 24.2172 33.0832 23.8672 33.0832H21.8836C21.4172 33.0832 21.0672 33.4332 21.0672 33.9V34.0167C21.5336 36.9332 23.4004 39.0332 27.2504 39.6167V42.4167C27.2504 42.8832 27.6004 43.2332 28.1836 43.35H29.9336C30.4004 43.35 30.7504 43 30.8672 42.4167V39.6167C34.3672 39.0332 36.7004 36.5832 36.7004 33.4332Z" fill="white"/>
<path id="USD Coin (USDC)_5" fill-rule="evenodd" clip-rule="evenodd" d="M12.6669 23.2833C9.28341 32.2669 13.9502 42.4169 23.0502 45.6834C23.4002 45.9169 23.7502 46.3834 23.7502 46.7334V48.3669C23.7502 48.6001 23.7502 48.7169 23.6334 48.8334C23.5169 49.3001 23.0502 49.5334 22.5834 49.3001C16.0502 47.2001 11.0334 42.1833 8.93341 35.6501C5.43341 24.5669 11.5002 12.7834 22.5834 9.28335C22.7002 9.16687 22.9334 9.16687 23.0502 9.16687C23.5169 9.28335 23.7502 9.63335 23.7502 10.1001V11.7334C23.7502 12.3169 23.5169 12.6669 23.0502 12.9001C18.2669 14.6501 14.4169 18.3834 12.6669 23.2833ZM34.3666 9.7502C34.4831 9.28344 34.9498 9.0502 35.4166 9.28344C41.8331 11.3834 46.9666 16.4002 49.0666 23.0502C52.5666 34.1334 46.4998 45.917 35.4166 49.417C35.2998 49.5334 35.0666 49.5334 34.9498 49.5334C34.4831 49.417 34.2498 49.067 34.2498 48.6002V46.967C34.2498 46.3834 34.4831 46.0334 34.9498 45.8002C39.7331 44.0502 43.5831 40.317 45.3331 35.417C48.7166 26.4334 44.0498 16.2834 34.9498 13.017C34.5998 12.7834 34.2498 12.317 34.2498 11.8502V10.217C34.2498 9.98344 34.2498 9.86696 34.3666 9.7502Z" fill="white"/>
</g>
</g>
</svg>
