<svg width="21" height="21" viewBox="0 0 21 21" fill="none" xmlns="http://www.w3.org/2000/svg">
<path fill-rule="evenodd" clip-rule="evenodd" d="M6.7794 5.07642C6.51566 5.07642 6.2579 5.09636 6.00677 5.13721C3.50616 5.47826 1.98773 7.48948 1.98773 10.1346V14.6016C1.98773 16.0555 2.44069 17.3208 3.28992 18.2313C4.14539 19.1484 5.36199 19.6597 6.7794 19.6597H15.1127C16.5301 19.6597 17.7467 19.1484 18.6022 18.2313C19.4514 17.3208 19.9044 16.0555 19.9044 14.6016V14.5666C19.7634 14.6268 19.6106 14.6597 19.451 14.6597H16.5098C15.393 14.6597 14.4877 13.6337 14.4877 12.3681C14.4877 11.1024 15.393 10.0764 16.5098 10.0764H19.451C19.6106 10.0764 19.7634 10.1093 19.9044 10.1695V10.1346C19.9044 7.47114 18.36 5.4509 15.8361 5.12825C15.5858 5.08513 15.3388 5.07642 15.1127 5.07642H6.7794ZM16.5098 13.4097C16.0022 13.4097 15.5907 12.9434 15.5907 12.3681C15.5907 11.7928 16.0022 11.3264 16.5098 11.3264H19.451C19.5525 11.3264 19.6348 11.4197 19.6348 11.5347V13.2014C19.6348 13.3165 19.5525 13.4097 19.451 13.4097H16.5098Z" fill="#030312"/>
<path fill-rule="evenodd" clip-rule="evenodd" d="M14.2122 1.73783C13.5187 0.687067 12.1075 0.39252 11.0515 1.07817L6.10742 4.28864C6.32663 4.25805 6.55075 4.24306 6.77936 4.24306H15.1127C15.3387 4.24306 15.5857 4.25177 15.836 4.29489C15.8595 4.29789 15.8829 4.30104 15.9061 4.30433L14.2122 1.73783Z" fill="#030312"/>
</svg>
