<svg width="36" height="36" viewBox="0 0 36 36" fill="none" xmlns="http://www.w3.org/2000/svg">
<g id="chart">
<path id="Subtract" fill-rule="evenodd" clip-rule="evenodd" d="M9.66668 0.083374C4.37395 0.083374 0.0833435 4.37398 0.0833435 9.66671V26.3334C0.0833435 31.6261 4.37395 35.9167 9.66668 35.9167H26.3333C31.6261 35.9167 35.9167 31.6261 35.9167 26.3334V9.66671C35.9167 4.37398 31.6261 0.083374 26.3333 0.083374H9.66668ZM24.5 14.4167C23.5796 14.4167 22.8334 15.1629 22.8334 16.0834V27.0001H29.15V16.0834C29.15 15.1629 28.4039 14.4167 27.4834 14.4167H24.5ZM6.86669 19.9167C6.86669 18.9962 7.61288 18.25 8.53336 18.25H11.5167C12.4372 18.25 13.1834 18.9962 13.1834 19.9167V27.0167H6.86669V19.9167ZM16.7354 9H19.2688C20.3188 9 21.1521 9.85002 21.1521 10.9V27.0001H14.8354V10.9C14.8354 9.85002 15.6854 9 16.7354 9Z" fill="#0CE93C"/>
</g>
</svg>
