<svg width="100" height="100" viewBox="0 0 100 100" fill="none" xmlns="http://www.w3.org/2000/svg">
<g filter="url(#filter0_b_104_2200)">
<circle cx="50" cy="50" r="50" fill="#B6F3A5" fill-opacity="0.1"/>
<circle cx="50" cy="50" r="49.5" stroke="#B6F3A5" stroke-opacity="0.1"/>
</g>
<path fill-rule="evenodd" clip-rule="evenodd" d="M35 42.0834C32.4687 42.0834 30.4167 44.2769 30.4167 46.9828V63.0173C30.4167 65.7232 32.4687 67.9167 35 67.9167H65C67.5313 67.9167 69.5833 65.7232 69.5833 63.0173V46.9828C69.5833 44.2769 67.5313 42.0834 65 42.0834H35ZM47 55C47 53.3432 48.3432 52 50 52C51.6569 52 53 53.3432 53 55C53 56.6569 51.6569 58 50 58C48.3432 58 47 56.6569 47 55ZM50 50C47.2386 50 45 52.2386 45 55C45 57.7615 47.2386 60 50 60C52.7614 60 55 57.7615 55 55C55 52.2386 52.7614 50 50 50ZM67.9167 49.1667C67.9167 49.8571 67.357 50.4167 66.6667 50.4167H65.8334C62.8418 50.4167 60.4167 47.9916 60.4167 45C60.4167 44.3097 60.9763 43.75 61.6667 43.75C62.357 43.75 62.9167 44.3097 62.9167 45C62.9167 46.6109 64.2225 47.9167 65.8334 47.9167H66.6667C67.357 47.9167 67.9167 48.4764 67.9167 49.1667ZM66.6667 59.5834C67.357 59.5834 67.9167 60.143 67.9167 60.8334C67.9167 61.5237 67.357 62.0834 66.6667 62.0834H65.8334C64.2225 62.0834 62.9167 63.3892 62.9167 65C62.9167 65.6904 62.357 66.25 61.6667 66.25C60.9763 66.25 60.4167 65.6904 60.4167 65C60.4167 62.0085 62.8418 59.5834 65.8334 59.5834H66.6667ZM32.0834 49.1667C32.0834 49.8571 32.643 50.4167 33.3334 50.4167H34.1667C37.1582 50.4167 39.5834 47.9916 39.5834 45C39.5834 44.3097 39.0237 43.75 38.3334 43.75C37.643 43.75 37.0834 44.3097 37.0834 45C37.0834 46.6109 35.7775 47.9167 34.1667 47.9167H33.3334C32.643 47.9167 32.0834 48.4764 32.0834 49.1667ZM33.3334 59.5834C32.643 59.5834 32.0834 60.143 32.0834 60.8334C32.0834 61.5237 32.643 62.0834 33.3334 62.0834H34.1667C35.7775 62.0834 37.0834 63.3892 37.0834 65C37.0834 65.6904 37.643 66.25 38.3334 66.25C39.0237 66.25 39.5834 65.6904 39.5834 65C39.5834 62.0085 37.1582 59.5834 34.1667 59.5834H33.3334Z" fill="#0CE93C"/>
<path fill-rule="evenodd" clip-rule="evenodd" d="M33.75 38.3334C33.75 37.643 34.3096 37.0834 35 37.0834H65C65.6904 37.0834 66.25 37.643 66.25 38.3334C66.25 39.0237 65.6904 39.5834 65 39.5834H35C34.3096 39.5834 33.75 39.0237 33.75 38.3334Z" fill="#0CE93C"/>
<path fill-rule="evenodd" clip-rule="evenodd" d="M37.0834 33.3334C37.0834 32.643 37.643 32.0834 38.3334 32.0834H61.6667C62.3571 32.0834 62.9167 32.643 62.9167 33.3334C62.9167 34.0237 62.3571 34.5834 61.6667 34.5834H38.3334C37.643 34.5834 37.0834 34.0237 37.0834 33.3334Z" fill="#0CE93C"/>
<g filter="url(#filter1_b_104_2200)">
<path d="M14.608 14.208C12.032 14.208 10.544 12.224 10.544 8.864C10.544 5.424 12.064 3.504 14.608 3.504C17.168 3.504 18.656 5.488 18.656 8.864C18.656 12.304 17.136 14.208 14.608 14.208ZM14.608 12.752C16.096 12.752 16.912 11.376 16.912 8.864C16.912 6.368 16.08 4.96 14.608 4.96C13.12 4.96 12.288 6.336 12.288 8.864C12.288 11.328 13.12 12.752 14.608 12.752ZM26.5148 14H24.7708V11.696H19.8748V10.16L24.9468 3.712H26.5148V10.352H27.9388V11.696H26.5148V14ZM21.3628 10.352H24.7708V5.872L21.3628 10.352Z" fill="white"/>
</g>
<defs>
<filter id="filter0_b_104_2200" x="-34" y="-34" width="168" height="168" filterUnits="userSpaceOnUse" color-interpolation-filters="sRGB">
<feFlood flood-opacity="0" result="BackgroundImageFix"/>
<feGaussianBlur in="BackgroundImageFix" stdDeviation="17"/>
<feComposite in2="SourceAlpha" operator="in" result="effect1_backgroundBlur_104_2200"/>
<feBlend mode="normal" in="SourceGraphic" in2="effect1_backgroundBlur_104_2200" result="shape"/>
</filter>
<filter id="filter1_b_104_2200" x="-13.456" y="-20.496" width="65.3947" height="58.704" filterUnits="userSpaceOnUse" color-interpolation-filters="sRGB">
<feFlood flood-opacity="0" result="BackgroundImageFix"/>
<feGaussianBlur in="BackgroundImageFix" stdDeviation="12"/>
<feComposite in2="SourceAlpha" operator="in" result="effect1_backgroundBlur_104_2200"/>
<feBlend mode="normal" in="SourceGraphic" in2="effect1_backgroundBlur_104_2200" result="shape"/>
</filter>
</defs>
</svg>
