<svg width="41" height="40" viewBox="0 0 41 40" fill="none" xmlns="http://www.w3.org/2000/svg">
<g id="Tether (USDT)">
<path id="Tether (USDT)_2" d="M39.6434 24.8381C36.9722 35.5525 26.1203 42.0731 15.4046 39.4012C4.69344 36.7301 -1.82713 25.8775 0.845186 15.1639C3.51516 4.44838 14.3671 -2.07268 25.0794 0.598468C35.7943 3.26961 42.3145 14.1234 39.6431 24.8383L39.6433 24.8381H39.6434Z" fill="#50AF95"/>
<path id="Tether (USDT)_3" fill-rule="evenodd" clip-rule="evenodd" d="M22.777 22.2674C22.6356 22.278 21.9049 22.3216 20.2751 22.3216C18.9788 22.3216 18.0584 22.2827 17.7355 22.2674C12.7257 22.047 8.9864 21.175 8.9864 20.1308C8.9864 19.0867 12.7257 18.2158 17.7355 17.9919V21.3989C18.0631 21.4224 19.0012 21.4778 20.2975 21.4778C21.8531 21.4778 22.6321 21.413 22.7723 21.4V17.9942C27.7714 18.217 31.5025 19.089 31.5025 20.1308C31.5025 21.1726 27.7726 22.0447 22.7723 22.2662L22.777 22.2674ZM22.777 17.6419V14.5931H29.7536V9.944H10.7588V14.5931H17.7343V17.6407C12.0646 17.9011 7.80084 19.0242 7.80084 20.3701C7.80084 21.7159 12.0646 22.8378 17.7343 23.0994V32.8691H22.7758V23.0959C28.4326 22.8354 32.6892 21.7135 32.6892 20.3689C32.6892 19.0242 28.4361 17.9023 22.7758 17.6407L22.777 17.6419Z" fill="white"/>
</g>
</svg>
