<svg width="200" height="40" viewBox="0 0 200 40" fill="none" xmlns="http://www.w3.org/2000/svg">
<path id="Binance" d="M9.03869 20L4.51739 24.5174L0 20L4.51739 15.4826L9.03869 20ZM20 9.03087L27.7413 16.7761L32.2587 12.2587L20 0L7.7413 12.2587L12.2587 16.7761L20 9.03087ZM35.4865 15.4826L30.9691 20L35.4865 24.5174L40 20L35.4865 15.4826ZM20 30.9691L12.2587 23.2278L7.7413 27.7413L20 40L32.2587 27.7413L27.7413 23.2278L20 30.9691ZM20 24.5174L24.5174 20L20 15.4826L15.4826 20L20 24.5174ZM67.6749 24.9512V24.8886C67.6749 21.9422 66.1117 20.4689 63.5678 19.4998C65.1309 18.6206 66.4517 17.2411 66.4517 14.7675V14.705C66.4517 11.2583 63.6928 9.03087 59.2106 9.03087H49.0348V30.9691H59.4685C64.4197 30.9691 67.6827 28.9644 67.6827 24.9512H67.6749ZM61.6569 15.5725C61.6569 17.202 60.3087 17.8937 58.179 17.8937H53.7358V13.263H58.4994C60.5354 13.263 61.6647 14.0758 61.6647 15.5178L61.6569 15.5725ZM62.88 24.3494C62.88 25.9789 61.5944 26.7292 59.4607 26.7292H53.7358V21.9109H59.3122C61.7897 21.9109 62.8878 22.8214 62.8878 24.2946L62.88 24.3494ZM77.8155 30.9691V9.03087H72.9738V30.9691H77.8155ZM103.759 30.9691V9.03087H98.98V22.5401L88.7026 9.03087H84.2516V30.9691H89.0152V17.0223L99.6366 30.9691H103.759ZM130.492 30.9691L121.075 8.87456H116.624L107.225 30.9691H112.145L114.158 26.0492H123.435L125.44 30.9691H130.492ZM121.719 21.7859H115.873L118.789 14.6737L121.719 21.7859ZM153.497 30.9691V9.03087H148.718V22.5401L138.437 9.03087H133.99V30.9691H138.749V17.0223L149.375 30.9691H153.497ZM178.41 27.4287L175.342 24.3259C173.619 25.889 172.083 26.8933 169.574 26.8933C165.815 26.8933 163.212 23.7671 163.212 20V19.9375C163.212 16.1782 165.877 13.1067 169.574 13.1067C171.766 13.1067 173.482 14.0445 175.186 15.5803L178.245 12.0399C176.209 10.0352 173.736 8.65572 169.597 8.65572C162.86 8.65572 158.159 13.7632 158.159 19.9883V20.0508C158.159 26.3501 162.954 31.3326 169.41 31.3326C173.634 31.3443 176.139 29.8398 178.394 27.4287H178.41ZM199.003 30.9691V26.6706H187.077V22.0555H197.421V17.7569H187.077V13.3255H198.832V9.02696H182.282V30.9652L199.003 30.9691Z" fill="#F0B90B"/>
</svg>
