<svg width="180" height="40" viewBox="0 0 180 40" fill="none" xmlns="http://www.w3.org/2000/svg">
<g id="Compound">
<path id="Compound_2" d="M175.996 22.7156C175.996 20.3789 174.618 18.6114 172.431 18.6114C170.244 18.6114 168.866 20.3789 168.866 22.7156C168.866 25.0523 170.244 26.8198 172.431 26.8198C174.618 26.8198 175.996 25.0523 175.996 22.7156ZM175.876 17.0536V10.9123C175.876 10.4929 176.146 10.1634 176.535 10.0436L179.771 9.1748V29.9054H176.176V28.1379C175.277 29.456 173.63 30.2349 171.592 30.2349C167.398 30.2349 164.972 26.8797 164.972 22.6856C164.972 18.4916 167.428 15.1363 171.592 15.1363C173.66 15.1663 175.127 16.0351 175.876 17.0536ZM153.708 15.4958V17.2633C154.367 16.0351 155.865 15.1663 157.992 15.1663C161.467 15.1663 163.294 17.473 163.294 20.9181V29.9353H159.4V21.3675C159.4 19.6899 158.681 18.5215 156.943 18.5215C155.056 18.5215 154.007 19.7198 154.007 21.6671V29.9353H150.113V15.5258H153.708V15.4958ZM140.976 30.2649C136.752 30.2649 134.415 28.4375 134.415 23.7641V15.4958H138.31V23.824C138.31 25.8312 139.208 26.7598 140.946 26.7598C142.684 26.7598 143.582 25.8312 143.582 23.824V15.4958H147.477V23.7641C147.507 28.4375 145.17 30.2649 140.976 30.2649ZM121.504 22.7156C121.504 25.2919 123.091 26.8198 125.158 26.8198C127.225 26.8198 128.813 25.2919 128.813 22.7156C128.813 20.1392 127.225 18.6114 125.158 18.6114C123.121 18.6114 121.504 20.1093 121.504 22.7156ZM125.158 30.2649C120.545 30.2649 117.579 26.8198 117.579 22.7156C117.579 18.6114 120.515 15.1663 125.158 15.1663C129.772 15.1663 132.738 18.6114 132.738 22.7156C132.738 26.8198 129.802 30.2649 125.158 30.2649ZM105.686 22.7156C105.686 25.0523 107.064 26.8198 109.251 26.8198C111.438 26.8198 112.816 25.0523 112.816 22.7156C112.816 20.3789 111.438 18.6114 109.251 18.6114C107.064 18.6114 105.686 20.3789 105.686 22.7156ZM105.806 28.3775V34.369C105.806 34.7884 105.536 35.118 105.147 35.2378L101.911 36.0766V15.4958H105.506V17.2633C106.405 15.9452 108.053 15.1663 110.09 15.1663C114.284 15.1663 116.71 18.5215 116.71 22.7156C116.71 26.9096 114.254 30.2649 110.09 30.2649C108.023 30.2649 106.555 29.3661 105.806 28.3775ZM90.2879 21.727V29.9353H86.3934V21.3675C86.3934 19.7798 85.8243 18.5215 84.0867 18.5215C82.2593 18.5215 81.2707 19.6899 81.2707 21.6371V29.9353H77.3762V15.4958H80.9711V17.2633C81.6302 16.0351 83.0682 15.1663 85.1352 15.1663C87.0825 15.1663 88.4905 15.9452 89.3293 17.2034C90.5875 15.7954 92.0554 15.1663 94.1225 15.1663C97.5975 15.1663 99.365 17.5629 99.365 20.9181V29.9353H95.4706V21.3675C95.4706 19.7798 94.9014 18.5215 93.1638 18.5215C91.2466 18.5215 90.2879 19.7198 90.2879 21.727ZM64.3148 22.7156C64.3148 25.2919 65.9025 26.8198 67.9696 26.8198C70.0367 26.8198 71.6244 25.2919 71.6244 22.7156C71.6244 20.1392 70.0367 18.6114 67.9696 18.6114C65.9025 18.6114 64.3148 20.1093 64.3148 22.7156ZM67.9696 30.2649C63.3562 30.2649 60.3904 26.8198 60.3904 22.7156C60.3904 18.6114 63.3262 15.1663 67.9696 15.1663C72.613 15.1663 75.5488 18.6114 75.5488 22.7156C75.5488 26.8198 72.583 30.2649 67.9696 30.2649ZM40.1092 20.1093C40.1092 13.998 44.3332 9.9537 49.9352 9.9537C54.8183 9.9537 58.6528 12.8296 59.4018 17.5929H55.1179C54.5487 15.1363 52.5715 13.7583 49.9352 13.7583C46.3703 13.7583 44.3332 16.2448 44.3332 20.0793C44.3332 23.9438 46.3403 26.4004 49.9352 26.4004C52.5415 26.4004 54.5187 25.0223 55.1179 22.5658H59.4018C58.6528 27.329 54.8183 30.205 49.9352 30.205C44.3332 30.2948 40.1092 26.2206 40.1092 20.1093Z" fill="white"/>
<path id="Compound_3" d="M1.64383 31.1336C0.65523 30.5345 0.026123 29.4261 0.026123 28.2877V21.7869C0.026123 21.5473 0.0860381 21.3076 0.205868 21.0979C0.595315 20.4388 1.46408 20.1992 2.12315 20.5886L16.8023 29.1565C17.6711 29.6657 18.1803 30.5644 18.1803 31.583V38.3234C18.1803 38.623 18.0905 38.9226 17.9407 39.1922C17.4614 39.9711 16.4129 40.2407 15.634 39.7614L1.64383 31.1336ZM23.5427 18.7912C24.4115 19.3004 24.9208 20.1992 24.9208 21.2177V34.9083C24.9208 35.3277 24.7111 35.6872 24.3516 35.8969L21.1461 37.6943C21.1162 37.7243 21.0563 37.7243 21.0263 37.7542V30.175C21.0263 29.1864 20.517 28.2877 19.6782 27.7784L6.79651 20.0793V11.4216C6.79651 11.182 6.85642 10.9423 6.97625 10.7326C7.3657 10.0735 8.23447 9.83388 8.89353 10.2233L23.5427 18.7912ZM29.9536 8.66553C30.8224 9.17481 31.3317 10.0735 31.3317 11.0921V31.0737C31.3317 31.4931 31.092 31.8526 30.7325 32.0623L27.6769 33.71V19.8097C27.6769 18.8211 27.1676 17.9224 26.3288 17.4131L13.1475 9.50435V1.38587C13.1475 1.14621 13.2074 0.906553 13.3272 0.696851C13.7167 0.0377863 14.5855 -0.201877 15.2445 0.18757L29.9536 8.66553Z" fill="#00D395"/>
</g>
</svg>
