<svg width="100" height="100" viewBox="0 0 100 100" fill="none" xmlns="http://www.w3.org/2000/svg">
<g filter="url(#filter0_b_104_2199)">
<circle cx="50" cy="50" r="50" fill="#B6F3A5" fill-opacity="0.1"/>
<circle cx="50" cy="50" r="49.5" stroke="#B6F3A5" stroke-opacity="0.1"/>
</g>
<path fill-rule="evenodd" clip-rule="evenodd" d="M41.6667 32.0834C36.3739 32.0834 32.0833 36.374 32.0833 41.6667V58.3334C32.0833 63.6261 36.3739 67.9167 41.6667 67.9167H58.3333C63.6261 67.9167 67.9167 63.6261 67.9167 58.3334V41.6667C67.9167 36.374 63.6261 32.0834 58.3333 32.0834H41.6667ZM56.5 46.4167C55.5796 46.4167 54.8334 47.1629 54.8334 48.0834V59.0001H61.15V48.0834C61.15 47.1629 60.4039 46.4167 59.4834 46.4167H56.5ZM38.8667 51.9167C38.8667 50.9962 39.6129 50.25 40.5333 50.25H43.5167C44.4372 50.25 45.1833 50.9962 45.1833 51.9167V59.0167H38.8667V51.9167ZM48.7354 41H51.2688C52.3188 41 53.1521 41.85 53.1521 42.9V59.0001H46.8354V42.9C46.8354 41.85 47.6854 41 48.7354 41Z" fill="#0CE93C"/>
<g filter="url(#filter1_b_104_2199)">
<path d="M14.608 14.208C12.032 14.208 10.544 12.224 10.544 8.864C10.544 5.424 12.064 3.504 14.608 3.504C17.168 3.504 18.656 5.488 18.656 8.864C18.656 12.304 17.136 14.208 14.608 14.208ZM14.608 12.752C16.096 12.752 16.912 11.376 16.912 8.864C16.912 6.368 16.08 4.96 14.608 4.96C13.12 4.96 12.288 6.336 12.288 8.864C12.288 11.328 13.12 12.752 14.608 12.752ZM27.8108 11.104C27.8108 12.848 26.4668 14.208 23.8748 14.208C21.5707 14.208 20.0828 12.992 19.7948 10.976H21.5388C21.7148 12.08 22.4508 12.768 23.8588 12.768C25.2988 12.768 26.0668 12.128 26.0668 11.024C26.0668 10.208 25.6188 9.36 23.4268 9.36H22.9308V8.048H23.3307C25.4268 8.048 25.7788 7.184 25.7788 6.512C25.7788 5.536 25.1228 4.944 23.8908 4.944C22.5948 4.944 21.9228 5.6 21.7308 6.688H20.0188C20.2908 4.72 21.6828 3.504 23.9068 3.504C26.2748 3.504 27.5228 4.8 27.5228 6.496C27.5228 7.456 27.1228 8.176 26.1308 8.608C27.3468 9.12 27.8108 10.016 27.8108 11.104Z" fill="white"/>
</g>
<defs>
<filter id="filter0_b_104_2199" x="-34" y="-34" width="168" height="168" filterUnits="userSpaceOnUse" color-interpolation-filters="sRGB">
<feFlood flood-opacity="0" result="BackgroundImageFix"/>
<feGaussianBlur in="BackgroundImageFix" stdDeviation="17"/>
<feComposite in2="SourceAlpha" operator="in" result="effect1_backgroundBlur_104_2199"/>
<feBlend mode="normal" in="SourceGraphic" in2="effect1_backgroundBlur_104_2199" result="shape"/>
</filter>
<filter id="filter1_b_104_2199" x="-13.456" y="-20.496" width="65.2667" height="58.704" filterUnits="userSpaceOnUse" color-interpolation-filters="sRGB">
<feFlood flood-opacity="0" result="BackgroundImageFix"/>
<feGaussianBlur in="BackgroundImageFix" stdDeviation="12"/>
<feComposite in2="SourceAlpha" operator="in" result="effect1_backgroundBlur_104_2199"/>
<feBlend mode="normal" in="SourceGraphic" in2="effect1_backgroundBlur_104_2199" result="shape"/>
</filter>
</defs>
</svg>
