<svg width="220" height="42" viewBox="0 0 220 42" fill="none" xmlns="http://www.w3.org/2000/svg">
<g id="MetaMask">
<g id="MetaMask_2">
<path d="M191.778 19.7843L191.781 19.7854C192.593 20.1917 193.39 20.5903 194.142 21.1027C196.091 22.436 196.706 24.3847 196.398 26.5386C195.988 28.7437 194.039 30.8975 190.245 30.8975C188.757 30.8975 187.373 30.4874 186.091 29.513C184.757 28.4873 184.245 27.3591 184.245 25.3592C184.245 25.3078 184.296 25.2565 184.347 25.2565H187.116C187.168 25.2565 187.219 25.3078 187.219 25.3592C187.219 25.5643 187.27 25.9745 187.321 26.1796C187.732 27.3591 188.809 28.1284 190.245 28.2309C191.527 28.3334 192.809 27.6155 193.322 26.5899C193.834 25.4617 193.475 24.0258 192.193 23.2566C191.355 22.7198 189.528 21.7661 188.251 21.0989C187.575 20.746 187.053 20.4734 186.911 20.3847C183.27 18.1284 183.885 10.9489 190.655 10.9489C191.988 10.9489 193.219 11.3591 194.296 12.1796C195.424 13.0515 196.039 14.3847 196.193 15.9745C196.193 16.0257 196.142 16.0771 196.091 16.0771H193.527C193.475 16.0771 193.424 16.0257 193.424 15.9745C193.116 13.6668 190.296 13.0515 188.604 14.1797C187.373 15.0001 187.168 16.8463 188.296 17.7694C188.894 18.2752 189.615 18.6574 190.312 19.0268L190.552 19.154C190.659 19.212 190.766 19.2688 190.873 19.3248L190.964 19.3722L191.137 19.461C191.351 19.5707 191.565 19.6777 191.778 19.7843Z" fill="white"/>
<path d="M74.9111 11.3591C74.9624 11.3591 75.0138 11.4105 75.0138 11.4617V30.6925C75.0138 30.7065 75.01 30.7205 75.0032 30.7335C74.9927 30.7542 74.9752 30.7721 74.9549 30.7831C74.9411 30.7906 74.9261 30.795 74.9111 30.795H72.1419C72.1269 30.795 72.1119 30.7906 72.0983 30.7831C72.0888 30.778 72.0801 30.7713 72.0721 30.7636C72.0573 30.7491 72.0463 30.7308 72.0415 30.7116C72.04 30.7052 72.0392 30.6989 72.0392 30.6925V16.0771C72.0392 15.9232 71.8855 15.9232 71.8342 16.0259L69.5265 23.6155L69.3727 24.1283C69.3727 24.1283 69.3214 24.1797 69.2701 24.1797H67.1164C67.0801 24.1797 67.0438 24.1797 67.0257 24.1615C67.0182 24.154 67.0137 24.1434 67.0137 24.1283L66.86 23.6155L64.5523 16.0259C64.5009 15.9232 64.3469 15.9745 64.3469 16.0771V30.6925C64.3469 30.7438 64.2959 30.795 64.2445 30.795H61.4753C61.424 30.795 61.3727 30.7438 61.3727 30.6925V11.4617C61.3727 11.4403 61.3814 11.4189 61.3955 11.4012C61.4 11.3957 61.405 11.3906 61.4102 11.3858L61.4193 11.3787L61.4275 11.3732C61.4423 11.3644 61.4588 11.3591 61.4753 11.3591H65.6803C65.7317 11.3591 65.783 11.3591 65.783 11.4105L68.0907 18.9489C68.1162 19.0001 68.1545 19.0258 68.1928 19.0258C68.2314 19.0259 68.27 19.0002 68.2958 18.9489L70.6035 11.4105C70.6035 11.4105 70.6185 11.3953 70.6405 11.3814L70.6525 11.3744C70.6686 11.3658 70.6873 11.3591 70.7061 11.3591H74.9111Z" fill="white"/>
<path d="M151.504 11.3621L151.494 11.3653C151.488 11.3676 151.481 11.3703 151.476 11.3734L151.468 11.3772C151.443 11.3919 151.424 11.4105 151.424 11.4105L149.116 18.9489C149.065 19.0515 148.962 19.0515 148.911 18.9489L146.604 11.4105C146.604 11.3591 146.552 11.3591 146.501 11.3591H142.245C142.193 11.3591 142.142 11.4105 142.142 11.4617V30.6925C142.142 30.7438 142.193 30.795 142.245 30.795H145.014C145.065 30.795 145.116 30.7438 145.116 30.6925V16.0771C145.116 16.0563 145.122 16.0376 145.133 16.0219C145.147 16.0011 145.168 15.9854 145.192 15.977C145.239 15.9604 145.294 15.9715 145.322 16.0259L147.629 23.6155L147.783 24.1283C147.783 24.139 147.785 24.1474 147.789 24.154C147.793 24.161 147.799 24.1661 147.807 24.1699C147.814 24.1735 147.823 24.1758 147.833 24.1773L147.852 24.1792L147.886 24.1797H150.039C150.057 24.1797 150.074 24.1737 150.09 24.1656C150.102 24.1594 150.113 24.152 150.122 24.1455C150.134 24.1361 150.142 24.1283 150.142 24.1283L150.296 23.6155L152.603 16.0259C152.655 15.9232 152.808 15.9232 152.808 16.0771V30.6925C152.808 30.7438 152.86 30.795 152.911 30.795H155.68C155.732 30.795 155.783 30.7438 155.783 30.6925V11.4617C155.783 11.4105 155.732 11.3591 155.68 11.3591H151.526C151.519 11.3591 151.511 11.3603 151.504 11.3621Z" fill="white"/>
<path d="M115.629 11.3591C115.68 11.3591 115.732 11.4105 115.68 11.4617V13.8719C115.68 13.9232 115.629 13.9746 115.578 13.9746H110.501V30.6925C110.501 30.6994 110.5 30.7062 110.498 30.713C110.497 30.7194 110.494 30.7256 110.491 30.7317C110.485 30.7438 110.477 30.7551 110.467 30.7647C110.448 30.783 110.423 30.795 110.398 30.795H107.629C107.609 30.795 107.589 30.787 107.572 30.7742C107.545 30.7546 107.527 30.7235 107.527 30.6925V13.9746H102.45C102.419 13.9746 102.389 13.9567 102.369 13.9314C102.364 13.9246 102.36 13.9174 102.356 13.9097C102.35 13.8977 102.347 13.8848 102.347 13.8719V11.4617C102.347 11.4349 102.361 11.4081 102.382 11.3887C102.401 11.3709 102.425 11.3591 102.45 11.3591H115.629Z" fill="white"/>
<path fill-rule="evenodd" clip-rule="evenodd" d="M132.039 30.795H134.552C134.583 30.795 134.614 30.7765 134.633 30.7394C134.646 30.7149 134.655 30.6821 134.655 30.6411L129.424 11.3591C129.424 11.326 129.403 11.3142 129.374 11.3101C129.358 11.3078 129.34 11.3078 129.321 11.3078H125.68C125.656 11.3078 125.632 11.3193 125.613 11.3315C125.592 11.3449 125.578 11.3591 125.578 11.3591L120.347 30.6411C120.347 30.6925 120.398 30.795 120.45 30.795H122.962C123.014 30.795 123.065 30.7437 123.065 30.7437L124.603 25.1026C124.603 25.0666 124.629 25.0559 124.662 25.0528C124.675 25.0514 124.691 25.0514 124.706 25.0514H130.296C130.318 25.0514 130.341 25.0616 130.36 25.0728C130.383 25.0869 130.398 25.1026 130.398 25.1026L131.937 30.7437C131.937 30.7437 131.958 30.7653 131.987 30.7805C132.003 30.7886 132.021 30.795 132.039 30.795ZM125.373 22.2821L127.424 14.7437C127.475 14.6411 127.578 14.6411 127.629 14.7437L129.68 22.2821C129.68 22.3335 129.629 22.436 129.578 22.436H125.527C125.424 22.436 125.373 22.3335 125.373 22.2821Z" fill="white"/>
<path fill-rule="evenodd" clip-rule="evenodd" d="M177.732 30.795H175.219C175.168 30.795 175.116 30.7437 175.116 30.7437L173.578 25.1026C173.578 25.1026 173.564 25.0886 173.543 25.0752C173.536 25.0703 173.527 25.0655 173.518 25.0615C173.504 25.0556 173.49 25.0514 173.475 25.0514H167.886C167.865 25.0514 167.844 25.0514 167.827 25.0548C167.801 25.0598 167.783 25.0721 167.783 25.1026L166.244 30.7437C166.244 30.7437 166.229 30.7591 166.207 30.773C166.188 30.7845 166.165 30.795 166.142 30.795H163.629C163.578 30.795 163.527 30.6925 163.527 30.6411L168.757 11.3591C168.757 11.3591 168.809 11.3078 168.86 11.3078H172.501C172.529 11.3078 172.557 11.3078 172.577 11.3161C172.593 11.323 172.604 11.3357 172.604 11.3591L177.834 30.6411C177.834 30.7437 177.783 30.795 177.732 30.795ZM170.603 14.7437L168.552 22.2821C168.552 22.3335 168.604 22.436 168.706 22.436H172.757C172.809 22.436 172.86 22.3335 172.86 22.2821L170.809 14.7437C170.757 14.6411 170.655 14.6411 170.603 14.7437Z" fill="white"/>
<path d="M86.2956 27.9233V21.9745C86.2956 21.9233 86.3469 21.872 86.3982 21.872H93.8341C93.8577 21.872 93.8812 21.8611 93.9 21.8444C93.9218 21.8248 93.9368 21.7971 93.9368 21.7694V19.3592C93.9368 19.3079 93.8855 19.2565 93.8341 19.2565H86.3982C86.3469 19.2565 86.2956 19.2053 86.2956 19.154V14.0771C86.2956 14.0474 86.3126 14.0179 86.3369 13.9982C86.3446 13.992 86.3532 13.9867 86.3619 13.9827C86.3737 13.9775 86.386 13.9746 86.3982 13.9746H94.8084C94.8598 13.9746 94.9111 13.9232 94.9111 13.8719V11.4617C94.9111 11.4105 94.8598 11.3591 94.8084 11.3591H83.424C83.3726 11.3591 83.3213 11.4105 83.3213 11.4617V30.6925C83.3213 30.7149 83.3311 30.7373 83.3466 30.7554C83.3664 30.7787 83.3952 30.795 83.424 30.795H95.1675C95.2188 30.795 95.2699 30.7438 95.2699 30.6925V28.1797C95.2699 28.1284 95.2188 28.0772 95.1675 28.0772H86.3469C86.3469 28.0515 86.3339 28.0258 86.3211 28.0002C86.3083 27.9745 86.2956 27.9488 86.2956 27.9233Z" fill="white"/>
<path d="M209.937 20.6411L219.578 30.5899C219.629 30.6411 219.578 30.795 219.424 30.8975H215.885L215.834 30.8463L207.527 22.2309C207.475 22.1284 207.373 22.1796 207.373 22.2821V30.7437C207.373 30.795 207.321 30.8463 207.27 30.8463H204.501C204.45 30.8463 204.398 30.795 204.398 30.7437V11.5129C204.398 11.4742 204.428 11.4354 204.464 11.4187C204.476 11.4133 204.488 11.4103 204.501 11.4103H207.321C207.373 11.4103 207.424 11.4617 207.424 11.5129V19.0001C207.424 19.0515 207.527 19.1027 207.578 19.0515L214.962 11.3591C214.962 11.3078 214.962 11.3078 215.014 11.3078H218.552C218.585 11.3078 218.618 11.3495 218.624 11.3929C218.627 11.4177 218.622 11.443 218.604 11.4617L209.937 20.4873C209.886 20.5386 209.886 20.5899 209.937 20.6411Z" fill="white"/>
</g>
<g id="Mask">
<path id="Element" d="M42.3471 1L25.5266 13.5128L28.6548 6.12821L42.3471 1Z" fill="#E17726" stroke="#E17726" stroke-width="0.769231" stroke-linecap="round" stroke-linejoin="round"/>
<path id="Element_2" d="M3.4753 1L20.1932 13.6154L17.2189 6.12821L3.4753 1Z" fill="#E27625" stroke="#E27625" stroke-width="0.769231" stroke-linecap="round" stroke-linejoin="round"/>
<path id="Element_3" d="M36.2959 29.9744L31.7831 36.8462L41.4241 39.5128L44.1421 30.1282L36.2959 29.9744Z" fill="#E27625" stroke="#E27625" stroke-width="0.769231" stroke-linecap="round" stroke-linejoin="round"/>
<path id="Element_4" d="M1.73177 30.1282L4.44972 39.5128L14.0395 36.8462L9.57792 29.9744L1.73177 30.1282Z" fill="#E27625" stroke="#E27625" stroke-width="0.769231" stroke-linecap="round" stroke-linejoin="round"/>
<path id="Element_5" d="M13.5265 18.3847L10.8599 22.436L20.347 22.8463L20.0394 12.5898L13.5265 18.3847Z" fill="#E27625" stroke="#E27625" stroke-width="0.769231" stroke-linecap="round" stroke-linejoin="round"/>
<path id="Element_6" d="M32.3471 18.3845L25.7317 12.4871L25.5266 22.846L35.0138 22.4358L32.3471 18.3845Z" fill="#E27625" stroke="#E27625" stroke-width="0.769231" stroke-linecap="round" stroke-linejoin="round"/>
<path id="Element_7" d="M14.0395 36.8461L19.783 34.0769L14.8087 30.1794L14.0395 36.8461Z" fill="#E27625" stroke="#E27625" stroke-width="0.769231" stroke-linecap="round" stroke-linejoin="round"/>
<path id="Element_8" d="M26.0907 34.0769L31.7831 36.8461L31.0138 30.1794L26.0907 34.0769Z" fill="#E27625" stroke="#E27625" stroke-width="0.769231" stroke-linecap="round" stroke-linejoin="round"/>
<path id="Element_9" d="M31.7831 36.8461L26.0907 34.0769L26.5523 37.7692L26.501 39.359L31.7831 36.8461Z" fill="#D5BFB2" stroke="#D5BFB2" stroke-width="0.769231" stroke-linecap="round" stroke-linejoin="round"/>
<path id="Element_10" d="M14.0395 36.8461L19.3728 39.359L19.3215 37.7692L19.783 34.0769L14.0395 36.8461Z" fill="#D5BFB2" stroke="#D5BFB2" stroke-width="0.769231" stroke-linecap="round" stroke-linejoin="round"/>
<path id="Element_11" d="M19.4752 27.7179L14.706 26.3333L18.0393 24.7948L19.4752 27.7179Z" fill="#233447" stroke="#233447" stroke-width="0.769231" stroke-linecap="round" stroke-linejoin="round"/>
<path id="Element_12" d="M26.3982 27.7179L27.7829 24.7948L31.1675 26.3333L26.3982 27.7179Z" fill="#233447" stroke="#233447" stroke-width="0.769231" stroke-linecap="round" stroke-linejoin="round"/>
<path id="Element_13" d="M14.0393 36.8462L14.8599 29.9744L9.5778 30.1282L14.0393 36.8462Z" fill="#CC6228" stroke="#CC6228" stroke-width="0.769231" stroke-linecap="round" stroke-linejoin="round"/>
<path id="Element_14" d="M31.0136 29.9744L31.7828 36.8462L36.2956 30.1282L31.0136 29.9744Z" fill="#CC6228" stroke="#CC6228" stroke-width="0.769231" stroke-linecap="round" stroke-linejoin="round"/>
<path id="Element_15" d="M35.0138 22.4359L25.5266 22.8462L26.3984 27.718L27.783 24.7949L31.1676 26.3334L35.0138 22.4359Z" fill="#CC6228" stroke="#CC6228" stroke-width="0.769231" stroke-linecap="round" stroke-linejoin="round"/>
<path id="Element_16" d="M14.706 26.3334L18.0394 24.7949L19.4752 27.718L20.347 22.8462L10.8599 22.4359L14.706 26.3334Z" fill="#CC6228" stroke="#CC6228" stroke-width="0.769231" stroke-linecap="round" stroke-linejoin="round"/>
<path id="Element_17" d="M10.8599 22.4359L14.8086 30.1795L14.706 26.3334L10.8599 22.4359Z" fill="#E27525" stroke="#E27525" stroke-width="0.769231" stroke-linecap="round" stroke-linejoin="round"/>
<path id="Element_18" d="M31.1674 26.3334L31.0136 30.1795L35.0136 22.4359L31.1674 26.3334Z" fill="#E27525" stroke="#E27525" stroke-width="0.769231" stroke-linecap="round" stroke-linejoin="round"/>
<path id="Element_19" d="M20.347 22.8463L19.4752 27.7181L20.5521 33.513L20.8085 25.872L20.347 22.8463Z" fill="#E27525" stroke="#E27525" stroke-width="0.769231" stroke-linecap="round" stroke-linejoin="round"/>
<path id="Element_20" d="M25.5266 22.8463L25.0651 25.872L25.2702 33.513L26.3984 27.7181L25.5266 22.8463Z" fill="#E27525" stroke="#E27525" stroke-width="0.769231" stroke-linecap="round" stroke-linejoin="round"/>
<path id="Element_21" d="M26.3984 27.7179L25.2702 33.5127L26.0907 34.0768L31.0138 30.1794L31.1676 26.3333L26.3984 27.7179Z" fill="#F5841F" stroke="#F5841F" stroke-width="0.769231" stroke-linecap="round" stroke-linejoin="round"/>
<path id="Element_22" d="M14.706 26.3333L14.8086 30.1794L19.7829 34.0768L20.5522 33.5127L19.4752 27.7179L14.706 26.3333Z" fill="#F5841F" stroke="#F5841F" stroke-width="0.769231" stroke-linecap="round" stroke-linejoin="round"/>
<path id="Element_23" d="M26.501 39.359L26.5523 37.7693L26.0907 37.4103H19.7318L19.3215 37.7693L19.3728 39.359L14.0395 36.8462L15.8856 38.3847L19.6805 41H26.142L29.9369 38.3847L31.783 36.8462L26.501 39.359Z" fill="#C0AC9D" stroke="#C0AC9D" stroke-width="0.769231" stroke-linecap="round" stroke-linejoin="round"/>
<path id="Element_24" d="M26.0906 34.0769L25.2701 33.5128H20.5522L19.783 34.0769L19.3214 37.7692L19.7317 37.4103H26.0906L26.5522 37.7692L26.0906 34.0769Z" fill="#161616" stroke="#161616" stroke-width="0.769231" stroke-linecap="round" stroke-linejoin="round"/>
<path id="Element_25" d="M43.0651 14.3334L44.501 7.41026L42.3472 1L26.0907 13.1026L32.3472 18.3846L41.1677 20.9487L43.1164 18.6923L42.2959 18.0769L43.6292 16.8462L42.6036 16.0257L43.9369 15L43.0651 14.3334Z" fill="#763E1A" stroke="#763E1A" stroke-width="0.769231" stroke-linecap="round" stroke-linejoin="round"/>
<path id="Element_26" d="M1.37268 7.41026L2.80858 14.3334L1.8855 15L3.21883 16.0257L2.19319 16.8462L3.57781 18.0769L2.70601 18.6923L4.65473 20.9487L13.5265 18.3846L19.7829 13.1026L3.47524 1L1.37268 7.41026Z" fill="#763E1A" stroke="#763E1A" stroke-width="0.769231" stroke-linecap="round" stroke-linejoin="round"/>
<path id="Element_27" d="M41.1674 20.9486L32.3469 18.3845L35.0136 22.4358L31.0136 30.1794L36.2956 30.1281H44.1418L41.1674 20.9486Z" fill="#F5841F" stroke="#F5841F" stroke-width="0.769231" stroke-linecap="round" stroke-linejoin="round"/>
<path id="Element_28" d="M13.5266 18.3845L4.65485 20.9486L1.73177 30.1281H9.57792L14.8087 30.1794L10.86 22.4358L13.5266 18.3845Z" fill="#F5841F" stroke="#F5841F" stroke-width="0.769231" stroke-linecap="round" stroke-linejoin="round"/>
<path id="Element_29" d="M25.5265 22.8461L26.0906 13.1025L28.6547 6.12817H17.2188L19.7829 13.1025L20.347 22.8461L20.5521 25.9231V33.5128H25.2701V25.9231L25.5265 22.8461Z" fill="#F5841F" stroke="#F5841F" stroke-width="0.769231" stroke-linecap="round" stroke-linejoin="round"/>
</g>
</g>
</svg>
