<svg width="19" height="18" viewBox="0 0 19 18" fill="none" xmlns="http://www.w3.org/2000/svg">
<g id="icon">
<path id="Star 8 (Stroke)" fill-rule="evenodd" clip-rule="evenodd" d="M7.74395 1.17006C8.25419 -0.0566898 9.99201 -0.0566849 10.5022 1.17006L12.2231 5.30749C12.2538 5.38137 12.3233 5.43185 12.4031 5.43825L16.8698 5.79634C18.1942 5.90251 18.7312 7.55528 17.7221 8.41963L14.319 11.3348C14.2582 11.3869 14.2317 11.4685 14.2502 11.5464L15.29 15.9051C15.5982 17.1975 14.1923 18.2189 13.0584 17.5264L9.23433 15.1906C9.16604 15.1489 9.08016 15.1489 9.01187 15.1906L5.18775 17.5264C4.0539 18.2189 2.64797 17.1975 2.95625 15.9051L3.99597 11.5464C4.01453 11.4685 3.988 11.3869 3.92723 11.3348L0.524071 8.41963C-0.484968 7.55528 0.0520553 5.90251 1.37643 5.79634L5.84313 5.43825C5.92289 5.43185 5.99237 5.38137 6.0231 5.30749L7.74395 1.17006ZM9.32012 1.66174C9.24723 1.48648 8.99897 1.48649 8.92608 1.66174L7.20523 5.79916C6.99013 6.31633 6.50377 6.66969 5.94544 6.71445L1.47874 7.07254C1.28954 7.08771 1.21283 7.32382 1.35698 7.4473L4.76013 10.3625C5.18552 10.7268 5.37129 11.2986 5.24133 11.8434L4.20161 16.2022C4.15757 16.3868 4.35842 16.5327 4.52039 16.4338L8.34451 14.098C8.82251 13.8061 9.42369 13.8061 9.90169 14.098L13.7258 16.4338C13.8878 16.5327 14.0886 16.3868 14.0446 16.2022L13.0049 11.8434C12.8749 11.2986 13.0607 10.7268 13.4861 10.3625L16.8892 7.4473C17.0334 7.32382 16.9567 7.08771 16.7675 7.07254L12.3008 6.71445C11.7424 6.66969 11.2561 6.31633 11.041 5.79916L9.32012 1.66174Z" fill="white" fill-opacity="0.7"/>
</g>
</svg>
